<svg xmlns="http://www.w3.org/2000/svg" width="300" height="300" viewBox="0 0 300 300">
<path d="M 111.55 74.58 L 111.04 73.72 C 110.63 73.04 109.75 72.82 109.07 73.22 C 108.39 73.63 108.17 74.51 108.57 75.19 L 109.08 76.05 C 109.49 76.73 110.37 76.96 111.05 76.55 C 111.74 76.15 111.96 75.26 111.55 74.58 Z M 110.92 73.48 L 110.17 72.63 C 109.63 72.02 108.70 71.95 108.08 72.49 C 107.47 73.03 107.41 73.96 107.95 74.58 L 108.70 75.43 C 109.23 76.05 110.17 76.11 110.78 75.57 C 111.39 75.03 111.46 74.10 110.92 73.48 Z M 109.43 72.09 L 108.96 71.97 C 108.12 71.77 107.27 72.28 107.07 73.11 C 106.86 73.95 107.37 74.79 108.21 75.00 L 108.68 75.12 C 109.52 75.32 110.36 74.81 110.57 73.98 C 110.78 73.14 110.27 72.30 109.43 72.09 Z M 107.14 74.22 L 107.66 75.23 C 108.06 76.02 109.03 76.34 109.83 75.94 C 110.62 75.53 110.94 74.56 110.54 73.77 L 110.02 72.75 C 109.62 71.96 108.65 71.64 107.85 72.05 C 107.05 72.45 106.74 73.42 107.14 74.22 Z M 107.75 75.41 L 108.26 76.16 C 108.76 76.90 109.78 77.10 110.52 76.59 C 111.26 76.09 111.45 75.08 110.95 74.34 L 110.44 73.58 C 109.94 72.84 108.93 72.65 108.18 73.15 C 107.44 73.66 107.25 74.67 107.75 75.41 Z M 108.29 76.21 L 108.93 77.08 C 109.46 77.81 110.48 77.97 111.21 77.43 C 111.94 76.90 112.09 75.88 111.56 75.15 L 110.92 74.28 C 110.39 73.56 109.37 73.40 108.64 73.93 C 107.91 74.47 107.76 75.49 108.29 76.21 Z M 108.93 77.09 L 109.47 77.83 C 110.01 78.55 111.03 78.71 111.76 78.17 C 112.48 77.63 112.64 76.61 112.10 75.88 L 111.56 75.15 C 111.02 74.42 110.00 74.27 109.27 74.80 C 108.55 75.34 108.39 76.36 108.93 77.09 Z M 109.46 77.82 L 110.05 78.62 C 110.58 79.35 111.61 79.52 112.34 78.98 C 113.07 78.45 113.23 77.43 112.70 76.70 L 112.11 75.89 C 111.58 75.16 110.55 75.00 109.82 75.53 C 109.09 76.06 108.93 77.09 109.46 77.82 Z M 110.04 78.61 L 110.67 79.49 C 111.19 80.23 112.21 80.40 112.95 79.88 C 113.69 79.35 113.86 78.33 113.34 77.59 L 112.71 76.71 C 112.19 75.97 111.16 75.80 110.42 76.32 C 109.69 76.85 109.51 77.87 110.04 78.61 Z M 110.65 79.47 L 111.23 80.31 C 111.74 81.06 112.77 81.25 113.51 80.73 C 114.26 80.22 114.45 79.20 113.93 78.45 L 113.35 77.61 C 112.84 76.86 111.82 76.68 111.07 77.19 C 110.32 77.71 110.14 78.73 110.65 79.47 Z M 111.22 80.30 L 111.78 81.14 C 112.29 81.89 113.31 82.09 114.06 81.59 C 114.81 81.08 115.01 80.06 114.51 79.31 L 113.94 78.47 C 113.44 77.71 112.42 77.51 111.66 78.02 C 110.91 78.52 110.71 79.54 111.22 80.30 Z M 111.77 81.13 L 112.32 81.97 C 112.82 82.73 113.84 82.94 114.60 82.44 C 115.36 81.94 115.57 80.92 115.07 80.16 L 114.52 79.32 C 114.02 78.56 113.00 78.35 112.24 78.85 C 111.48 79.35 111.27 80.37 111.77 81.13 Z M 112.31 81.95 L 112.86 82.81 C 113.35 83.57 114.37 83.80 115.14 83.30 C 115.90 82.81 116.12 81.79 115.63 81.03 L 115.08 80.17 C 114.59 79.41 113.57 79.19 112.81 79.68 C 112.04 80.17 111.82 81.19 112.31 81.95 Z M 112.85 82.80 L 113.43 83.71 C 113.91 84.48 114.93 84.72 115.70 84.23 C 116.47 83.75 116.70 82.73 116.22 81.96 L 115.64 81.04 C 115.16 80.27 114.14 80.04 113.37 80.52 C 112.60 81.01 112.37 82.03 112.85 82.80 Z M 113.42 83.70 L 113.93 84.53 C 114.41 85.31 115.42 85.55 116.20 85.08 C 116.97 84.60 117.22 83.58 116.74 82.81 L 116.23 81.97 C 115.75 81.20 114.74 80.95 113.96 81.43 C 113.18 81.91 112.94 82.92 113.42 83.70 Z M 113.92 84.52 L 114.41 85.33 C 114.88 86.11 115.89 86.36 116.67 85.90 C 117.45 85.43 117.71 84.41 117.24 83.63 L 116.75 82.82 C 116.28 82.04 115.27 81.79 114.49 82.26 C 113.71 82.73 113.45 83.74 113.92 84.52 Z M 114.40 85.31 L 114.92 86.20 C 115.37 86.99 116.38 87.26 117.17 86.80 C 117.96 86.34 118.23 85.33 117.77 84.55 L 117.25 83.65 C 116.79 82.87 115.78 82.60 114.99 83.06 C 114.21 83.52 113.94 84.52 114.40 85.31 Z M 114.90 86.18 L 115.36 86.99 C 115.81 87.79 116.81 88.07 117.61 87.62 C 118.40 87.18 118.68 86.17 118.24 85.38 L 117.78 84.57 C 117.33 83.77 116.33 83.49 115.53 83.94 C 114.74 84.38 114.46 85.39 114.90 86.18 Z M 115.35 86.98 L 115.83 87.86 C 116.27 88.66 117.27 88.95 118.07 88.51 C 118.87 88.08 119.16 87.07 118.73 86.27 L 118.25 85.39 C 117.81 84.59 116.81 84.30 116.01 84.74 C 115.21 85.17 114.91 86.18 115.35 86.98 Z M 115.82 87.83 L 116.28 88.71 C 116.70 89.52 117.70 89.83 118.50 89.41 C 119.31 88.99 119.62 87.99 119.20 87.18 L 118.74 86.30 C 118.32 85.49 117.32 85.18 116.51 85.60 C 115.71 86.03 115.39 87.02 115.82 87.83 Z M 116.27 88.70 L 116.73 89.59 C 117.14 90.40 118.14 90.72 118.95 90.30 C 119.76 89.89 120.08 88.89 119.66 88.08 L 119.21 87.19 C 118.79 86.38 117.80 86.06 116.99 86.48 C 116.18 86.89 115.86 87.89 116.27 88.70 Z M 116.74 89.61 L 117.21 90.50 C 117.64 91.30 118.64 91.60 119.44 91.18 C 120.25 90.75 120.55 89.75 120.12 88.94 L 119.65 88.06 C 119.22 87.25 118.22 86.95 117.42 87.38 C 116.61 87.81 116.31 88.81 116.74 89.61 Z M 117.21 90.49 L 117.67 91.37 C 118.10 92.18 119.10 92.49 119.90 92.06 C 120.71 91.64 121.02 90.64 120.59 89.83 L 120.13 88.95 C 119.70 88.14 118.70 87.83 117.90 88.26 C 117.09 88.68 116.78 89.68 117.21 90.49 Z M 117.64 91.31 L 118.07 92.22 C 118.47 93.04 119.45 93.39 120.28 92.99 C 121.10 92.60 121.45 91.62 121.05 90.79 L 120.62 89.89 C 120.23 89.07 119.24 88.72 118.42 89.11 C 117.60 89.50 117.25 90.49 117.64 91.31 Z M 118.07 92.20 L 118.47 93.08 C 118.86 93.90 119.84 94.26 120.67 93.88 C 121.49 93.49 121.85 92.51 121.47 91.69 L 121.06 90.81 C 120.68 89.98 119.70 89.62 118.87 90.01 C 118.04 90.39 117.68 91.37 118.07 92.20 Z M 118.48 93.10 L 118.89 93.94 C 119.28 94.76 120.27 95.10 121.09 94.71 C 121.91 94.31 122.26 93.32 121.86 92.50 L 121.46 91.66 C 121.06 90.84 120.08 90.50 119.25 90.89 C 118.43 91.29 118.09 92.27 118.48 93.10 Z M 118.88 93.93 L 119.34 94.88 C 119.73 95.71 120.72 96.05 121.54 95.66 C 122.36 95.27 122.71 94.28 122.32 93.46 L 121.86 92.51 C 121.47 91.68 120.49 91.34 119.66 91.73 C 118.84 92.12 118.49 93.11 118.88 93.93 Z M 119.34 94.88 L 119.72 95.70 C 120.11 96.52 121.10 96.87 121.92 96.48 C 122.75 96.10 123.10 95.11 122.71 94.29 L 122.32 93.47 C 121.93 92.64 120.95 92.29 120.12 92.68 C 119.30 93.07 118.95 94.05 119.34 94.88 Z M 119.73 95.71 L 120.17 96.63 C 120.57 97.46 121.55 97.80 122.38 97.41 C 123.20 97.01 123.55 96.03 123.15 95.21 L 122.71 94.28 C 122.31 93.45 121.32 93.11 120.50 93.50 C 119.68 93.90 119.33 94.88 119.73 95.71 Z M 120.18 96.65 L 120.68 97.65 C 121.08 98.47 122.07 98.80 122.89 98.39 C 123.71 97.99 124.04 97.00 123.64 96.18 L 123.14 95.18 C 122.74 94.37 121.74 94.03 120.93 94.44 C 120.11 94.85 119.78 95.84 120.18 96.65 Z M 120.69 97.67 L 121.16 98.58 C 121.58 99.39 122.57 99.70 123.38 99.28 C 124.19 98.86 124.51 97.87 124.09 97.06 L 123.62 96.15 C 123.20 95.34 122.21 95.03 121.40 95.45 C 120.59 95.87 120.27 96.86 120.69 97.67 Z M 121.17 98.59 L 121.65 99.50 C 122.08 100.30 123.08 100.61 123.89 100.18 C 124.69 99.75 124.99 98.75 124.56 97.94 L 124.08 97.04 C 123.65 96.23 122.65 95.93 121.84 96.36 C 121.04 96.79 120.73 97.79 121.17 98.59 Z M 121.66 99.51 L 122.13 100.39 C 122.57 101.19 123.58 101.48 124.38 101.04 C 125.18 100.60 125.47 99.60 125.03 98.80 L 124.56 97.93 C 124.12 97.12 123.11 96.83 122.31 97.27 C 121.51 97.71 121.22 98.71 121.66 99.51 Z M 122.14 100.40 L 122.62 101.26 C 123.07 102.06 124.08 102.34 124.87 101.90 C 125.67 101.45 125.96 100.44 125.51 99.65 L 125.03 98.78 C 124.58 97.99 123.57 97.70 122.78 98.15 C 121.98 98.60 121.69 99.60 122.14 100.40 Z M 122.63 101.28 L 123.13 102.14 C 123.58 102.94 124.59 103.21 125.38 102.76 C 126.18 102.30 126.45 101.29 126.00 100.50 L 125.50 99.63 C 125.05 98.84 124.04 98.57 123.25 99.02 C 122.45 99.47 122.18 100.48 122.63 101.28 Z M 123.13 102.15 L 123.62 102.99 C 124.08 103.78 125.10 104.05 125.89 103.59 C 126.67 103.13 126.94 102.12 126.48 101.33 L 125.99 100.49 C 125.53 99.70 124.52 99.43 123.73 99.89 C 122.94 100.35 122.67 101.36 123.13 102.15 Z M 123.63 103.00 L 124.13 103.86 C 124.60 104.65 125.61 104.91 126.40 104.44 C 127.19 103.98 127.45 102.97 126.98 102.18 L 126.48 101.32 C 126.01 100.53 125.00 100.27 124.21 100.74 C 123.43 101.20 123.16 102.21 123.63 103.00 Z M 124.13 103.86 L 124.64 104.72 C 125.10 105.51 126.12 105.77 126.91 105.30 C 127.69 104.84 127.95 103.82 127.49 103.04 L 126.98 102.18 C 126.52 101.39 125.50 101.13 124.72 101.59 C 123.93 102.06 123.67 103.07 124.13 103.86 Z M 124.64 104.72 L 125.15 105.60 C 125.62 106.39 126.63 106.65 127.42 106.19 C 128.21 105.73 128.47 104.71 128.01 103.92 L 127.49 103.04 C 127.03 102.25 126.02 101.99 125.23 102.45 C 124.44 102.91 124.18 103.93 124.64 104.72 Z M 125.15 105.59 L 125.65 106.45 C 126.10 107.24 127.11 107.51 127.91 107.06 C 128.70 106.60 128.97 105.59 128.51 104.80 L 128.02 103.94 C 127.56 103.14 126.55 102.87 125.76 103.33 C 124.96 103.78 124.69 104.79 125.15 105.59 Z M 125.64 106.43 L 126.15 107.34 C 126.59 108.14 127.60 108.43 128.40 107.98 C 129.20 107.53 129.48 106.53 129.03 105.73 L 128.52 104.82 C 128.08 104.02 127.07 103.73 126.27 104.18 C 125.47 104.63 125.19 105.63 125.64 106.43 Z M 126.14 107.33 L 126.61 108.20 C 127.05 109.00 128.05 109.30 128.86 108.86 C 129.66 108.43 129.96 107.42 129.52 106.62 L 129.04 105.75 C 128.61 104.94 127.60 104.65 126.80 105.08 C 126.00 105.52 125.70 106.52 126.14 107.33 Z M 126.61 108.19 L 127.06 109.04 C 127.49 109.84 128.50 110.15 129.30 109.71 C 130.11 109.28 130.41 108.28 129.98 107.47 L 129.52 106.63 C 129.09 105.82 128.09 105.52 127.28 105.95 C 126.48 106.39 126.17 107.39 126.61 108.19 Z M 127.06 109.04 L 127.54 109.92 C 127.97 110.72 128.97 111.02 129.78 110.59 C 130.58 110.15 130.88 109.15 130.45 108.34 L 129.98 107.47 C 129.54 106.67 128.54 106.37 127.73 106.80 C 126.93 107.23 126.63 108.24 127.06 109.04 Z M 127.53 109.91 L 128.01 110.80 C 128.44 111.60 129.45 111.90 130.25 111.47 C 131.06 111.04 131.36 110.03 130.92 109.23 L 130.45 108.34 C 130.01 107.54 129.01 107.24 128.21 107.67 C 127.40 108.11 127.10 109.11 127.53 109.91 Z M 128.00 110.79 L 128.47 111.67 C 128.90 112.48 129.90 112.78 130.71 112.36 C 131.51 111.93 131.82 110.93 131.40 110.12 L 130.93 109.24 C 130.50 108.43 129.50 108.12 128.69 108.55 C 127.89 108.98 127.58 109.98 128.00 110.79 Z M 128.46 111.65 L 128.92 112.55 C 129.34 113.36 130.34 113.68 131.15 113.27 C 131.96 112.85 132.28 111.85 131.87 111.04 L 131.41 110.14 C 130.99 109.33 129.99 109.00 129.18 109.42 C 128.37 109.84 128.04 110.84 128.46 111.65 Z M 128.91 112.53 L 129.35 113.42 C 129.76 114.24 130.75 114.58 131.57 114.17 C 132.39 113.77 132.72 112.78 132.32 111.96 L 131.88 111.06 C 131.48 110.24 130.48 109.91 129.66 110.31 C 128.84 110.72 128.51 111.71 128.91 112.53 Z M 129.34 113.40 L 129.76 114.30 C 130.16 115.12 131.14 115.47 131.97 115.08 C 132.79 114.69 133.15 113.71 132.76 112.88 L 132.33 111.98 C 131.94 111.16 130.95 110.80 130.13 111.19 C 129.30 111.59 128.95 112.57 129.34 113.40 Z M 129.76 114.28 L 130.18 115.19 C 130.56 116.02 131.54 116.39 132.37 116.01 C 133.20 115.63 133.56 114.65 133.18 113.82 L 132.77 112.90 C 132.39 112.07 131.40 111.70 130.57 112.08 C 129.74 112.46 129.38 113.45 129.76 114.28 Z M 130.17 115.19 L 130.59 116.10 C 130.97 116.93 131.95 117.29 132.78 116.92 C 133.61 116.54 133.98 115.56 133.60 114.72 L 133.19 113.82 C 132.81 112.99 131.83 112.62 130.99 113.00 C 130.16 113.38 129.80 114.36 130.17 115.19 Z M 130.60 116.11 L 131.02 117.01 C 131.40 117.83 132.39 118.19 133.22 117.80 C 134.04 117.41 134.40 116.43 134.01 115.60 L 133.59 114.71 C 133.20 113.88 132.22 113.53 131.39 113.91 C 130.56 114.30 130.21 115.29 130.60 116.11 Z M 131.03 117.04 L 131.47 117.92 C 131.87 118.74 132.87 119.08 133.68 118.67 C 134.50 118.27 134.84 117.28 134.43 116.46 L 133.99 115.57 C 133.59 114.75 132.60 114.42 131.78 114.82 C 130.96 115.23 130.62 116.22 131.03 117.04 Z M 131.49 117.96 L 131.95 118.85 C 132.38 119.66 133.38 119.98 134.19 119.55 C 134.99 119.13 135.31 118.13 134.89 117.32 L 134.42 116.43 C 133.99 115.62 132.99 115.30 132.19 115.73 C 131.38 116.15 131.06 117.15 131.49 117.96 Z M 131.97 118.89 L 132.47 119.79 C 132.91 120.59 133.92 120.88 134.72 120.44 C 135.52 120.00 135.81 119.00 135.37 118.20 L 134.87 117.29 C 134.43 116.49 133.42 116.20 132.62 116.64 C 131.82 117.08 131.53 118.09 131.97 118.89 Z M 132.49 119.82 L 133.00 120.70 C 133.45 121.49 134.46 121.76 135.25 121.31 C 136.04 120.85 136.32 119.84 135.86 119.05 L 135.35 118.17 C 134.89 117.38 133.88 117.11 133.09 117.56 C 132.30 118.02 132.03 119.03 132.49 119.82 Z M 133.02 120.74 L 133.53 121.57 C 134.00 122.35 135.02 122.60 135.80 122.12 C 136.58 121.64 136.82 120.63 136.35 119.85 L 135.84 119.01 C 135.36 118.23 134.34 117.99 133.57 118.46 C 132.79 118.94 132.54 119.96 133.02 120.74 Z M 133.56 121.63 L 134.13 122.48 C 134.64 123.24 135.66 123.45 136.42 122.94 C 137.18 122.43 137.39 121.41 136.88 120.65 L 136.31 119.79 C 135.81 119.03 134.78 118.83 134.02 119.33 C 133.26 119.84 133.06 120.87 133.56 121.63 Z M 134.18 122.55 L 134.75 123.31 C 135.29 124.04 136.33 124.19 137.06 123.65 C 137.79 123.10 137.94 122.07 137.40 121.34 L 136.83 120.58 C 136.29 119.85 135.25 119.70 134.52 120.24 C 133.79 120.79 133.64 121.82 134.18 122.55 Z M 134.80 123.37 L 135.44 124.15 C 136.02 124.86 137.06 124.96 137.76 124.38 C 138.47 123.80 138.57 122.76 137.99 122.06 L 137.35 121.28 C 136.77 120.57 135.73 120.47 135.02 121.05 C 134.32 121.63 134.22 122.67 134.80 123.37 Z M 135.48 124.21 L 136.15 124.95 C 136.75 125.63 137.80 125.68 138.48 125.08 C 139.16 124.47 139.22 123.43 138.61 122.75 L 137.94 122.00 C 137.34 121.32 136.29 121.27 135.61 121.87 C 134.93 122.48 134.88 123.53 135.48 124.21 Z M 136.19 124.99 L 136.88 125.71 C 137.52 126.37 138.56 126.39 139.22 125.76 C 139.87 125.12 139.89 124.08 139.26 123.42 L 138.57 122.70 C 137.93 122.04 136.89 122.02 136.23 122.66 C 135.58 123.29 135.56 124.34 136.19 124.99 Z M 136.90 125.73 L 137.61 126.44 C 138.25 127.08 139.29 127.08 139.94 126.44 C 140.59 125.79 140.59 124.75 139.94 124.10 L 139.24 123.40 C 138.60 122.76 137.55 122.75 136.91 123.40 C 136.26 124.04 136.26 125.09 136.90 125.73 Z M 137.60 126.43 L 138.31 127.15 C 138.95 127.79 140.00 127.80 140.65 127.15 C 141.29 126.51 141.30 125.47 140.65 124.82 L 139.94 124.11 C 139.30 123.46 138.26 123.46 137.61 124.10 C 136.96 124.74 136.96 125.79 137.60 126.43 Z M 138.30 127.13 L 138.99 127.85 C 139.62 128.50 140.67 128.52 141.32 127.89 C 141.98 127.25 142.00 126.21 141.36 125.55 L 140.67 124.83 C 140.03 124.18 138.99 124.16 138.33 124.80 C 137.68 125.43 137.66 126.48 138.30 127.13 Z M 138.96 127.81 L 139.63 128.55 C 140.24 129.22 141.28 129.27 141.96 128.66 C 142.63 128.04 142.68 127.00 142.07 126.32 L 141.40 125.59 C 140.78 124.91 139.74 124.86 139.06 125.48 C 138.39 126.09 138.34 127.14 138.96 127.81 Z M 139.58 128.49 L 140.23 129.27 C 140.81 129.97 141.85 130.06 142.55 129.48 C 143.25 128.89 143.34 127.85 142.76 127.15 L 142.11 126.38 C 141.53 125.68 140.49 125.58 139.79 126.17 C 139.09 126.75 139.00 127.79 139.58 128.49 Z M 140.19 129.22 L 140.81 130.01 C 141.37 130.73 142.40 130.85 143.12 130.29 C 143.84 129.73 143.97 128.70 143.40 127.98 L 142.79 127.19 C 142.23 126.48 141.20 126.35 140.48 126.91 C 139.76 127.47 139.63 128.51 140.19 129.22 Z M 140.78 129.96 L 141.37 130.78 C 141.91 131.51 142.94 131.67 143.67 131.13 C 144.40 130.60 144.57 129.57 144.03 128.83 L 143.44 128.02 C 142.90 127.29 141.87 127.13 141.13 127.66 C 140.40 128.20 140.24 129.23 140.78 129.96 Z M 141.30 130.68 L 141.81 131.49 C 142.29 132.26 143.30 132.49 144.07 132.01 C 144.85 131.53 145.08 130.51 144.60 129.74 L 144.09 128.93 C 143.61 128.16 142.60 127.93 141.83 128.41 C 141.06 128.89 140.82 129.91 141.30 130.68 Z M 141.79 131.44 L 142.28 132.29 C 142.74 133.08 143.74 133.34 144.53 132.89 C 145.31 132.43 145.58 131.43 145.12 130.64 L 144.62 129.79 C 144.17 129.00 143.16 128.74 142.38 129.20 C 141.59 129.65 141.33 130.66 141.79 131.44 Z M 142.35 132.40 L 142.99 133.32 C 143.50 134.07 144.53 134.26 145.27 133.74 C 146.02 133.22 146.20 132.20 145.69 131.46 L 145.05 130.53 C 144.54 129.79 143.51 129.60 142.77 130.12 C 142.02 130.63 141.84 131.66 142.35 132.40 Z M 143.19 133.57 L 143.92 134.27 C 144.57 134.90 145.61 134.89 146.24 134.24 C 146.87 133.59 146.86 132.55 146.21 131.91 L 145.48 131.21 C 144.83 130.58 143.79 130.59 143.16 131.24 C 142.53 131.90 142.54 132.94 143.19 133.57 Z M 145.13 134.74 L 145.86 134.71 C 146.77 134.67 147.47 133.90 147.43 132.99 C 147.39 132.08 146.62 131.37 145.71 131.41 L 144.99 131.44 C 144.08 131.48 143.37 132.25 143.41 133.16 C 143.45 134.07 144.22 134.78 145.13 134.74 Z M 147.11 134.06 L 147.77 133.19 C 148.32 132.45 148.17 131.41 147.44 130.86 C 146.71 130.31 145.67 130.46 145.12 131.19 L 144.46 132.06 C 143.91 132.79 144.06 133.83 144.79 134.38 C 145.52 134.94 146.56 134.79 147.11 134.06 Z M 147.88 133.04 L 148.34 132.25 C 148.81 131.45 148.55 130.43 147.75 129.96 C 146.96 129.50 145.94 129.76 145.47 130.55 L 145.01 131.34 C 144.54 132.13 144.80 133.16 145.59 133.62 C 146.39 134.09 147.41 133.83 147.88 133.04 Z M 148.34 132.26 L 148.87 131.37 C 149.35 130.58 149.09 129.55 148.30 129.08 C 147.51 128.60 146.48 128.86 146.01 129.65 L 145.48 130.54 C 145.00 131.33 145.26 132.36 146.05 132.83 C 146.84 133.31 147.86 133.05 148.34 132.26 Z M 148.85 131.41 L 149.38 130.58 C 149.88 129.80 149.65 128.77 148.87 128.27 C 148.09 127.77 147.06 128.00 146.56 128.78 L 146.03 129.61 C 145.53 130.39 145.76 131.42 146.54 131.92 C 147.32 132.42 148.35 132.19 148.85 131.41 Z M 149.36 130.63 L 149.91 129.81 C 150.43 129.05 150.24 128.00 149.47 127.48 C 148.70 126.96 147.66 127.16 147.14 127.92 L 146.58 128.73 C 146.06 129.50 146.26 130.55 147.03 131.07 C 147.79 131.59 148.84 131.39 149.36 130.63 Z M 149.89 129.86 L 150.50 129.01 C 151.05 128.26 150.88 127.21 150.13 126.66 C 149.37 126.11 148.32 126.28 147.77 127.04 L 147.16 127.88 C 146.62 128.63 146.78 129.69 147.54 130.23 C 148.29 130.78 149.34 130.61 149.89 129.86 Z M 150.47 129.06 L 151.13 128.20 C 151.70 127.47 151.57 126.41 150.83 125.84 C 150.09 125.27 149.03 125.40 148.46 126.14 L 147.80 126.99 C 147.23 127.73 147.37 128.79 148.10 129.36 C 148.84 129.93 149.90 129.79 150.47 129.06 Z M 151.10 128.24 L 151.78 127.42 C 152.37 126.70 152.27 125.63 151.54 125.04 C 150.82 124.45 149.76 124.56 149.17 125.28 L 148.49 126.10 C 147.90 126.82 148.01 127.88 148.73 128.48 C 149.45 129.07 150.51 128.96 151.10 128.24 Z M 151.76 127.45 L 152.39 126.71 C 153.00 126.00 152.92 124.93 152.21 124.32 C 151.50 123.71 150.44 123.79 149.83 124.50 L 149.19 125.25 C 148.58 125.95 148.66 127.02 149.37 127.63 C 150.08 128.24 151.15 128.16 151.76 127.45 Z M 152.37 126.73 L 153.04 125.98 C 153.67 125.29 153.61 124.22 152.92 123.59 C 152.22 122.97 151.15 123.03 150.53 123.72 L 149.85 124.47 C 149.23 125.17 149.29 126.24 149.98 126.86 C 150.68 127.49 151.75 127.43 152.37 126.73 Z M 153.01 126.02 L 153.69 125.30 C 154.33 124.62 154.31 123.55 153.63 122.91 C 152.95 122.27 151.87 122.29 151.23 122.97 L 150.55 123.69 C 149.91 124.37 149.94 125.44 150.62 126.08 C 151.30 126.73 152.37 126.70 153.01 126.02 Z M 153.69 125.31 L 154.32 124.64 C 154.97 123.96 154.94 122.89 154.27 122.24 C 153.59 121.60 152.51 121.62 151.87 122.30 L 151.23 122.97 C 150.59 123.65 150.61 124.72 151.29 125.37 C 151.97 126.01 153.04 125.99 153.69 125.31 Z M 154.33 124.64 L 155.02 123.91 C 155.66 123.23 155.63 122.15 154.95 121.51 C 154.27 120.86 153.19 120.90 152.55 121.58 L 151.86 122.31 C 151.22 122.99 151.25 124.06 151.93 124.71 C 152.61 125.35 153.69 125.32 154.33 124.64 Z M 155.00 123.94 L 155.66 123.26 C 156.32 122.59 156.31 121.51 155.64 120.85 C 154.97 120.20 153.89 120.20 153.24 120.87 L 152.57 121.55 C 151.91 122.22 151.92 123.30 152.59 123.96 C 153.26 124.62 154.34 124.61 155.00 123.94 Z M 155.66 123.27 L 156.39 122.53 C 157.05 121.86 157.04 120.78 156.37 120.12 C 155.70 119.46 154.62 119.47 153.96 120.13 L 153.24 120.87 C 152.57 121.54 152.58 122.62 153.25 123.28 C 153.92 123.94 155.00 123.93 155.66 123.27 Z M 156.40 122.52 L 157.10 121.79 C 157.76 121.11 157.74 120.03 157.06 119.38 C 156.38 118.72 155.30 118.74 154.65 119.42 L 153.95 120.15 C 153.29 120.83 153.31 121.91 153.99 122.56 C 154.67 123.21 155.75 123.19 156.40 122.52 Z M 157.12 121.77 L 157.82 121.02 C 158.47 120.33 158.43 119.25 157.74 118.61 C 157.05 117.97 155.97 118.00 155.33 118.69 L 154.63 119.44 C 153.98 120.13 154.02 121.21 154.71 121.85 C 155.40 122.50 156.48 122.46 157.12 121.77 Z M 157.85 120.99 L 158.53 120.23 C 159.16 119.53 159.10 118.45 158.40 117.82 C 157.69 117.19 156.61 117.25 155.99 117.96 L 155.30 118.72 C 154.67 119.42 154.73 120.50 155.44 121.13 C 156.14 121.76 157.22 121.70 157.85 120.99 Z M 158.56 120.20 L 159.18 119.47 C 159.79 118.75 159.71 117.67 158.99 117.06 C 158.27 116.45 157.19 116.53 156.58 117.25 L 155.96 117.99 C 155.35 118.71 155.43 119.78 156.15 120.40 C 156.87 121.01 157.95 120.92 158.56 120.20 Z M 159.20 119.45 L 159.83 118.68 C 160.44 117.95 160.33 116.87 159.60 116.27 C 158.88 115.67 157.80 115.78 157.20 116.50 L 156.56 117.27 C 155.96 118.00 156.07 119.08 156.79 119.68 C 157.52 120.28 158.60 120.18 159.20 119.45 Z M 159.82 118.69 L 160.46 117.94 C 161.07 117.22 160.98 116.14 160.26 115.53 C 159.53 114.92 158.45 115.01 157.85 115.73 L 157.21 116.49 C 156.60 117.21 156.69 118.29 157.41 118.90 C 158.14 119.51 159.21 119.42 159.82 118.69 Z M 160.44 117.96 L 161.11 117.20 C 161.73 116.48 161.65 115.40 160.94 114.78 C 160.23 114.16 159.15 114.24 158.53 114.95 L 157.86 115.71 C 157.24 116.43 157.32 117.51 158.03 118.13 C 158.74 118.75 159.82 118.67 160.44 117.96 Z M 161.09 117.21 L 161.76 116.46 C 162.39 115.75 162.33 114.67 161.62 114.04 C 160.91 113.42 159.83 113.48 159.20 114.19 L 158.54 114.94 C 157.91 115.64 157.97 116.72 158.68 117.35 C 159.39 117.98 160.47 117.92 161.09 117.21 Z M 161.75 116.47 L 162.43 115.73 C 163.06 115.03 163.01 113.95 162.31 113.31 C 161.61 112.68 160.53 112.73 159.89 113.43 L 159.22 114.17 C 158.58 114.87 158.63 115.96 159.33 116.59 C 160.03 117.22 161.12 117.17 161.75 116.47 Z M 162.41 115.75 L 163.09 115.02 C 163.73 114.33 163.70 113.24 163.01 112.60 C 162.32 111.96 161.23 111.99 160.59 112.68 L 159.91 113.41 C 159.26 114.10 159.30 115.18 159.99 115.83 C 160.68 116.47 161.76 116.44 162.41 115.75 Z M 163.07 115.04 L 163.76 114.33 C 164.42 113.65 164.40 112.57 163.72 111.91 C 163.05 111.25 161.96 111.27 161.30 111.94 L 160.61 112.66 C 159.95 113.34 159.97 114.42 160.65 115.08 C 161.32 115.74 162.41 115.72 163.07 115.04 Z M 163.76 114.33 L 164.44 113.63 C 165.11 112.95 165.09 111.87 164.42 111.21 C 163.74 110.55 162.66 110.56 162.00 111.24 L 161.31 111.94 C 160.65 112.62 160.66 113.70 161.34 114.36 C 162.01 115.02 163.10 115.01 163.76 114.33 Z M 164.46 113.62 L 165.14 112.91 C 165.79 112.22 165.77 111.14 165.09 110.49 C 164.41 109.83 163.32 109.85 162.67 110.54 L 161.99 111.25 C 161.33 111.93 161.35 113.01 162.04 113.67 C 162.72 114.32 163.80 114.30 164.46 113.62 Z M 165.13 112.91 L 165.83 112.19 C 166.49 111.52 166.47 110.43 165.79 109.77 C 165.12 109.11 164.03 109.13 163.37 109.81 L 162.68 110.53 C 162.02 111.21 162.03 112.29 162.71 112.95 C 163.39 113.61 164.47 113.59 165.13 112.91 Z M 165.82 112.20 L 166.53 111.48 C 167.20 110.81 167.19 109.73 166.52 109.06 C 165.84 108.40 164.76 108.40 164.10 109.08 L 163.38 109.80 C 162.72 110.47 162.73 111.55 163.40 112.22 C 164.07 112.88 165.16 112.88 165.82 112.20 Z M 166.53 111.48 L 167.19 110.81 C 167.86 110.14 167.85 109.06 167.18 108.39 C 166.51 107.73 165.43 107.73 164.76 108.40 L 164.10 109.08 C 163.43 109.75 163.44 110.83 164.11 111.50 C 164.78 112.16 165.86 112.16 166.53 111.48 Z M 167.21 110.79 L 167.89 110.09 C 168.54 109.41 168.52 108.33 167.83 107.67 C 167.15 107.02 166.07 107.04 165.41 107.72 L 164.74 108.43 C 164.09 109.11 164.11 110.19 164.79 110.85 C 165.48 111.50 166.56 111.48 167.21 110.79 Z M 167.92 110.06 L 168.64 109.25 C 169.28 108.55 169.22 107.47 168.52 106.84 C 167.82 106.20 166.74 106.26 166.10 106.96 L 165.38 107.76 C 164.75 108.47 164.80 109.55 165.50 110.18 C 166.21 110.81 167.29 110.76 167.92 110.06 Z M 168.67 109.22 L 169.34 108.45 C 169.96 107.73 169.88 106.65 169.16 106.03 C 168.44 105.42 167.36 105.50 166.75 106.21 L 166.08 106.99 C 165.46 107.71 165.54 108.79 166.26 109.40 C 166.97 110.02 168.05 109.94 168.67 109.22 Z M 169.35 108.43 L 170.02 107.64 C 170.63 106.91 170.53 105.83 169.81 105.23 C 169.09 104.62 168.01 104.71 167.40 105.44 L 166.73 106.23 C 166.12 106.95 166.22 108.03 166.94 108.64 C 167.67 109.25 168.75 109.15 169.35 108.43 Z M 170.03 107.62 L 170.69 106.82 C 171.28 106.09 171.18 105.01 170.45 104.42 C 169.72 103.82 168.64 103.92 168.04 104.65 L 167.38 105.45 C 166.79 106.18 166.89 107.26 167.62 107.86 C 168.36 108.46 169.43 108.35 170.03 107.62 Z M 170.70 106.81 L 171.34 106.00 C 171.93 105.26 171.81 104.18 171.08 103.59 C 170.34 103.00 169.26 103.12 168.67 103.86 L 168.02 104.67 C 167.43 105.41 167.55 106.49 168.29 107.08 C 169.03 107.67 170.11 107.55 170.70 106.81 Z M 171.34 106.01 L 171.89 105.33 C 172.49 104.59 172.38 103.51 171.64 102.92 C 170.91 102.32 169.83 102.43 169.24 103.17 L 168.68 103.85 C 168.08 104.59 168.19 105.66 168.93 106.26 C 169.66 106.86 170.74 106.75 171.34 106.01 Z M 171.85 105.37 L 172.51 104.63 C 173.13 103.91 173.05 102.83 172.34 102.21 C 171.63 101.59 170.55 101.66 169.93 102.37 L 169.28 103.12 C 168.65 103.83 168.73 104.91 169.44 105.54 C 170.15 106.16 171.23 106.09 171.85 105.37 Z M 172.47 104.67 L 173.16 103.93 C 173.81 103.24 173.77 102.16 173.08 101.51 C 172.39 100.86 171.31 100.90 170.66 101.59 L 169.97 102.33 C 169.32 103.02 169.36 104.10 170.05 104.75 C 170.73 105.40 171.82 105.36 172.47 104.67 Z M 173.14 103.96 L 173.84 103.24 C 174.50 102.56 174.49 101.48 173.82 100.81 C 173.14 100.15 172.06 100.16 171.40 100.84 L 170.69 101.56 C 170.03 102.23 170.04 103.32 170.71 103.98 C 171.39 104.64 172.47 104.63 173.14 103.96 Z M 173.82 103.25 L 174.53 102.56 C 175.20 101.89 175.20 100.81 174.54 100.14 C 173.87 99.46 172.79 99.46 172.11 100.13 L 171.41 100.82 C 170.74 101.49 170.74 102.57 171.40 103.24 C 172.07 103.91 173.15 103.92 173.82 103.25 Z M 174.49 102.59 L 175.22 101.91 C 175.91 101.26 175.94 100.18 175.30 99.49 C 174.65 98.80 173.57 98.77 172.88 99.41 L 172.15 100.09 C 171.46 100.74 171.42 101.82 172.07 102.51 C 172.72 103.20 173.80 103.24 174.49 102.59 Z M 175.18 101.95 L 175.91 101.31 C 176.62 100.69 176.69 99.60 176.07 98.89 C 175.44 98.18 174.36 98.11 173.65 98.73 L 172.92 99.37 C 172.21 100.00 172.14 101.08 172.76 101.79 C 173.38 102.50 174.46 102.57 175.18 101.95 Z M 175.88 101.33 L 176.67 100.66 C 177.40 100.05 177.49 98.97 176.88 98.25 C 176.27 97.53 175.19 97.43 174.47 98.04 L 173.67 98.71 C 172.95 99.32 172.86 100.40 173.47 101.12 C 174.08 101.85 175.16 101.94 175.88 101.33 Z M 176.66 100.67 L 177.45 100.03 C 178.18 99.42 178.28 98.35 177.68 97.62 C 177.08 96.89 176.00 96.78 175.27 97.38 L 174.48 98.03 C 173.75 98.63 173.65 99.71 174.25 100.44 C 174.85 101.17 175.93 101.27 176.66 100.67 Z M 177.44 100.03 L 178.21 99.40 C 178.94 98.81 179.05 97.73 178.45 97.00 C 177.85 96.26 176.77 96.16 176.04 96.75 L 175.27 97.38 C 174.54 97.98 174.43 99.06 175.03 99.79 C 175.63 100.52 176.71 100.63 177.44 100.03 Z M 178.21 99.40 L 179.00 98.75 C 179.73 98.15 179.83 97.07 179.23 96.34 C 178.62 95.61 177.54 95.51 176.82 96.11 L 176.03 96.76 C 175.30 97.36 175.20 98.44 175.80 99.17 C 176.40 99.90 177.48 100.00 178.21 99.40 Z M 179.03 98.72 L 179.75 98.09 C 180.47 97.47 180.54 96.39 179.92 95.68 C 179.31 94.97 178.22 94.89 177.51 95.51 L 176.78 96.14 C 176.07 96.76 175.99 97.84 176.61 98.55 C 177.23 99.27 178.31 99.34 179.03 98.72 Z M 179.79 98.06 L 180.52 97.39 C 181.22 96.75 181.26 95.66 180.62 94.97 C 179.98 94.27 178.89 94.23 178.20 94.87 L 177.47 95.54 C 176.78 96.18 176.73 97.27 177.37 97.96 C 178.01 98.66 179.10 98.70 179.79 98.06 Z M 180.54 97.37 L 181.28 96.67 C 181.96 96.02 181.99 94.94 181.34 94.25 C 180.69 93.57 179.61 93.54 178.92 94.19 L 178.18 94.89 C 177.50 95.54 177.47 96.62 178.12 97.31 C 178.77 97.99 179.85 98.02 180.54 97.37 Z M 181.30 96.65 L 182.02 95.95 C 182.70 95.29 182.71 94.20 182.05 93.53 C 181.39 92.85 180.31 92.84 179.63 93.50 L 178.90 94.20 C 178.23 94.86 178.21 95.95 178.87 96.62 C 179.53 97.30 180.62 97.31 181.30 96.65 Z M 182.07 95.90 L 182.76 95.18 C 183.41 94.49 183.38 93.41 182.69 92.75 C 182.01 92.10 180.92 92.13 180.27 92.82 L 179.58 93.54 C 178.93 94.23 178.96 95.31 179.65 95.96 C 180.33 96.61 181.41 96.59 182.07 95.90 Z M 182.81 95.11 L 183.46 94.36 C 184.07 93.65 183.99 92.57 183.27 91.95 C 182.56 91.33 181.48 91.42 180.86 92.13 L 180.22 92.88 C 179.60 93.60 179.68 94.68 180.40 95.29 C 181.12 95.91 182.20 95.83 182.81 95.11 Z M 183.49 94.33 L 184.11 93.56 C 184.71 92.82 184.59 91.75 183.86 91.15 C 183.13 90.55 182.05 90.67 181.45 91.40 L 180.83 92.17 C 180.23 92.90 180.34 93.98 181.08 94.58 C 181.81 95.17 182.89 95.06 183.49 94.33 Z M 184.12 93.54 L 184.76 92.74 C 185.34 92.00 185.22 90.93 184.48 90.34 C 183.74 89.75 182.66 89.88 182.07 90.62 L 181.44 91.42 C 180.85 92.16 180.98 93.23 181.72 93.82 C 182.46 94.41 183.54 94.28 184.12 93.54 Z M 184.76 92.74 L 185.38 91.96 C 185.96 91.21 185.84 90.14 185.10 89.55 C 184.35 88.97 183.28 89.09 182.69 89.83 L 182.07 90.62 C 181.48 91.36 181.61 92.44 182.35 93.02 C 183.09 93.61 184.17 93.48 184.76 92.74 Z M 185.37 91.97 L 185.97 91.22 C 186.56 90.48 186.44 89.40 185.71 88.81 C 184.97 88.22 183.89 88.34 183.30 89.08 L 182.70 89.82 C 182.11 90.56 182.23 91.64 182.96 92.23 C 183.70 92.82 184.78 92.70 185.37 91.97 Z M 185.97 91.22 L 186.58 90.47 C 187.17 89.73 187.06 88.65 186.32 88.06 C 185.59 87.46 184.51 87.58 183.91 88.31 L 183.30 89.07 C 182.71 89.81 182.82 90.89 183.56 91.48 C 184.29 92.07 185.37 91.96 185.97 91.22 Z M 186.59 90.45 L 187.21 89.66 C 187.80 88.92 187.67 87.84 186.93 87.26 C 186.18 86.67 185.11 86.80 184.52 87.54 L 183.90 88.33 C 183.32 89.07 183.44 90.15 184.19 90.74 C 184.93 91.32 186.01 91.19 186.59 90.45 Z M 187.23 89.64 L 187.80 88.89 C 188.38 88.14 188.24 87.06 187.49 86.49 C 186.73 85.91 185.66 86.06 185.09 86.81 L 184.51 87.56 C 183.93 88.31 184.07 89.39 184.83 89.96 C 185.58 90.54 186.65 90.39 187.23 89.64 Z M 187.81 88.88 L 188.45 88.03 C 189.02 87.27 188.87 86.20 188.11 85.63 C 187.36 85.06 186.28 85.21 185.71 85.97 L 185.08 86.82 C 184.51 87.58 184.66 88.65 185.42 89.22 C 186.17 89.78 187.24 89.63 187.81 88.88 Z M 188.46 88.02 L 189.05 87.23 C 189.61 86.47 189.45 85.39 188.69 84.83 C 187.93 84.27 186.86 84.43 186.30 85.19 L 185.71 85.98 C 185.15 86.74 185.30 87.81 186.06 88.37 C 186.82 88.94 187.90 88.78 188.46 88.02 Z M 189.05 87.22 L 189.62 86.45 C 190.18 85.68 190.02 84.61 189.26 84.05 C 188.49 83.49 187.42 83.65 186.86 84.42 L 186.29 85.19 C 185.73 85.95 185.89 87.02 186.66 87.58 C 187.42 88.14 188.49 87.98 189.05 87.22 Z M 189.62 86.45 L 190.23 85.62 C 190.79 84.86 190.62 83.79 189.86 83.23 C 189.10 82.67 188.03 82.83 187.47 83.59 L 186.86 84.42 C 186.30 85.18 186.47 86.25 187.23 86.81 C 187.99 87.37 189.06 87.21 189.62 86.45 Z M 190.22 85.63 L 190.87 84.76 C 191.43 84.00 191.27 82.93 190.51 82.37 C 189.75 81.80 188.68 81.96 188.11 82.72 L 187.47 83.59 C 186.91 84.35 187.07 85.42 187.83 85.98 C 188.59 86.54 189.66 86.38 190.22 85.63 Z M 190.86 84.77 L 191.50 83.91 C 192.07 83.15 191.91 82.08 191.15 81.51 C 190.40 80.95 189.32 81.10 188.76 81.86 L 188.12 82.72 C 187.55 83.47 187.71 84.55 188.47 85.11 C 189.22 85.68 190.29 85.52 190.86 84.77 Z M 191.49 83.92 L 192.13 83.08 C 192.70 82.33 192.55 81.25 191.80 80.68 C 191.04 80.11 189.97 80.26 189.40 81.02 L 188.76 81.85 C 188.19 82.61 188.34 83.68 189.10 84.25 C 189.85 84.82 190.92 84.67 191.49 83.92 Z M 192.12 83.09 L 192.71 82.33 C 193.29 81.58 193.15 80.51 192.40 79.93 C 191.65 79.35 190.58 79.49 190.00 80.24 L 189.41 81.00 C 188.83 81.75 188.97 82.83 189.72 83.40 C 190.46 83.98 191.54 83.84 192.12 83.09 Z M 192.69 82.35 L 193.33 81.55 C 193.92 80.82 193.81 79.74 193.07 79.15 C 192.33 78.56 191.25 78.67 190.66 79.41 L 190.02 80.21 C 189.43 80.95 189.55 82.02 190.28 82.62 C 191.02 83.21 192.10 83.09 192.69 82.35 Z M 193.29 81.60 L 193.96 80.83 C 194.58 80.12 194.50 79.04 193.79 78.42 C 193.07 77.80 191.99 77.88 191.37 78.59 L 190.70 79.36 C 190.09 80.08 190.16 81.16 190.88 81.77 C 191.59 82.39 192.67 82.32 193.29 81.60 Z M 193.92 80.87 L 194.49 80.26 C 195.13 79.57 195.09 78.49 194.40 77.84 C 193.70 77.20 192.62 77.24 191.98 77.94 L 191.41 78.55 C 190.77 79.24 190.81 80.32 191.50 80.96 C 192.20 81.61 193.28 81.56 193.92 80.87 Z M 194.47 80.28 L 195.13 79.59 C 195.78 78.90 195.76 77.82 195.07 77.17 C 194.39 76.52 193.31 76.54 192.66 77.23 L 192.00 77.92 C 191.35 78.60 191.37 79.68 192.05 80.34 C 192.74 80.99 193.82 80.96 194.47 80.28 Z M 195.09 79.62 L 195.82 78.91 C 196.49 78.25 196.50 77.17 195.83 76.49 C 195.17 75.82 194.09 75.81 193.42 76.48 L 192.69 77.19 C 192.02 77.85 192.01 78.93 192.68 79.61 C 193.34 80.28 194.42 80.29 195.09 79.62 Z M 195.79 78.94 L 196.50 78.27 C 197.19 77.62 197.22 76.54 196.57 75.85 C 195.92 75.16 194.84 75.13 194.16 75.78 L 193.44 76.45 C 192.76 77.10 192.73 78.18 193.37 78.87 C 194.02 79.55 195.10 79.58 195.79 78.94 Z M 196.49 78.28 L 197.27 77.55 C 197.96 76.91 198.00 75.83 197.36 75.14 C 196.72 74.45 195.64 74.40 194.94 75.05 L 194.17 75.77 C 193.47 76.41 193.43 77.49 194.08 78.18 C 194.72 78.88 195.80 78.92 196.49 78.28 Z M 197.27 77.56 L 197.41 77.42 C 198.11 76.78 198.15 75.70 197.51 75.00 C 196.87 74.31 195.79 74.27 195.09 74.91 L 194.95 75.04 C 194.25 75.69 194.21 76.77 194.85 77.46 C 195.49 78.15 196.57 78.20 197.27 77.56 Z"
      fill="black"
      fill-rule="nonzero" /></svg>