<svg xmlns="http://www.w3.org/2000/svg" width="300" height="300" viewBox="0 0 300 300">
<path d="M 153.70 96.10 L 153.38 95.14 C 153.12 94.35 152.27 93.93 151.48 94.19 C 150.69 94.46 150.27 95.31 150.53 96.10 L 150.85 97.05 C 151.12 97.84 151.97 98.26 152.76 98.00 C 153.54 97.74 153.97 96.88 153.70 96.10 Z M 153.30 94.85 L 152.80 93.99 C 152.38 93.25 151.43 93.00 150.69 93.42 C 149.95 93.85 149.70 94.79 150.13 95.53 L 150.62 96.39 C 151.05 97.13 151.99 97.38 152.73 96.96 C 153.47 96.53 153.72 95.59 153.30 94.85 Z M 152.48 93.56 L 151.73 92.92 C 151.06 92.36 150.07 92.44 149.51 93.10 C 148.94 93.77 149.03 94.76 149.69 95.32 L 150.45 95.96 C 151.11 96.53 152.10 96.44 152.67 95.78 C 153.23 95.12 153.15 94.12 152.48 93.56 Z M 151.24 92.62 L 150.31 92.29 C 149.48 92.00 148.57 92.44 148.28 93.27 C 147.99 94.10 148.43 95.00 149.26 95.30 L 150.18 95.62 C 151.01 95.91 151.92 95.48 152.21 94.65 C 152.50 93.82 152.06 92.91 151.24 92.62 Z M 149.94 92.21 L 148.99 92.12 C 148.12 92.03 147.34 92.67 147.25 93.55 C 147.17 94.43 147.81 95.21 148.69 95.29 L 149.63 95.38 C 150.51 95.47 151.28 94.82 151.37 93.95 C 151.45 93.07 150.81 92.29 149.94 92.21 Z M 148.63 92.12 L 147.68 92.24 C 146.80 92.36 146.19 93.16 146.30 94.04 C 146.42 94.91 147.22 95.53 148.10 95.42 L 149.05 95.29 C 149.92 95.18 150.54 94.37 150.43 93.50 C 150.31 92.62 149.51 92.00 148.63 92.12 Z M 147.34 92.32 L 146.34 92.68 C 145.51 92.98 145.08 93.91 145.38 94.74 C 145.69 95.57 146.61 96.00 147.45 95.70 L 148.44 95.34 C 149.27 95.04 149.70 94.11 149.40 93.28 C 149.09 92.44 148.17 92.01 147.34 92.32 Z M 146.19 92.74 L 145.27 93.18 C 144.47 93.57 144.13 94.54 144.52 95.34 C 144.91 96.14 145.88 96.48 146.68 96.09 L 147.60 95.64 C 148.40 95.25 148.74 94.29 148.35 93.49 C 147.96 92.68 146.99 92.35 146.19 92.74 Z M 145.22 93.20 L 144.30 93.68 C 143.51 94.10 143.21 95.08 143.63 95.87 C 144.04 96.67 145.03 96.97 145.82 96.55 L 146.73 96.07 C 147.52 95.65 147.83 94.67 147.41 93.88 C 146.99 93.09 146.01 92.78 145.22 93.20 Z M 144.30 93.68 L 143.42 94.15 C 142.63 94.57 142.33 95.55 142.75 96.34 C 143.17 97.14 144.16 97.44 144.95 97.02 L 145.82 96.55 C 146.62 96.13 146.92 95.15 146.50 94.36 C 146.08 93.56 145.09 93.26 144.30 93.68 Z M 143.44 94.13 L 142.60 94.57 C 141.80 94.98 141.49 95.96 141.90 96.76 C 142.31 97.56 143.29 97.87 144.09 97.46 L 144.93 97.03 C 145.73 96.62 146.05 95.64 145.63 94.84 C 145.22 94.04 144.24 93.72 143.44 94.13 Z M 142.61 94.56 L 141.68 95.03 C 140.88 95.44 140.55 96.42 140.96 97.22 C 141.37 98.03 142.35 98.35 143.16 97.94 L 144.09 97.47 C 144.89 97.06 145.21 96.08 144.80 95.28 C 144.40 94.47 143.41 94.15 142.61 94.56 Z M 141.68 95.03 L 140.80 95.47 C 140.00 95.88 139.68 96.86 140.08 97.67 C 140.49 98.47 141.48 98.79 142.28 98.39 L 143.16 97.94 C 143.96 97.54 144.28 96.55 143.88 95.75 C 143.47 94.94 142.48 94.62 141.68 95.03 Z M 140.81 95.47 L 139.87 95.94 C 139.06 96.34 138.74 97.33 139.14 98.13 C 139.55 98.94 140.53 99.27 141.34 98.86 L 142.28 98.39 C 143.09 97.98 143.41 97.00 143.00 96.19 C 142.60 95.39 141.61 95.06 140.81 95.47 Z M 139.88 95.93 L 138.98 96.37 C 138.17 96.77 137.84 97.76 138.24 98.57 C 138.64 99.38 139.62 99.71 140.43 99.31 L 141.33 98.87 C 142.14 98.47 142.48 97.48 142.07 96.67 C 141.67 95.86 140.69 95.53 139.88 95.93 Z M 139.00 96.36 L 138.00 96.84 C 137.18 97.23 136.83 98.21 137.22 99.02 C 137.61 99.84 138.59 100.19 139.41 99.80 L 140.41 99.32 C 141.23 98.94 141.58 97.96 141.19 97.14 C 140.80 96.32 139.82 95.97 139.00 96.36 Z M 138.02 96.83 L 137.16 97.22 C 136.34 97.60 135.97 98.57 136.35 99.39 C 136.72 100.22 137.70 100.58 138.52 100.21 L 139.38 99.81 C 140.21 99.44 140.57 98.46 140.20 97.64 C 139.82 96.82 138.85 96.45 138.02 96.83 Z M 137.15 97.22 L 136.31 97.62 C 135.49 98.00 135.13 98.98 135.51 99.80 C 135.90 100.62 136.87 100.98 137.70 100.59 L 138.53 100.20 C 139.36 99.82 139.71 98.84 139.33 98.02 C 138.95 97.20 137.97 96.84 137.15 97.22 Z M 136.28 97.63 L 135.38 98.07 C 134.57 98.47 134.23 99.45 134.63 100.27 C 135.03 101.08 136.01 101.42 136.83 101.02 L 137.73 100.58 C 138.54 100.18 138.88 99.20 138.48 98.38 C 138.08 97.57 137.09 97.23 136.28 97.63 Z M 135.38 98.07 L 134.49 98.51 C 133.67 98.91 133.34 99.90 133.74 100.71 C 134.14 101.53 135.13 101.86 135.94 101.46 L 136.83 101.02 C 137.65 100.62 137.98 99.63 137.58 98.82 C 137.18 98.00 136.19 97.67 135.38 98.07 Z M 134.48 98.51 L 133.59 98.96 C 132.78 99.36 132.44 100.35 132.85 101.16 C 133.25 101.97 134.24 102.30 135.05 101.90 L 135.95 101.46 C 136.76 101.05 137.09 100.06 136.69 99.25 C 136.28 98.44 135.29 98.11 134.48 98.51 Z M 133.56 98.97 L 132.70 99.42 C 131.90 99.84 131.59 100.83 132.00 101.63 C 132.42 102.44 133.42 102.75 134.22 102.33 L 135.08 101.89 C 135.88 101.47 136.20 100.48 135.78 99.67 C 135.36 98.86 134.37 98.55 133.56 98.97 Z M 132.65 99.45 L 131.76 99.95 C 130.98 100.40 130.70 101.41 131.15 102.19 C 131.60 102.98 132.61 103.26 133.40 102.81 L 134.28 102.30 C 135.07 101.85 135.34 100.85 134.89 100.06 C 134.44 99.27 133.44 99.00 132.65 99.45 Z M 131.69 100.00 L 130.83 100.55 C 130.06 101.04 129.84 102.06 130.33 102.82 C 130.82 103.59 131.84 103.81 132.60 103.32 L 133.47 102.76 C 134.23 102.27 134.45 101.26 133.96 100.49 C 133.47 99.73 132.46 99.51 131.69 100.00 Z M 130.77 100.59 L 129.94 101.18 C 129.20 101.70 129.02 102.72 129.54 103.47 C 130.07 104.21 131.09 104.39 131.83 103.86 L 132.66 103.28 C 133.40 102.75 133.58 101.73 133.06 100.99 C 132.53 100.24 131.51 100.07 130.77 100.59 Z M 129.88 101.22 L 129.07 101.85 C 128.35 102.41 128.22 103.44 128.78 104.16 C 129.34 104.87 130.37 105.00 131.09 104.45 L 131.90 103.82 C 132.61 103.26 132.74 102.23 132.19 101.51 C 131.63 100.79 130.59 100.66 129.88 101.22 Z M 129.00 101.91 L 128.27 102.55 C 127.58 103.14 127.51 104.18 128.11 104.87 C 128.71 105.55 129.74 105.62 130.43 105.02 L 131.16 104.39 C 131.84 103.79 131.91 102.75 131.32 102.07 C 130.72 101.38 129.68 101.31 129.00 101.91 Z M 128.21 102.60 L 127.49 103.28 C 126.84 103.91 126.82 104.95 127.45 105.61 C 128.07 106.26 129.12 106.29 129.77 105.66 L 130.49 104.97 C 131.14 104.34 131.16 103.30 130.53 102.65 C 129.91 101.99 128.86 101.97 128.21 102.60 Z M 127.43 103.35 L 126.76 104.07 C 126.14 104.74 126.18 105.78 126.85 106.39 C 127.52 107.01 128.56 106.97 129.18 106.31 L 129.84 105.59 C 130.46 104.92 130.42 103.88 129.75 103.26 C 129.08 102.64 128.04 102.68 127.43 103.35 Z M 126.67 104.17 L 126.08 104.93 C 125.53 105.64 125.65 106.68 126.37 107.24 C 127.09 107.80 128.12 107.67 128.68 106.95 L 129.27 106.20 C 129.83 105.48 129.70 104.45 128.98 103.89 C 128.26 103.33 127.23 103.46 126.67 104.17 Z M 126.02 105.02 L 125.44 105.88 C 124.93 106.63 125.13 107.66 125.88 108.16 C 126.64 108.67 127.66 108.47 128.17 107.72 L 128.75 106.86 C 129.26 106.10 129.06 105.08 128.30 104.57 C 127.55 104.06 126.53 104.26 126.02 105.02 Z M 125.40 105.93 L 124.87 106.80 C 124.39 107.57 124.63 108.59 125.40 109.07 C 126.17 109.54 127.19 109.31 127.67 108.53 L 128.20 107.67 C 128.68 106.89 128.44 105.88 127.67 105.40 C 126.90 104.92 125.88 105.16 125.40 105.93 Z M 124.84 106.84 L 124.34 107.71 C 123.89 108.50 124.16 109.50 124.95 109.96 C 125.74 110.41 126.74 110.14 127.20 109.35 L 127.69 108.49 C 128.15 107.70 127.87 106.69 127.09 106.24 C 126.30 105.79 125.29 106.06 124.84 106.84 Z M 124.30 107.77 L 123.89 108.58 C 123.47 109.39 123.79 110.38 124.60 110.80 C 125.41 111.21 126.40 110.90 126.82 110.09 L 127.23 109.28 C 127.65 108.47 127.33 107.48 126.52 107.06 C 125.71 106.65 124.72 106.97 124.30 107.77 Z M 123.85 108.66 L 123.42 109.61 C 123.05 110.44 123.42 111.42 124.24 111.79 C 125.07 112.16 126.05 111.80 126.42 110.97 L 126.85 110.01 C 127.23 109.18 126.86 108.21 126.03 107.83 C 125.20 107.46 124.23 107.83 123.85 108.66 Z M 123.40 109.65 L 123.01 110.58 C 122.66 111.42 123.06 112.38 123.89 112.73 C 124.73 113.09 125.70 112.69 126.05 111.86 L 126.44 110.93 C 126.79 110.09 126.40 109.12 125.56 108.77 C 124.72 108.42 123.76 108.81 123.40 109.65 Z M 123.01 110.60 L 122.62 111.56 C 122.27 112.40 122.68 113.36 123.52 113.70 C 124.36 114.04 125.33 113.64 125.67 112.80 L 126.06 111.84 C 126.40 110.99 126.00 110.03 125.15 109.69 C 124.31 109.35 123.35 109.75 123.01 110.60 Z M 122.61 111.57 L 122.23 112.54 C 121.89 113.39 122.31 114.34 123.15 114.68 C 124.00 115.01 124.96 114.60 125.29 113.75 L 125.67 112.78 C 126.01 111.94 125.59 110.98 124.75 110.64 C 123.90 110.31 122.94 110.72 122.61 111.57 Z M 122.22 112.56 L 121.86 113.49 C 121.54 114.34 121.97 115.30 122.82 115.62 C 123.67 115.94 124.62 115.52 124.94 114.66 L 125.30 113.73 C 125.62 112.88 125.20 111.93 124.34 111.61 C 123.49 111.28 122.54 111.71 122.22 112.56 Z M 121.85 113.53 L 121.52 114.45 C 121.22 115.31 121.66 116.25 122.52 116.56 C 123.38 116.86 124.32 116.42 124.63 115.56 L 124.96 114.63 C 125.26 113.78 124.81 112.83 123.96 112.53 C 123.10 112.22 122.16 112.67 121.85 113.53 Z M 121.51 114.49 L 121.21 115.39 C 120.92 116.25 121.39 117.19 122.25 117.48 C 123.11 117.76 124.05 117.30 124.33 116.43 L 124.64 115.53 C 124.92 114.67 124.46 113.73 123.59 113.44 C 122.73 113.16 121.80 113.62 121.51 114.49 Z M 121.21 115.40 L 120.89 116.36 C 120.61 117.22 121.08 118.15 121.95 118.44 C 122.81 118.72 123.74 118.25 124.02 117.38 L 124.34 116.42 C 124.62 115.56 124.15 114.63 123.28 114.35 C 122.42 114.06 121.49 114.54 121.21 115.40 Z M 120.89 116.36 L 120.57 117.34 C 120.29 118.20 120.76 119.13 121.63 119.41 C 122.49 119.70 123.42 119.22 123.71 118.36 L 124.02 117.38 C 124.31 116.52 123.84 115.59 122.97 115.30 C 122.11 115.02 121.18 115.49 120.89 116.36 Z M 120.57 117.34 L 120.25 118.33 C 119.97 119.20 120.45 120.13 121.31 120.41 C 122.18 120.69 123.11 120.21 123.39 119.35 L 123.71 118.36 C 123.99 117.49 123.51 116.56 122.65 116.28 C 121.78 116.00 120.85 116.48 120.57 117.34 Z M 120.25 118.34 L 119.95 119.27 C 119.68 120.14 120.16 121.06 121.03 121.34 C 121.89 121.61 122.82 121.13 123.10 120.27 L 123.39 119.34 C 123.66 118.47 123.18 117.55 122.31 117.27 C 121.45 117.00 120.52 117.48 120.25 118.34 Z M 119.95 119.30 L 119.62 120.38 C 119.36 121.26 119.86 122.17 120.73 122.43 C 121.60 122.69 122.52 122.20 122.78 121.33 L 123.10 120.24 C 123.36 119.37 122.87 118.45 122.00 118.19 C 121.12 117.93 120.21 118.43 119.95 119.30 Z M 119.61 120.42 L 119.38 121.25 C 119.14 122.13 119.65 123.03 120.53 123.28 C 121.41 123.52 122.31 123.01 122.56 122.13 L 122.79 121.29 C 123.03 120.42 122.52 119.51 121.64 119.27 C 120.76 119.02 119.85 119.54 119.61 120.42 Z M 119.38 121.26 L 119.12 122.20 C 118.88 123.08 119.40 123.98 120.28 124.22 C 121.16 124.46 122.06 123.94 122.30 123.07 L 122.56 122.12 C 122.80 121.24 122.28 120.34 121.40 120.10 C 120.52 119.86 119.62 120.38 119.38 121.26 Z M 119.13 122.18 L 118.85 123.15 C 118.60 124.02 119.11 124.93 119.99 125.18 C 120.86 125.43 121.77 124.92 122.02 124.05 L 122.30 123.08 C 122.55 122.21 122.04 121.30 121.16 121.05 C 120.29 120.80 119.38 121.31 119.13 122.18 Z M 118.86 123.12 L 118.57 124.08 C 118.30 124.95 118.79 125.87 119.66 126.14 C 120.53 126.40 121.45 125.91 121.72 125.04 L 122.01 124.08 C 122.28 123.21 121.79 122.29 120.92 122.02 C 120.05 121.76 119.13 122.25 118.86 123.12 Z M 118.57 124.07 L 118.27 125.02 C 118.00 125.89 118.49 126.82 119.35 127.09 C 120.22 127.36 121.15 126.88 121.42 126.01 L 121.72 125.05 C 121.99 124.19 121.50 123.26 120.63 122.99 C 119.77 122.72 118.84 123.20 118.57 124.07 Z M 118.27 125.02 L 117.97 125.97 C 117.70 126.83 118.18 127.76 119.05 128.04 C 119.92 128.31 120.84 127.83 121.12 126.96 L 121.42 126.01 C 121.69 125.14 121.21 124.22 120.34 123.94 C 119.48 123.67 118.55 124.15 118.27 125.02 Z M 117.98 125.95 L 117.69 126.84 C 117.40 127.70 117.88 128.63 118.74 128.92 C 119.60 129.20 120.54 128.73 120.82 127.86 L 121.11 126.98 C 121.40 126.11 120.93 125.18 120.06 124.90 C 119.20 124.61 118.26 125.08 117.98 125.95 Z M 117.68 126.86 L 117.37 127.86 C 117.09 128.73 117.58 129.66 118.45 129.93 C 119.31 130.20 120.24 129.72 120.51 128.85 L 120.83 127.84 C 121.10 126.97 120.62 126.05 119.75 125.78 C 118.88 125.50 117.95 125.99 117.68 126.86 Z M 117.35 127.91 L 117.11 128.76 C 116.86 129.64 117.37 130.55 118.25 130.80 C 119.13 131.05 120.04 130.54 120.28 129.66 L 120.53 128.80 C 120.77 127.93 120.26 127.02 119.39 126.77 C 118.51 126.52 117.60 127.03 117.35 127.91 Z M 117.10 128.81 L 116.85 129.79 C 116.63 130.67 117.16 131.57 118.04 131.79 C 118.92 132.02 119.82 131.48 120.05 130.60 L 120.30 129.62 C 120.52 128.74 119.99 127.84 119.10 127.61 C 118.22 127.39 117.32 127.92 117.10 128.81 Z M 116.84 129.83 L 116.60 130.89 C 116.40 131.78 116.95 132.66 117.84 132.86 C 118.73 133.07 119.61 132.51 119.81 131.62 L 120.05 130.56 C 120.26 129.67 119.70 128.79 118.81 128.59 C 117.93 128.38 117.04 128.94 116.84 129.83 Z M 116.59 130.92 L 116.40 131.87 C 116.21 132.76 116.79 133.64 117.68 133.82 C 118.57 134.00 119.44 133.43 119.62 132.54 L 119.82 131.59 C 120.00 130.70 119.43 129.83 118.54 129.64 C 117.65 129.46 116.77 130.03 116.59 130.92 Z M 116.39 131.90 L 116.20 132.89 C 116.03 133.79 116.62 134.65 117.51 134.82 C 118.41 134.99 119.27 134.40 119.44 133.51 L 119.63 132.51 C 119.80 131.62 119.21 130.76 118.32 130.59 C 117.42 130.42 116.56 131.00 116.39 131.90 Z M 116.20 132.92 L 116.02 133.93 C 115.86 134.83 116.46 135.68 117.36 135.84 C 118.26 136.00 119.11 135.40 119.27 134.50 L 119.44 133.49 C 119.60 132.59 119.00 131.74 118.10 131.58 C 117.21 131.42 116.35 132.02 116.20 132.92 Z M 116.02 133.95 L 115.85 135.01 C 115.70 135.90 116.32 136.75 117.22 136.89 C 118.12 137.04 118.96 136.42 119.10 135.52 L 119.27 134.47 C 119.42 133.58 118.80 132.73 117.90 132.59 C 117.00 132.44 116.16 133.06 116.02 133.95 Z M 115.84 135.03 L 115.70 136.06 C 115.57 136.96 116.19 137.79 117.09 137.92 C 117.99 138.05 118.83 137.43 118.96 136.53 L 119.11 135.50 C 119.24 134.60 118.61 133.76 117.71 133.63 C 116.81 133.50 115.97 134.13 115.84 135.03 Z M 115.69 136.08 L 115.57 137.04 C 115.46 137.94 116.09 138.77 117.00 138.89 C 117.90 139.00 118.73 138.36 118.84 137.46 L 118.96 136.50 C 119.08 135.60 118.44 134.77 117.54 134.66 C 116.63 134.54 115.81 135.18 115.69 136.08 Z M 115.57 137.07 L 115.46 138.04 C 115.36 138.95 116.02 139.76 116.92 139.86 C 117.83 139.96 118.64 139.30 118.74 138.40 L 118.85 137.43 C 118.94 136.52 118.29 135.71 117.38 135.61 C 116.48 135.51 115.67 136.17 115.57 137.07 Z M 115.46 138.09 L 115.38 139.09 C 115.31 139.99 115.98 140.79 116.89 140.86 C 117.80 140.93 118.59 140.26 118.66 139.35 L 118.74 138.35 C 118.82 137.45 118.14 136.65 117.23 136.58 C 116.33 136.51 115.53 137.18 115.46 138.09 Z M 115.37 139.14 L 115.33 140.10 C 115.29 141.01 115.99 141.78 116.90 141.83 C 117.81 141.87 118.58 141.17 118.62 140.26 L 118.67 139.30 C 118.71 138.39 118.01 137.61 117.10 137.57 C 116.19 137.53 115.42 138.23 115.37 139.14 Z M 115.33 140.15 L 115.31 141.14 C 115.29 142.05 116.01 142.80 116.92 142.82 C 117.83 142.84 118.58 142.12 118.60 141.21 L 118.62 140.21 C 118.64 139.30 117.92 138.55 117.01 138.53 C 116.10 138.51 115.35 139.24 115.33 140.15 Z M 115.31 141.16 L 115.30 142.18 C 115.30 143.09 116.03 143.83 116.94 143.83 C 117.85 143.84 118.59 143.11 118.60 142.20 L 118.60 141.18 C 118.61 140.27 117.88 139.53 116.97 139.53 C 116.06 139.52 115.31 140.25 115.31 141.16 Z M 115.30 142.19 L 115.30 143.20 C 115.30 144.11 116.04 144.85 116.95 144.85 C 117.86 144.85 118.60 144.12 118.60 143.21 L 118.60 142.19 C 118.60 141.28 117.86 140.54 116.95 140.54 C 116.04 140.54 115.30 141.28 115.30 142.19 Z M 115.30 143.21 L 115.30 144.22 C 115.30 145.13 116.04 145.87 116.95 145.87 C 117.86 145.87 118.60 145.13 118.60 144.22 L 118.60 143.21 C 118.60 142.29 117.86 141.56 116.95 141.56 C 116.04 141.56 115.30 142.29 115.30 143.21 Z M 115.30 144.22 L 115.30 145.18 C 115.30 146.09 116.04 146.83 116.95 146.83 C 117.86 146.83 118.60 146.09 118.60 145.18 L 118.60 144.22 C 118.60 143.31 117.86 142.57 116.95 142.57 C 116.04 142.57 115.30 143.31 115.30 144.22 Z M 115.30 145.18 L 115.30 146.19 C 115.30 147.10 116.04 147.84 116.95 147.84 C 117.86 147.84 118.60 147.10 118.60 146.19 L 118.60 145.18 C 118.60 144.27 117.86 143.53 116.95 143.53 C 116.04 143.53 115.30 144.27 115.30 145.18 Z M 115.30 146.19 L 115.30 147.18 C 115.30 148.09 116.04 148.82 116.95 148.82 C 117.86 148.82 118.60 148.09 118.60 147.18 L 118.60 146.19 C 118.60 145.28 117.86 144.54 116.95 144.54 C 116.04 144.54 115.30 145.28 115.30 146.19 Z M 115.30 147.18 L 115.31 148.13 C 115.31 149.04 116.05 149.78 116.96 149.77 C 117.87 149.77 118.61 149.03 118.60 148.12 L 118.60 147.17 C 118.59 146.26 117.85 145.52 116.94 145.53 C 116.03 145.53 115.30 146.27 115.30 147.18 Z M 115.31 148.17 L 115.33 149.21 C 115.36 150.12 116.12 150.84 117.03 150.82 C 117.94 150.79 118.65 150.03 118.63 149.12 L 118.60 148.08 C 118.58 147.17 117.82 146.45 116.91 146.48 C 116.00 146.50 115.28 147.26 115.31 148.17 Z M 115.34 149.26 L 115.39 150.20 C 115.44 151.11 116.21 151.81 117.12 151.76 C 118.03 151.71 118.73 150.93 118.68 150.02 L 118.63 149.08 C 118.58 148.17 117.80 147.47 116.89 147.52 C 115.98 147.57 115.29 148.35 115.34 149.26 Z M 115.39 150.21 L 115.45 151.22 C 115.50 152.13 116.28 152.82 117.19 152.77 C 118.10 152.71 118.79 151.93 118.74 151.03 L 118.68 150.02 C 118.62 149.11 117.84 148.41 116.94 148.47 C 116.03 148.52 115.33 149.30 115.39 150.21 Z M 115.45 151.20 L 115.49 152.26 C 115.53 153.17 116.31 153.87 117.21 153.83 C 118.12 153.79 118.83 153.02 118.79 152.11 L 118.74 151.05 C 118.70 150.14 117.93 149.43 117.02 149.48 C 116.11 149.52 115.40 150.29 115.45 151.20 Z M 115.49 152.22 L 115.52 153.28 C 115.54 154.19 116.29 154.91 117.20 154.89 C 118.11 154.87 118.83 154.12 118.81 153.21 L 118.79 152.15 C 118.77 151.24 118.01 150.52 117.10 150.54 C 116.19 150.56 115.47 151.31 115.49 152.22 Z M 115.52 153.26 L 115.52 154.25 C 115.53 155.16 116.27 155.90 117.18 155.89 C 118.09 155.88 118.83 155.14 118.82 154.23 L 118.81 153.23 C 118.81 152.32 118.06 151.59 117.15 151.60 C 116.24 151.60 115.51 152.35 115.52 153.26 Z M 115.52 154.24 L 115.52 155.23 C 115.52 156.14 116.26 156.88 117.17 156.88 C 118.08 156.88 118.82 156.14 118.82 155.23 L 118.82 154.24 C 118.82 153.33 118.08 152.59 117.17 152.59 C 116.26 152.59 115.52 153.33 115.52 154.24 Z M 115.52 155.23 L 115.52 156.22 C 115.52 157.13 116.26 157.87 117.17 157.87 C 118.08 157.87 118.82 157.13 118.82 156.22 L 118.82 155.23 C 118.82 154.32 118.08 153.58 117.17 153.58 C 116.26 153.58 115.52 154.32 115.52 155.23 Z M 115.52 156.22 L 115.52 157.16 C 115.52 158.07 116.26 158.80 117.17 158.80 C 118.08 158.80 118.82 158.07 118.82 157.16 L 118.82 156.22 C 118.82 155.31 118.08 154.57 117.17 154.57 C 116.26 154.57 115.52 155.31 115.52 156.22 Z M 115.52 157.16 L 115.52 158.16 C 115.52 159.07 116.26 159.81 117.17 159.81 C 118.08 159.81 118.82 159.07 118.82 158.16 L 118.82 157.16 C 118.82 156.25 118.08 155.51 117.17 155.51 C 116.26 155.51 115.52 156.25 115.52 157.16 Z M 115.52 158.16 L 115.52 159.16 C 115.52 160.07 116.26 160.81 117.17 160.81 C 118.08 160.82 118.82 160.08 118.82 159.17 L 118.82 158.17 C 118.82 157.26 118.08 156.52 117.17 156.51 C 116.26 156.51 115.53 157.25 115.52 158.16 Z M 115.52 159.11 L 115.49 160.11 C 115.46 161.02 116.17 161.78 117.08 161.81 C 117.99 161.84 118.75 161.13 118.78 160.22 L 118.82 159.22 C 118.85 158.31 118.13 157.55 117.22 157.52 C 116.31 157.49 115.55 158.20 115.52 159.11 Z M 115.50 159.99 L 115.40 160.98 C 115.30 161.88 115.96 162.69 116.86 162.79 C 117.77 162.88 118.58 162.23 118.67 161.32 L 118.78 160.34 C 118.87 159.43 118.21 158.62 117.31 158.53 C 116.40 158.43 115.59 159.09 115.50 159.99 Z M 115.41 160.88 L 115.24 161.86 C 115.09 162.76 115.69 163.61 116.59 163.76 C 117.49 163.92 118.34 163.31 118.49 162.42 L 118.66 161.43 C 118.81 160.53 118.21 159.68 117.31 159.53 C 116.41 159.37 115.56 159.98 115.41 160.88 Z M 115.25 161.82 L 115.05 162.82 C 114.87 163.71 115.45 164.58 116.35 164.76 C 117.24 164.93 118.10 164.35 118.28 163.46 L 118.48 162.46 C 118.66 161.57 118.08 160.70 117.19 160.52 C 116.29 160.35 115.43 160.93 115.25 161.82 Z M 115.06 162.80 L 114.85 163.78 C 114.66 164.67 115.23 165.55 116.12 165.74 C 117.01 165.93 117.88 165.36 118.07 164.47 L 118.28 163.48 C 118.47 162.59 117.90 161.72 117.01 161.53 C 116.12 161.34 115.24 161.91 115.06 162.80 Z M 114.85 163.76 L 114.63 164.74 C 114.43 165.63 114.98 166.51 115.87 166.71 C 116.76 166.91 117.64 166.36 117.84 165.47 L 118.06 164.49 C 118.27 163.60 117.71 162.72 116.82 162.52 C 115.94 162.32 115.05 162.87 114.85 163.76 Z M 114.63 164.72 L 114.40 165.69 C 114.19 166.58 114.74 167.47 115.62 167.68 C 116.51 167.89 117.39 167.34 117.60 166.46 L 117.84 165.49 C 118.05 164.60 117.50 163.71 116.62 163.50 C 115.73 163.29 114.84 163.84 114.63 164.72 Z M 114.40 165.70 L 114.17 166.67 C 113.97 167.55 114.52 168.44 115.41 168.64 C 116.29 168.85 117.18 168.30 117.38 167.41 L 117.61 166.45 C 117.81 165.56 117.26 164.68 116.38 164.47 C 115.49 164.27 114.60 164.82 114.40 165.70 Z M 114.17 166.69 L 113.96 167.67 C 113.77 168.56 114.33 169.43 115.22 169.63 C 116.11 169.82 116.99 169.25 117.18 168.36 L 117.39 167.38 C 117.58 166.49 117.01 165.62 116.12 165.43 C 115.24 165.24 114.36 165.80 114.17 166.69 Z M 113.95 167.70 L 113.77 168.67 C 113.59 169.56 114.18 170.43 115.07 170.60 C 115.96 170.77 116.83 170.19 117.00 169.29 L 117.19 168.33 C 117.36 167.43 116.77 166.57 115.88 166.40 C 114.99 166.23 114.12 166.81 113.95 167.70 Z M 113.76 168.73 L 113.60 169.72 C 113.46 170.62 114.07 171.46 114.97 171.60 C 115.87 171.74 116.72 171.13 116.86 170.23 L 117.01 169.23 C 117.15 168.34 116.54 167.49 115.64 167.35 C 114.74 167.21 113.90 167.83 113.76 168.73 Z M 113.59 169.80 L 113.49 170.74 C 113.39 171.65 114.05 172.46 114.95 172.55 C 115.86 172.65 116.67 172.00 116.77 171.09 L 116.87 170.15 C 116.96 169.24 116.31 168.43 115.40 168.33 C 114.50 168.24 113.69 168.89 113.59 169.80 Z M 113.48 170.81 L 113.42 171.83 C 113.36 172.74 114.06 173.52 114.96 173.58 C 115.87 173.63 116.65 172.94 116.71 172.03 L 116.77 171.02 C 116.83 170.11 116.14 169.33 115.23 169.27 C 114.32 169.21 113.54 169.91 113.48 170.81 Z M 113.42 171.89 L 113.39 172.94 C 113.36 173.85 114.08 174.60 114.99 174.63 C 115.90 174.65 116.66 173.94 116.68 173.03 L 116.71 171.98 C 116.74 171.07 116.02 170.31 115.11 170.28 C 114.20 170.26 113.44 170.98 113.42 171.89 Z M 113.39 172.98 L 113.38 174.01 C 113.38 174.92 114.12 175.66 115.03 175.66 C 115.94 175.67 116.68 174.93 116.68 174.02 L 116.68 172.99 C 116.69 172.08 115.95 171.34 115.04 171.33 C 114.13 171.33 113.39 172.07 113.39 172.98 Z M 113.39 174.05 L 113.41 175.03 C 113.43 175.94 114.18 176.66 115.09 176.64 C 116.00 176.62 116.72 175.87 116.70 174.96 L 116.68 173.98 C 116.66 173.07 115.91 172.35 115.00 172.37 C 114.09 172.39 113.37 173.14 113.39 174.05 Z M 113.41 175.13 L 113.50 176.17 C 113.57 177.07 114.36 177.75 115.27 177.68 C 116.18 177.60 116.85 176.81 116.78 175.90 L 116.70 174.86 C 116.62 173.96 115.83 173.28 114.92 173.35 C 114.02 173.43 113.34 174.22 113.41 175.13 Z M 113.53 176.39 L 113.72 177.27 C 113.92 178.16 114.80 178.72 115.69 178.52 C 116.58 178.32 117.14 177.45 116.94 176.56 L 116.75 175.68 C 116.55 174.79 115.67 174.23 114.78 174.43 C 113.89 174.62 113.33 175.50 113.53 176.39 Z M 113.77 177.45 L 114.09 178.37 C 114.39 179.23 115.33 179.69 116.19 179.39 C 117.05 179.10 117.50 178.16 117.21 177.30 L 116.89 176.38 C 116.59 175.52 115.66 175.06 114.80 175.35 C 113.94 175.65 113.48 176.59 113.77 177.45 Z M 114.09 178.37 L 114.43 179.34 C 114.73 180.20 115.66 180.66 116.52 180.36 C 117.38 180.06 117.84 179.12 117.54 178.26 L 117.21 177.30 C 116.91 176.44 115.97 175.98 115.11 176.28 C 114.25 176.58 113.80 177.51 114.09 178.37 Z M 114.41 179.29 L 114.71 180.26 C 114.99 181.13 115.91 181.62 116.78 181.34 C 117.65 181.07 118.13 180.15 117.86 179.28 L 117.56 178.31 C 117.29 177.44 116.36 176.96 115.49 177.23 C 114.63 177.50 114.14 178.43 114.41 179.29 Z M 114.70 180.22 L 114.98 181.22 C 115.23 182.09 116.14 182.60 117.01 182.36 C 117.89 182.11 118.40 181.20 118.15 180.33 L 117.87 179.33 C 117.63 178.45 116.72 177.94 115.84 178.19 C 114.97 178.43 114.46 179.34 114.70 180.22 Z M 114.97 181.17 L 115.22 182.18 C 115.44 183.06 116.33 183.60 117.21 183.38 C 118.09 183.17 118.63 182.27 118.42 181.39 L 118.17 180.38 C 117.95 179.49 117.06 178.96 116.17 179.17 C 115.29 179.39 114.75 180.28 114.97 181.17 Z M 115.21 182.16 L 115.43 183.07 C 115.63 183.96 116.52 184.51 117.40 184.30 C 118.29 184.10 118.84 183.21 118.63 182.33 L 118.42 181.41 C 118.22 180.52 117.33 179.97 116.44 180.18 C 115.56 180.39 115.01 181.27 115.21 182.16 Z M 115.43 183.09 L 115.66 184.04 C 115.88 184.93 116.77 185.47 117.66 185.25 C 118.54 185.03 119.08 184.14 118.86 183.26 L 118.63 182.31 C 118.41 181.42 117.52 180.88 116.64 181.10 C 115.75 181.32 115.21 182.21 115.43 183.09 Z M 115.67 184.07 L 115.93 185.04 C 116.16 185.92 117.06 186.45 117.94 186.22 C 118.82 185.98 119.34 185.08 119.11 184.20 L 118.86 183.23 C 118.62 182.35 117.72 181.83 116.84 182.06 C 115.96 182.29 115.44 183.19 115.67 184.07 Z M 115.93 185.05 L 116.19 186.03 C 116.43 186.91 117.34 187.43 118.21 187.19 C 119.09 186.95 119.61 186.05 119.37 185.17 L 119.11 184.19 C 118.87 183.31 117.97 182.80 117.09 183.03 C 116.21 183.27 115.69 184.17 115.93 185.05 Z M 116.19 186.02 L 116.45 186.99 C 116.68 187.87 117.58 188.39 118.46 188.16 C 119.34 187.93 119.86 187.03 119.63 186.15 L 119.38 185.18 C 119.14 184.30 118.24 183.78 117.36 184.01 C 116.48 184.24 115.96 185.14 116.19 186.02 Z M 116.44 186.97 L 116.68 187.91 C 116.91 188.79 117.80 189.33 118.69 189.10 C 119.57 188.88 120.10 187.98 119.87 187.10 L 119.64 186.16 C 119.41 185.28 118.51 184.75 117.63 184.97 C 116.75 185.20 116.22 186.09 116.44 186.97 Z M 116.69 187.93 L 116.94 188.88 C 117.18 189.76 118.08 190.29 118.96 190.05 C 119.84 189.82 120.36 188.92 120.12 188.04 L 119.87 187.08 C 119.64 186.20 118.73 185.68 117.86 185.91 C 116.98 186.15 116.45 187.05 116.69 187.93 Z M 116.95 188.91 L 117.20 189.79 C 117.45 190.67 118.36 191.17 119.24 190.92 C 120.11 190.67 120.62 189.76 120.37 188.89 L 120.12 188.01 C 119.87 187.13 118.96 186.63 118.08 186.88 C 117.21 187.13 116.70 188.04 116.95 188.91 Z M 117.21 189.81 L 117.51 190.82 C 117.77 191.69 118.69 192.19 119.56 191.93 C 120.43 191.67 120.93 190.75 120.66 189.88 L 120.36 188.87 C 120.10 188.00 119.18 187.50 118.31 187.76 C 117.44 188.02 116.95 188.94 117.21 189.81 Z M 117.51 190.84 L 117.83 191.85 C 118.10 192.72 119.02 193.21 119.89 192.94 C 120.76 192.66 121.25 191.74 120.97 190.87 L 120.66 189.86 C 120.39 188.99 119.47 188.51 118.60 188.78 C 117.73 189.05 117.24 189.97 117.51 190.84 Z M 117.84 191.87 L 118.15 192.83 C 118.43 193.70 119.35 194.18 120.22 193.90 C 121.08 193.62 121.56 192.69 121.28 191.82 L 120.97 190.86 C 120.69 189.99 119.76 189.52 118.90 189.80 C 118.03 190.08 117.56 191.00 117.84 191.87 Z M 118.15 192.85 L 118.48 193.82 C 118.76 194.68 119.70 195.14 120.56 194.86 C 121.42 194.57 121.89 193.63 121.60 192.77 L 121.28 191.81 C 120.99 190.94 120.05 190.48 119.19 190.77 C 118.33 191.06 117.86 191.99 118.15 192.85 Z M 118.48 193.84 L 118.82 194.79 C 119.12 195.65 120.06 196.10 120.92 195.80 C 121.77 195.50 122.23 194.56 121.92 193.70 L 121.59 192.75 C 121.29 191.89 120.35 191.44 119.49 191.74 C 118.63 192.04 118.18 192.98 118.48 193.84 Z M 118.83 194.82 L 119.21 195.85 C 119.53 196.70 120.48 197.13 121.34 196.81 C 122.19 196.49 122.62 195.54 122.30 194.69 L 121.91 193.66 C 121.59 192.81 120.64 192.38 119.79 192.70 C 118.94 193.02 118.51 193.97 118.83 194.82 Z M 119.23 195.89 L 119.59 196.77 C 119.93 197.62 120.89 198.02 121.74 197.68 C 122.58 197.34 122.98 196.38 122.64 195.53 L 122.28 194.65 C 121.94 193.81 120.98 193.40 120.14 193.74 C 119.29 194.09 118.89 195.05 119.23 195.89 Z M 119.61 196.82 L 120.00 197.70 C 120.37 198.54 121.34 198.91 122.17 198.55 C 123.00 198.18 123.38 197.21 123.01 196.37 L 122.62 195.49 C 122.26 194.66 121.28 194.28 120.45 194.65 C 119.62 195.02 119.24 195.99 119.61 196.82 Z M 120.02 197.75 L 120.45 198.64 C 120.84 199.46 121.82 199.80 122.64 199.41 C 123.46 199.01 123.81 198.03 123.41 197.21 L 122.99 196.32 C 122.60 195.50 121.61 195.16 120.79 195.55 C 119.97 195.95 119.63 196.93 120.02 197.75 Z M 120.46 198.66 L 120.90 199.54 C 121.31 200.35 122.30 200.68 123.11 200.27 C 123.92 199.86 124.25 198.87 123.84 198.06 L 123.40 197.18 C 122.99 196.37 122.00 196.04 121.19 196.45 C 120.38 196.86 120.05 197.85 120.46 198.66 Z M 120.91 199.56 L 121.37 200.45 C 121.80 201.26 122.79 201.57 123.60 201.15 C 124.40 200.73 124.72 199.73 124.29 198.92 L 123.83 198.03 C 123.41 197.23 122.41 196.92 121.61 197.34 C 120.80 197.76 120.49 198.75 120.91 199.56 Z M 121.40 200.49 L 121.84 201.28 C 122.29 202.08 123.29 202.36 124.09 201.91 C 124.88 201.47 125.16 200.46 124.71 199.67 L 124.27 198.88 C 123.82 198.09 122.82 197.81 122.03 198.25 C 121.23 198.70 120.95 199.70 121.40 200.49 Z M 121.85 201.30 L 122.36 202.19 C 122.82 202.97 123.82 203.25 124.61 202.79 C 125.40 202.34 125.67 201.33 125.22 200.54 L 124.71 199.65 C 124.25 198.87 123.25 198.60 122.46 199.05 C 121.67 199.50 121.40 200.51 121.85 201.30 Z M 122.35 202.16 L 122.83 203.03 C 123.27 203.82 124.27 204.11 125.07 203.67 C 125.86 203.23 126.15 202.23 125.71 201.43 L 125.23 200.57 C 124.79 199.77 123.79 199.48 122.99 199.92 C 122.20 200.37 121.91 201.37 122.35 202.16 Z M 122.82 203.01 L 123.29 203.90 C 123.72 204.70 124.72 205.00 125.52 204.58 C 126.32 204.15 126.63 203.15 126.20 202.35 L 125.72 201.45 C 125.29 200.65 124.30 200.35 123.49 200.78 C 122.69 201.21 122.39 202.20 122.82 203.01 Z M 123.28 203.88 L 123.76 204.81 C 124.18 205.62 125.17 205.94 125.98 205.52 C 126.79 205.11 127.11 204.12 126.69 203.31 L 126.21 202.37 C 125.80 201.56 124.80 201.24 123.99 201.66 C 123.19 202.07 122.87 203.07 123.28 203.88 Z M 123.75 204.78 L 124.22 205.75 C 124.62 206.57 125.60 206.91 126.42 206.52 C 127.24 206.12 127.58 205.13 127.18 204.32 L 126.71 203.34 C 126.31 202.52 125.33 202.18 124.51 202.58 C 123.69 202.97 123.35 203.96 123.75 204.78 Z M 124.20 205.72 L 124.62 206.65 C 125.00 207.48 125.98 207.84 126.80 207.47 C 127.63 207.09 128.00 206.11 127.62 205.29 L 127.20 204.35 C 126.82 203.53 125.85 203.16 125.02 203.54 C 124.19 203.91 123.83 204.89 124.20 205.72 Z M 124.61 206.62 L 124.97 207.45 C 125.33 208.29 126.30 208.67 127.13 208.32 C 127.97 207.96 128.35 206.99 128.00 206.15 L 127.64 205.32 C 127.28 204.48 126.31 204.10 125.47 204.45 C 124.64 204.81 124.25 205.78 124.61 206.62 Z M 124.96 207.43 L 125.34 208.36 C 125.69 209.20 126.65 209.60 127.49 209.26 C 128.33 208.91 128.73 207.95 128.39 207.11 L 128.01 206.18 C 127.66 205.34 126.70 204.93 125.86 205.28 C 125.02 205.63 124.61 206.59 124.96 207.43 Z M 125.33 208.33 L 125.69 209.25 C 126.02 210.09 126.97 210.51 127.82 210.18 C 128.67 209.85 129.09 208.90 128.76 208.05 L 128.40 207.14 C 128.07 206.29 127.11 205.87 126.27 206.20 C 125.42 206.53 125.00 207.49 125.33 208.33 Z M 125.68 209.23 L 125.99 210.04 C 126.30 210.89 127.25 211.32 128.11 211.00 C 128.96 210.68 129.39 209.73 129.07 208.88 L 128.76 208.07 C 128.44 207.22 127.49 206.79 126.64 207.11 C 125.79 207.43 125.36 208.38 125.68 209.23 Z M 125.98 210.03 L 126.32 210.93 C 126.63 211.79 127.58 212.22 128.43 211.91 C 129.29 211.59 129.72 210.64 129.40 209.79 L 129.07 208.88 C 128.75 208.03 127.81 207.60 126.95 207.91 C 126.10 208.23 125.67 209.18 125.98 210.03 Z M 126.32 210.94 L 126.73 212.03 C 127.04 212.88 127.99 213.32 128.84 213.00 C 129.69 212.68 130.13 211.73 129.81 210.88 L 129.40 209.79 C 129.09 208.94 128.14 208.50 127.29 208.82 C 126.44 209.14 126.00 210.08 126.32 210.94 Z M 126.73 212.03 L 127.07 212.94 C 127.39 213.79 128.34 214.23 129.19 213.91 C 130.04 213.59 130.47 212.64 130.15 211.79 L 129.81 210.88 C 129.49 210.03 128.54 209.60 127.69 209.91 C 126.84 210.23 126.41 211.18 126.73 212.03 Z M 127.07 212.95 L 127.44 213.92 C 127.76 214.77 128.71 215.20 129.56 214.88 C 130.41 214.55 130.84 213.60 130.52 212.75 L 130.15 211.78 C 129.83 210.93 128.88 210.50 128.03 210.83 C 127.18 211.15 126.75 212.10 127.07 212.95 Z M 127.44 213.93 L 127.81 214.89 C 128.14 215.74 129.09 216.16 129.94 215.84 C 130.79 215.51 131.21 214.56 130.89 213.71 L 130.51 212.74 C 130.19 211.90 129.23 211.47 128.38 211.80 C 127.54 212.13 127.11 213.08 127.44 213.93 Z M 127.82 214.91 L 128.18 215.82 C 128.51 216.66 129.47 217.08 130.32 216.74 C 131.16 216.41 131.58 215.45 131.24 214.60 L 130.88 213.69 C 130.55 212.85 129.59 212.43 128.74 212.77 C 127.90 213.10 127.48 214.06 127.82 214.91 Z M 128.19 215.84 L 128.63 216.91 C 128.98 217.75 129.95 218.15 130.79 217.80 C 131.63 217.45 132.03 216.48 131.67 215.64 L 131.23 214.58 C 130.88 213.74 129.92 213.34 129.08 213.69 C 128.24 214.04 127.84 215.00 128.19 215.84 Z M 128.65 216.95 L 129.04 217.82 C 129.42 218.65 130.39 219.01 131.22 218.64 C 132.05 218.26 132.42 217.29 132.05 216.46 L 131.66 215.60 C 131.28 214.77 130.30 214.40 129.47 214.77 C 128.64 215.15 128.28 216.12 128.65 216.95 Z M 129.06 217.87 L 129.46 218.67 C 129.86 219.48 130.85 219.82 131.67 219.41 C 132.49 219.01 132.82 218.02 132.42 217.20 L 132.02 216.40 C 131.62 215.59 130.63 215.25 129.81 215.66 C 128.99 216.06 128.66 217.05 129.06 217.87 Z M 129.49 218.73 L 129.97 219.60 C 130.41 220.40 131.42 220.69 132.21 220.24 C 133.01 219.80 133.30 218.80 132.86 218.00 L 132.38 217.13 C 131.94 216.33 130.94 216.04 130.14 216.49 C 129.34 216.93 129.05 217.93 129.49 218.73 Z M 130.02 219.68 L 130.56 220.53 C 131.05 221.30 132.07 221.53 132.84 221.04 C 133.61 220.55 133.84 219.53 133.35 218.76 L 132.81 217.91 C 132.32 217.14 131.30 216.91 130.53 217.40 C 129.76 217.89 129.53 218.91 130.02 219.68 Z M 130.61 220.62 L 131.20 221.43 C 131.74 222.17 132.77 222.33 133.51 221.79 C 134.25 221.26 134.42 220.22 133.88 219.48 L 133.29 218.67 C 132.76 217.93 131.72 217.77 130.98 218.31 C 130.24 218.84 130.08 219.88 130.61 220.62 Z M 131.27 221.52 L 131.92 222.29 C 132.51 222.99 133.56 223.08 134.26 222.49 C 134.96 221.90 135.05 220.86 134.46 220.16 L 133.81 219.39 C 133.22 218.69 132.17 218.60 131.47 219.19 C 130.77 219.78 130.68 220.82 131.27 221.52 Z M 132.04 222.42 L 132.79 223.14 C 133.45 223.78 134.50 223.76 135.13 223.10 C 135.77 222.45 135.75 221.40 135.09 220.76 L 134.34 220.03 C 133.69 219.40 132.64 219.42 132.00 220.07 C 131.36 220.73 131.38 221.78 132.04 222.42 Z M 132.92 223.26 L 133.69 223.86 C 134.41 224.43 135.46 224.30 136.02 223.58 C 136.58 222.86 136.46 221.82 135.74 221.25 L 134.96 220.65 C 134.24 220.08 133.20 220.21 132.64 220.93 C 132.07 221.65 132.20 222.69 132.92 223.26 Z M 133.81 223.94 L 134.63 224.48 C 135.40 224.98 136.42 224.77 136.92 224.00 C 137.42 223.24 137.21 222.21 136.44 221.71 L 135.62 221.17 C 134.86 220.67 133.83 220.88 133.33 221.65 C 132.83 222.42 133.04 223.44 133.81 223.94 Z M 134.78 224.57 L 135.65 225.02 C 136.46 225.44 137.46 225.12 137.88 224.31 C 138.30 223.49 137.98 222.49 137.17 222.07 L 136.30 221.62 C 135.48 221.20 134.48 221.52 134.06 222.33 C 133.64 223.15 133.96 224.15 134.78 224.57 Z M 135.80 225.09 L 136.72 225.45 C 137.58 225.78 138.54 225.36 138.87 224.51 C 139.21 223.66 138.79 222.70 137.94 222.36 L 137.02 222.00 C 136.16 221.67 135.20 222.09 134.87 222.94 C 134.53 223.79 134.95 224.75 135.80 225.09 Z M 136.80 225.48 L 137.77 225.80 C 138.63 226.09 139.57 225.62 139.86 224.75 C 140.15 223.89 139.69 222.95 138.82 222.66 L 137.86 222.34 C 136.99 222.04 136.05 222.51 135.76 223.38 C 135.47 224.25 135.94 225.19 136.80 225.48 Z M 137.78 225.81 L 138.74 226.11 C 139.61 226.39 140.54 225.91 140.82 225.04 C 141.10 224.17 140.62 223.24 139.75 222.96 L 138.80 222.65 C 137.93 222.37 136.99 222.85 136.71 223.72 C 136.43 224.59 136.91 225.53 137.78 225.81 Z M 138.73 226.11 L 139.68 226.42 C 140.55 226.71 141.48 226.23 141.77 225.36 C 142.05 224.49 141.58 223.55 140.71 223.27 L 139.76 222.96 C 138.89 222.67 137.95 223.15 137.67 224.02 C 137.38 224.89 137.86 225.83 138.73 226.11 Z M 139.65 226.41 L 140.59 226.74 C 141.46 227.04 142.41 226.58 142.71 225.71 C 143.01 224.85 142.55 223.90 141.68 223.60 L 140.73 223.27 C 139.87 222.97 138.92 223.43 138.62 224.30 C 138.32 225.17 138.78 226.11 139.65 226.41 Z M 140.55 226.73 L 141.49 227.08 C 142.36 227.41 143.32 226.97 143.64 226.11 C 143.96 225.25 143.53 224.29 142.66 223.96 L 141.72 223.61 C 140.86 223.29 139.90 223.72 139.58 224.59 C 139.25 225.45 139.69 226.41 140.55 226.73 Z M 141.46 227.08 L 142.39 227.45 C 143.25 227.79 144.22 227.37 144.56 226.52 C 144.90 225.66 144.49 224.69 143.63 224.34 L 142.70 223.97 C 141.84 223.63 140.87 224.05 140.53 224.90 C 140.19 225.76 140.60 226.73 141.46 227.08 Z M 142.39 227.45 L 143.29 227.81 C 144.15 228.15 145.12 227.73 145.46 226.87 C 145.80 226.01 145.38 225.03 144.52 224.69 L 143.63 224.34 C 142.77 224.00 141.79 224.42 141.45 225.28 C 141.11 226.14 141.53 227.11 142.39 227.45 Z M 143.31 227.82 L 144.24 228.17 C 145.11 228.50 146.08 228.06 146.41 227.20 C 146.73 226.33 146.30 225.36 145.43 225.04 L 144.50 224.68 C 143.63 224.35 142.66 224.79 142.34 225.66 C 142.01 226.52 142.44 227.49 143.31 227.82 Z M 144.27 228.18 L 145.21 228.52 C 146.08 228.84 147.05 228.39 147.36 227.52 C 147.68 226.65 147.23 225.68 146.36 225.37 L 145.41 225.03 C 144.54 224.71 143.58 225.16 143.26 226.03 C 142.94 226.90 143.39 227.87 144.27 228.18 Z M 145.24 228.54 L 146.21 228.86 C 147.08 229.16 148.04 228.70 148.34 227.82 C 148.64 226.94 148.17 225.99 147.29 225.69 L 146.33 225.36 C 145.45 225.06 144.50 225.53 144.20 226.40 C 143.90 227.28 144.36 228.24 145.24 228.54 Z M 146.26 228.88 L 147.23 229.18 C 148.12 229.45 149.06 228.95 149.33 228.06 C 149.60 227.18 149.10 226.24 148.21 225.97 L 147.24 225.67 C 146.35 225.40 145.41 225.90 145.14 226.79 C 144.87 227.67 145.37 228.61 146.26 228.88 Z M 147.32 229.20 L 148.28 229.44 C 149.18 229.67 150.09 229.12 150.32 228.22 C 150.54 227.32 150.00 226.41 149.10 226.19 L 148.13 225.94 C 147.23 225.72 146.32 226.27 146.09 227.17 C 145.87 228.07 146.42 228.98 147.32 229.20 Z M 148.37 229.46 L 149.33 229.65 C 150.24 229.83 151.12 229.23 151.30 228.32 C 151.47 227.41 150.88 226.53 149.97 226.35 L 149.01 226.17 C 148.10 225.99 147.22 226.58 147.04 227.50 C 146.86 228.41 147.46 229.29 148.37 229.46 Z M 149.41 229.66 L 150.35 229.80 C 151.27 229.93 152.12 229.30 152.25 228.38 C 152.39 227.46 151.75 226.61 150.83 226.47 L 149.89 226.34 C 148.97 226.21 148.12 226.84 147.99 227.76 C 147.85 228.68 148.49 229.53 149.41 229.66 Z M 150.43 229.81 L 151.47 229.91 C 152.39 229.99 153.21 229.31 153.30 228.39 C 153.38 227.47 152.70 226.65 151.78 226.56 L 150.75 226.46 C 149.82 226.38 149.00 227.06 148.92 227.98 C 148.83 228.91 149.51 229.72 150.43 229.81 Z M 151.55 229.91 L 152.57 229.96 C 153.50 230.00 154.28 229.28 154.33 228.36 C 154.37 227.43 153.65 226.64 152.72 226.60 L 151.70 226.55 C 150.77 226.51 149.99 227.23 149.94 228.16 C 149.90 229.09 150.62 229.87 151.55 229.91 Z M 152.62 229.96 L 153.64 229.98 C 154.57 229.99 155.34 229.25 155.35 228.32 C 155.37 227.39 154.62 226.63 153.70 226.61 L 152.67 226.60 C 151.74 226.58 150.98 227.32 150.96 228.25 C 150.95 229.18 151.69 229.95 152.62 229.96 Z M 153.67 229.98 L 154.64 229.98 C 155.57 229.98 156.33 229.23 156.33 228.30 C 156.33 227.37 155.58 226.62 154.65 226.62 L 153.67 226.61 C 152.74 226.61 151.99 227.36 151.99 228.29 C 151.98 229.22 152.74 229.98 153.67 229.98 Z M 154.65 229.98 L 155.71 229.98 C 156.64 229.98 157.39 229.23 157.39 228.30 C 157.39 227.37 156.64 226.62 155.71 226.62 L 154.65 226.62 C 153.72 226.62 152.96 227.37 152.96 228.30 C 152.96 229.23 153.72 229.98 154.65 229.98 Z M 155.71 229.98 L 156.66 229.98 C 157.59 229.98 158.35 229.23 158.35 228.30 C 158.35 227.37 157.59 226.62 156.66 226.62 L 155.71 226.62 C 154.78 226.62 154.02 227.37 154.02 228.30 C 154.02 229.23 154.78 229.98 155.71 229.98 Z M 156.67 229.98 L 157.64 229.98 C 158.57 229.98 159.32 229.22 159.32 228.29 C 159.32 227.36 158.56 226.61 157.63 226.61 L 156.66 226.61 C 155.73 226.62 154.98 227.37 154.98 228.30 C 154.98 229.23 155.74 229.99 156.67 229.98 Z M 157.68 229.98 L 158.69 229.95 C 159.62 229.92 160.35 229.15 160.32 228.22 C 160.29 227.29 159.52 226.55 158.59 226.58 L 157.58 226.61 C 156.65 226.64 155.92 227.42 155.95 228.35 C 155.98 229.28 156.75 230.01 157.68 229.98 Z M 158.79 229.95 L 159.78 229.86 C 160.71 229.78 161.40 228.96 161.31 228.03 C 161.23 227.10 160.41 226.41 159.48 226.50 L 158.49 226.59 C 157.56 226.67 156.87 227.49 156.95 228.42 C 157.04 229.34 157.86 230.03 158.79 229.95 Z M 159.89 229.85 L 160.88 229.70 C 161.80 229.56 162.44 228.69 162.29 227.77 C 162.15 226.85 161.29 226.21 160.36 226.35 L 159.37 226.51 C 158.45 226.65 157.82 227.51 157.96 228.43 C 158.10 229.36 158.97 229.99 159.89 229.85 Z M 160.97 229.69 L 161.97 229.48 C 162.88 229.29 163.47 228.39 163.28 227.47 C 163.09 226.56 162.19 225.97 161.28 226.16 L 160.28 226.37 C 159.36 226.56 158.77 227.45 158.96 228.37 C 159.15 229.29 160.05 229.88 160.97 229.69 Z M 162.04 229.46 L 163.03 229.21 C 163.94 228.98 164.49 228.06 164.26 227.15 C 164.04 226.24 163.11 225.69 162.20 225.92 L 161.21 226.17 C 160.30 226.40 159.75 227.32 159.98 228.23 C 160.20 229.14 161.13 229.69 162.04 229.46 Z M 163.08 229.20 L 164.01 228.94 C 164.91 228.68 165.44 227.74 165.18 226.84 C 164.92 225.94 163.98 225.41 163.08 225.67 L 162.15 225.93 C 161.25 226.19 160.73 227.13 160.99 228.03 C 161.24 228.93 162.18 229.46 163.08 229.20 Z M 164.06 228.92 L 165.05 228.61 C 165.94 228.33 166.44 227.37 166.15 226.48 C 165.87 225.58 164.92 225.09 164.02 225.37 L 163.03 225.68 C 162.14 225.97 161.64 226.92 161.93 227.81 C 162.21 228.71 163.16 229.20 164.06 228.92 Z M 165.11 228.59 L 166.02 228.26 C 166.90 227.94 167.36 226.97 167.04 226.09 C 166.72 225.21 165.75 224.75 164.86 225.07 L 163.96 225.39 C 163.08 225.71 162.62 226.68 162.94 227.57 C 163.26 228.45 164.23 228.91 165.11 228.59 Z M 166.10 228.23 L 167.02 227.84 C 167.88 227.48 168.29 226.48 167.93 225.62 C 167.56 224.75 166.56 224.35 165.70 224.71 L 164.78 225.10 C 163.92 225.46 163.51 226.46 163.87 227.32 C 164.24 228.19 165.24 228.59 166.10 228.23 Z M 167.12 227.80 L 168.00 227.35 C 168.84 226.93 169.18 225.91 168.76 225.07 C 168.35 224.23 167.32 223.89 166.48 224.31 L 165.60 224.76 C 164.76 225.18 164.42 226.20 164.84 227.04 C 165.26 227.88 166.28 228.22 167.12 227.80 Z M 168.05 227.33 L 168.93 226.86 C 169.76 226.41 170.07 225.38 169.63 224.56 C 169.19 223.73 168.16 223.42 167.33 223.86 L 166.44 224.34 C 165.61 224.78 165.30 225.81 165.75 226.64 C 166.19 227.46 167.22 227.78 168.05 227.33 Z M 168.92 226.87 L 169.80 226.41 C 170.64 225.98 170.96 224.95 170.53 224.12 C 170.10 223.28 169.07 222.96 168.24 223.39 L 167.35 223.85 C 166.51 224.28 166.19 225.31 166.62 226.14 C 167.05 226.98 168.08 227.30 168.92 226.87 Z M 169.83 226.40 L 170.72 225.91 C 171.55 225.47 171.85 224.43 171.40 223.60 C 170.95 222.78 169.92 222.47 169.09 222.92 L 168.21 223.40 C 167.38 223.85 167.07 224.88 167.52 225.71 C 167.97 226.54 169.01 226.84 169.83 226.40 Z M 170.78 225.88 L 171.64 225.37 C 172.45 224.88 172.71 223.84 172.22 223.03 C 171.74 222.22 170.69 221.96 169.89 222.44 L 169.03 222.96 C 168.22 223.44 167.96 224.49 168.44 225.29 C 168.93 226.10 169.97 226.36 170.78 225.88 Z M 171.68 225.34 L 172.51 224.82 C 173.30 224.31 173.54 223.26 173.03 222.46 C 172.53 221.67 171.47 221.43 170.68 221.94 L 169.85 222.46 C 169.05 222.97 168.82 224.02 169.32 224.82 C 169.83 225.61 170.88 225.85 171.68 225.34 Z M 172.53 224.80 L 173.37 224.25 C 174.16 223.73 174.38 222.67 173.86 221.88 C 173.34 221.10 172.28 220.88 171.49 221.40 L 170.65 221.95 C 169.87 222.47 169.65 223.53 170.17 224.32 C 170.69 225.10 171.75 225.32 172.53 224.80 Z M 173.40 224.23 L 174.22 223.67 C 175.00 223.14 175.20 222.07 174.67 221.29 C 174.13 220.51 173.07 220.32 172.29 220.85 L 171.47 221.41 C 170.69 221.95 170.49 223.01 171.02 223.79 C 171.56 224.57 172.62 224.77 173.40 224.23 Z M 174.28 223.63 L 175.09 223.03 C 175.85 222.46 176.00 221.39 175.44 220.64 C 174.88 219.88 173.81 219.72 173.05 220.28 L 172.24 220.89 C 171.48 221.45 171.32 222.52 171.88 223.28 C 172.45 224.04 173.52 224.19 174.28 223.63 Z M 175.15 222.98 L 175.92 222.35 C 176.66 221.75 176.76 220.67 176.17 219.94 C 175.57 219.21 174.49 219.10 173.76 219.70 L 172.99 220.33 C 172.26 220.93 172.15 222.01 172.74 222.74 C 173.34 223.47 174.42 223.58 175.15 222.98 Z M 175.96 222.32 L 176.70 221.68 C 177.42 221.06 177.50 219.98 176.88 219.26 C 176.26 218.55 175.18 218.47 174.47 219.09 L 173.72 219.73 C 173.01 220.35 172.93 221.43 173.55 222.14 C 174.16 222.86 175.24 222.94 175.96 222.32 Z M 176.75 221.64 L 177.49 220.95 C 178.18 220.30 178.22 219.22 177.58 218.53 C 176.94 217.84 175.86 217.80 175.16 218.44 L 174.42 219.13 C 173.73 219.77 173.69 220.85 174.33 221.55 C 174.97 222.24 176.06 222.28 176.75 221.64 Z M 177.55 220.89 L 178.24 220.18 C 178.90 219.50 178.89 218.42 178.21 217.76 C 177.53 217.10 176.45 217.11 175.79 217.79 L 175.10 218.50 C 174.44 219.18 174.46 220.26 175.13 220.92 C 175.81 221.58 176.89 221.56 177.55 220.89 Z M 178.31 220.11 L 178.96 219.36 C 179.58 218.65 179.51 217.57 178.80 216.95 C 178.09 216.32 177.01 216.40 176.39 217.11 L 175.73 217.86 C 175.11 218.57 175.18 219.65 175.89 220.27 C 176.60 220.89 177.68 220.82 178.31 220.11 Z M 179.02 219.29 L 179.60 218.55 C 180.18 217.80 180.05 216.72 179.30 216.14 C 178.56 215.56 177.48 215.70 176.90 216.44 L 176.32 217.18 C 175.74 217.93 175.88 219.00 176.62 219.58 C 177.37 220.16 178.44 220.03 179.02 219.29 Z M 179.64 218.50 L 180.26 217.64 C 180.81 216.88 180.64 215.81 179.88 215.25 C 179.11 214.70 178.04 214.87 177.49 215.63 L 176.87 216.49 C 176.31 217.25 176.48 218.32 177.25 218.88 C 178.01 219.43 179.08 219.26 179.64 218.50 Z M 180.27 217.62 L 180.81 216.86 C 181.35 216.08 181.16 215.02 180.39 214.47 C 179.62 213.93 178.55 214.12 178.01 214.89 L 177.47 215.65 C 176.93 216.43 177.12 217.49 177.89 218.04 C 178.66 218.58 179.73 218.39 180.27 217.62 Z M 180.83 216.83 L 181.40 215.98 C 181.93 215.19 181.72 214.13 180.94 213.60 C 180.15 213.07 179.09 213.28 178.56 214.06 L 177.99 214.92 C 177.46 215.70 177.67 216.76 178.45 217.29 C 179.23 217.82 180.30 217.61 180.83 216.83 Z M 181.43 215.94 L 181.99 215.05 C 182.50 214.25 182.26 213.20 181.46 212.69 C 180.67 212.18 179.61 212.42 179.10 213.22 L 178.54 214.10 C 178.03 214.90 178.27 215.96 179.06 216.47 C 179.86 216.97 180.92 216.74 181.43 215.94 Z M 182.02 215.01 L 182.52 214.16 C 183.00 213.35 182.74 212.30 181.92 211.82 C 181.11 211.34 180.06 211.60 179.58 212.41 L 179.07 213.26 C 178.59 214.07 178.86 215.12 179.67 215.60 C 180.48 216.09 181.53 215.82 182.02 215.01 Z M 182.53 214.14 L 183.03 213.27 C 183.50 212.45 183.21 211.40 182.39 210.93 C 181.57 210.47 180.53 210.75 180.06 211.57 L 179.56 212.44 C 179.09 213.26 179.38 214.31 180.20 214.78 C 181.02 215.24 182.07 214.96 182.53 214.14 Z M 183.04 213.26 L 183.54 212.37 C 184.00 211.54 183.70 210.50 182.88 210.04 C 182.06 209.57 181.01 209.87 180.55 210.69 L 180.05 211.58 C 179.59 212.41 179.88 213.45 180.71 213.91 C 181.53 214.38 182.57 214.08 183.04 213.26 Z M 183.54 212.37 L 184.03 211.49 C 184.49 210.67 184.19 209.63 183.37 209.16 C 182.55 208.70 181.50 209.00 181.04 209.82 L 180.55 210.69 C 180.09 211.52 180.38 212.56 181.21 213.02 C 182.03 213.48 183.07 213.19 183.54 212.37 Z M 184.03 211.49 L 184.52 210.61 C 184.98 209.78 184.68 208.74 183.86 208.28 C 183.03 207.82 181.99 208.12 181.53 208.94 L 181.04 209.82 C 180.58 210.65 180.87 211.69 181.70 212.15 C 182.53 212.61 183.57 212.32 184.03 211.49 Z M 184.52 210.60 L 185.00 209.72 C 185.46 208.89 185.15 207.85 184.32 207.40 C 183.49 206.95 182.45 207.25 182.00 208.08 L 181.52 208.96 C 181.07 209.79 181.37 210.83 182.20 211.28 C 183.03 211.73 184.07 211.43 184.52 210.60 Z M 185.01 209.70 L 185.50 208.77 C 185.94 207.94 185.62 206.90 184.79 206.46 C 183.95 206.02 182.92 206.34 182.48 207.18 L 181.99 208.10 C 181.55 208.94 181.87 209.97 182.70 210.41 C 183.54 210.86 184.57 210.54 185.01 209.70 Z M 185.51 208.75 L 185.98 207.84 C 186.41 206.99 186.07 205.96 185.23 205.53 C 184.39 205.11 183.36 205.44 182.93 206.28 L 182.46 207.20 C 182.04 208.04 182.37 209.07 183.21 209.50 C 184.06 209.93 185.09 209.59 185.51 208.75 Z M 185.99 207.82 L 186.41 206.96 C 186.83 206.11 186.48 205.09 185.63 204.67 C 184.79 204.25 183.76 204.60 183.34 205.45 L 182.92 206.30 C 182.50 207.15 182.85 208.18 183.70 208.59 C 184.55 209.01 185.57 208.66 185.99 207.82 Z M 186.42 206.95 L 186.86 206.03 C 187.27 205.18 186.91 204.15 186.06 203.74 C 185.21 203.33 184.19 203.69 183.78 204.54 L 183.34 205.46 C 182.93 206.31 183.28 207.33 184.13 207.75 C 184.99 208.16 186.01 207.80 186.42 206.95 Z M 186.87 206.02 L 187.29 205.12 C 187.69 204.27 187.32 203.25 186.47 202.85 C 185.61 202.44 184.60 202.81 184.19 203.66 L 183.77 204.56 C 183.37 205.41 183.74 206.43 184.59 206.83 C 185.44 207.24 186.46 206.87 186.87 206.02 Z M 187.29 205.11 L 187.69 204.26 C 188.09 203.40 187.71 202.38 186.86 201.98 C 186.00 201.59 184.98 201.96 184.58 202.82 L 184.19 203.67 C 183.79 204.53 184.16 205.55 185.02 205.95 C 185.88 206.34 186.90 205.97 187.29 205.11 Z M 187.70 204.24 L 188.10 203.35 C 188.49 202.49 188.10 201.47 187.23 201.08 C 186.37 200.70 185.35 201.09 184.97 201.95 L 184.57 202.84 C 184.18 203.70 184.57 204.72 185.44 205.10 C 186.30 205.49 187.32 205.10 187.70 204.24 Z M 188.13 203.30 L 188.52 202.34 C 188.88 201.46 188.46 200.45 187.58 200.09 C 186.70 199.73 185.70 200.15 185.34 201.03 L 184.94 202.00 C 184.58 202.88 185.00 203.88 185.88 204.24 C 186.76 204.60 187.77 204.18 188.13 203.30 Z M 188.55 202.28 L 188.87 201.40 C 189.20 200.50 188.74 199.51 187.84 199.19 C 186.95 198.86 185.96 199.32 185.63 200.21 L 185.31 201.09 C 184.98 201.98 185.44 202.97 186.34 203.30 C 187.23 203.63 188.22 203.17 188.55 202.28 Z M 188.89 201.34 L 189.20 200.39 C 189.50 199.48 189.01 198.51 188.11 198.21 C 187.20 197.91 186.23 198.40 185.93 199.31 L 185.61 200.26 C 185.32 201.17 185.81 202.14 186.71 202.44 C 187.61 202.74 188.59 202.25 188.89 201.34 Z M 189.22 200.34 L 189.52 199.32 C 189.79 198.41 189.27 197.45 188.36 197.18 C 187.45 196.91 186.49 197.43 186.22 198.34 L 185.92 199.36 C 185.64 200.27 186.17 201.23 187.08 201.50 C 187.99 201.77 188.95 201.25 189.22 200.34 Z M 189.53 199.28 L 189.80 198.30 C 190.04 197.38 189.49 196.43 188.57 196.19 C 187.65 195.94 186.71 196.49 186.46 197.41 L 186.20 198.39 C 185.96 199.31 186.50 200.25 187.42 200.50 C 188.34 200.74 189.29 200.20 189.53 199.28 Z M 189.80 198.26 L 190.04 197.28 C 190.27 196.35 189.70 195.42 188.78 195.19 C 187.85 194.97 186.92 195.54 186.69 196.46 L 186.45 197.44 C 186.23 198.37 186.80 199.30 187.72 199.53 C 188.65 199.75 189.58 199.18 189.80 198.26 Z M 190.05 197.24 L 190.26 196.30 C 190.47 195.37 189.89 194.45 188.96 194.24 C 188.03 194.03 187.11 194.61 186.90 195.54 L 186.69 196.49 C 186.48 197.42 187.06 198.34 187.99 198.55 C 188.92 198.76 189.84 198.17 190.05 197.24 Z M 190.27 196.27 L 190.48 195.26 C 190.67 194.33 190.06 193.42 189.13 193.23 C 188.20 193.04 187.29 193.64 187.10 194.57 L 186.89 195.57 C 186.70 196.51 187.30 197.42 188.24 197.61 C 189.17 197.80 190.08 197.20 190.27 196.27 Z M 190.48 195.22 L 190.66 194.25 C 190.82 193.31 190.20 192.42 189.26 192.25 C 188.32 192.09 187.43 192.71 187.26 193.65 L 187.09 194.62 C 186.92 195.55 187.55 196.45 188.48 196.61 C 189.42 196.78 190.32 196.16 190.48 195.22 Z M 190.66 194.20 L 190.81 193.21 C 190.95 192.27 190.30 191.40 189.35 191.26 C 188.41 191.12 187.54 191.77 187.40 192.71 L 187.25 193.70 C 187.11 194.64 187.76 195.52 188.71 195.66 C 189.65 195.80 190.52 195.14 190.66 194.20 Z M 190.81 193.17 L 190.94 192.15 C 191.06 191.20 190.39 190.34 189.44 190.23 C 188.50 190.11 187.63 190.78 187.52 191.73 L 187.39 192.75 C 187.28 193.70 187.95 194.56 188.89 194.67 C 189.84 194.79 190.70 194.12 190.81 193.17 Z M 190.94 192.13 L 191.05 191.14 C 191.16 190.19 190.48 189.34 189.53 189.23 C 188.58 189.13 187.73 189.81 187.63 190.76 L 187.52 191.75 C 187.41 192.69 188.09 193.55 189.04 193.65 C 189.99 193.76 190.84 193.07 190.94 192.13 Z M 191.05 191.14 L 191.17 190.10 C 191.27 189.16 190.59 188.30 189.64 188.20 C 188.70 188.09 187.84 188.78 187.74 189.72 L 187.63 190.76 C 187.52 191.70 188.20 192.56 189.15 192.66 C 190.10 192.77 190.95 192.08 191.05 191.14 Z M 191.17 190.11 L 191.28 189.13 C 191.39 188.19 190.71 187.33 189.76 187.22 C 188.81 187.12 187.96 187.80 187.85 188.74 L 187.74 189.72 C 187.63 190.66 188.31 191.52 189.26 191.63 C 190.21 191.74 191.06 191.06 191.17 190.11 Z M 191.28 189.13 L 191.38 188.17 C 191.49 187.22 190.80 186.37 189.86 186.27 C 188.91 186.16 188.06 186.85 187.95 187.80 L 187.85 188.75 C 187.75 189.70 188.43 190.55 189.38 190.65 C 190.32 190.76 191.18 190.07 191.28 189.13 Z M 191.39 188.14 L 191.48 187.16 C 191.57 186.21 190.87 185.37 189.92 185.28 C 188.97 185.19 188.13 185.89 188.04 186.84 L 187.95 187.83 C 187.86 188.77 188.56 189.61 189.51 189.70 C 190.46 189.79 191.30 189.09 191.39 188.14 Z M 191.48 187.11 L 191.55 186.12 C 191.61 185.16 190.88 184.34 189.93 184.28 C 188.98 184.22 188.16 184.95 188.10 185.90 L 188.04 186.89 C 187.98 187.84 188.70 188.66 189.65 188.72 C 190.60 188.78 191.42 188.06 191.48 187.11 Z M 191.55 186.09 L 191.59 185.12 C 191.64 184.17 190.90 183.36 189.95 183.31 C 189.00 183.27 188.19 184.00 188.15 184.96 L 188.10 185.93 C 188.05 186.88 188.79 187.69 189.74 187.73 C 190.69 187.78 191.50 187.04 191.55 186.09 Z M 191.59 185.12 L 191.64 184.17 C 191.68 183.22 190.95 182.41 189.99 182.37 C 189.04 182.32 188.23 183.06 188.19 184.01 L 188.15 184.96 C 188.10 185.91 188.84 186.72 189.79 186.76 C 190.74 186.81 191.55 186.07 191.59 185.12 Z M 191.64 184.18 L 191.69 183.12 C 191.74 182.16 191.01 181.35 190.05 181.31 C 189.10 181.26 188.29 181.99 188.24 182.94 L 188.19 184.01 C 188.14 184.96 188.87 185.77 189.83 185.82 C 190.78 185.86 191.59 185.13 191.64 184.18 Z M 191.69 183.12 L 191.74 182.10 C 191.79 181.14 191.06 180.33 190.11 180.28 C 189.16 180.23 188.35 180.96 188.30 181.91 L 188.24 182.94 C 188.19 183.89 188.92 184.70 189.88 184.75 C 190.83 184.80 191.64 184.07 191.69 183.12 Z M 191.74 182.10 L 191.80 181.09 C 191.85 180.14 191.12 179.33 190.16 179.28 C 189.21 179.23 188.40 179.96 188.35 180.91 L 188.30 181.91 C 188.25 182.87 188.98 183.68 189.93 183.73 C 190.88 183.78 191.69 183.05 191.74 182.10 Z M 191.80 181.09 L 191.85 180.05 C 191.90 179.10 191.16 178.29 190.21 178.24 C 189.26 178.19 188.45 178.93 188.40 179.88 L 188.35 180.91 C 188.30 181.87 189.03 182.68 189.99 182.72 C 190.94 182.77 191.75 182.04 191.80 181.09 Z M 191.85 180.06 L 191.90 179.10 C 191.95 178.15 191.22 177.34 190.26 177.29 C 189.31 177.24 188.50 177.97 188.45 178.92 L 188.40 179.88 C 188.35 180.83 189.08 181.64 190.04 181.69 C 190.99 181.74 191.80 181.01 191.85 180.06 Z M 191.90 179.11 L 191.95 178.19 C 192.01 177.24 191.28 176.42 190.33 176.37 C 189.37 176.31 188.56 177.04 188.50 177.99 L 188.45 178.92 C 188.40 179.87 189.13 180.68 190.08 180.74 C 191.03 180.79 191.84 180.06 191.90 179.11 Z M 191.95 178.18 L 192.00 177.15 C 192.05 176.20 191.31 175.39 190.36 175.34 C 189.41 175.30 188.60 176.03 188.55 176.98 L 188.50 178.01 C 188.46 178.96 189.19 179.77 190.14 179.82 C 191.10 179.86 191.91 179.13 191.95 178.18 Z M 192.00 177.11 L 192.03 176.06 C 192.06 175.11 191.31 174.31 190.35 174.29 C 189.40 174.26 188.61 175.01 188.58 175.97 L 188.55 177.02 C 188.53 177.97 189.28 178.77 190.23 178.79 C 191.18 178.82 191.98 178.07 192.00 177.11 Z M 192.03 176.03 L 192.04 175.01 C 192.05 174.05 191.29 173.27 190.33 173.26 C 189.38 173.25 188.60 174.02 188.59 174.97 L 188.58 176.00 C 188.57 176.95 189.34 177.73 190.29 177.74 C 191.24 177.75 192.02 176.99 192.03 176.03 Z M 192.04 174.99 L 192.04 174.01 C 192.05 173.06 191.27 172.29 190.32 172.28 C 189.37 172.28 188.59 173.05 188.59 174.01 L 188.59 174.99 C 188.59 175.94 189.36 176.71 190.31 176.72 C 191.27 176.72 192.04 175.95 192.04 174.99 Z M 192.04 174.01 L 192.04 172.95 C 192.04 172.00 191.27 171.22 190.32 171.22 C 189.36 171.22 188.59 172.00 188.59 172.95 L 188.59 174.01 C 188.59 174.96 189.36 175.74 190.32 175.74 C 191.27 175.74 192.04 174.96 192.04 174.01 Z M 192.04 172.95 L 192.04 172.00 C 192.04 171.05 191.27 170.28 190.32 170.28 C 189.36 170.28 188.59 171.05 188.59 172.00 L 188.59 172.95 C 188.59 173.90 189.36 174.68 190.32 174.68 C 191.27 174.68 192.04 173.90 192.04 172.95 Z M 192.04 172.00 L 192.04 171.18 C 192.04 170.23 191.27 169.45 190.32 169.45 C 189.36 169.45 188.59 170.23 188.59 171.18 L 188.59 172.00 C 188.59 172.96 189.36 173.73 190.32 173.73 C 191.27 173.73 192.04 172.96 192.04 172.00 Z M 192.04 171.18 L 192.04 170.19 C 192.04 169.24 191.27 168.47 190.32 168.47 C 189.36 168.47 188.59 169.24 188.59 170.19 L 188.59 171.18 C 188.59 172.13 189.36 172.91 190.32 172.91 C 191.27 172.91 192.04 172.13 192.04 171.18 Z M 192.04 170.19 L 192.04 169.10 C 192.04 168.14 191.27 167.37 190.32 167.37 C 189.36 167.37 188.59 168.14 188.59 169.10 L 188.59 170.19 C 188.59 171.15 189.36 171.92 190.32 171.92 C 191.27 171.92 192.04 171.15 192.04 170.19 Z M 192.04 169.09 L 192.04 168.18 C 192.04 167.23 191.27 166.46 190.32 166.46 C 189.36 166.46 188.59 167.23 188.59 168.18 L 188.59 169.10 C 188.59 170.05 189.37 170.82 190.32 170.82 C 191.27 170.82 192.05 170.05 192.04 169.09 Z M 192.04 168.18 L 192.04 167.16 C 192.04 166.21 191.26 165.44 190.31 165.44 C 189.36 165.45 188.58 166.22 188.59 167.17 L 188.59 168.19 C 188.59 169.14 189.37 169.91 190.32 169.91 C 191.28 169.91 192.05 169.13 192.04 168.18 Z M 192.04 167.16 L 192.03 166.09 C 192.03 165.14 191.25 164.37 190.30 164.37 C 189.34 164.38 188.57 165.16 188.58 166.11 L 188.59 167.18 C 188.59 168.13 189.37 168.90 190.33 168.90 C 191.28 168.89 192.05 168.11 192.04 167.16 Z M 192.03 166.08 L 192.02 165.00 C 192.01 164.05 191.23 163.28 190.27 163.30 C 189.32 163.31 188.56 164.09 188.57 165.04 L 188.58 166.12 C 188.59 167.07 189.37 167.84 190.33 167.83 C 191.28 167.82 192.04 167.03 192.03 166.08 Z M 192.02 164.99 L 192.00 163.85 C 191.98 162.89 191.19 162.14 190.24 162.15 C 189.29 162.17 188.53 162.96 188.55 163.91 L 188.57 165.05 C 188.59 166.01 189.37 166.77 190.33 166.75 C 191.28 166.73 192.04 165.94 192.02 164.99 Z M 192.00 163.84 L 191.97 162.76 C 191.95 161.81 191.16 161.05 190.20 161.08 C 189.25 161.10 188.50 161.89 188.52 162.85 L 188.55 163.92 C 188.57 164.88 189.36 165.63 190.32 165.61 C 191.27 165.58 192.02 164.79 192.00 163.84 Z M 191.97 162.76 L 191.95 161.78 C 191.92 160.83 191.13 160.08 190.17 160.10 C 189.22 160.13 188.47 160.92 188.49 161.88 L 188.52 162.85 C 188.55 163.80 189.34 164.56 190.29 164.53 C 191.25 164.50 192.00 163.71 191.97 162.76 Z M 191.95 161.78 L 191.92 160.94 C 191.90 159.99 191.10 159.24 190.15 159.26 C 189.20 159.29 188.45 160.08 188.47 161.03 L 188.49 161.88 C 188.52 162.83 189.31 163.58 190.27 163.56 C 191.22 163.53 191.97 162.74 191.95 161.78 Z M 191.92 160.95 L 191.90 159.92 C 191.88 158.97 191.09 158.21 190.14 158.23 C 189.19 158.25 188.43 159.04 188.45 159.99 L 188.47 161.02 C 188.49 161.98 189.28 162.73 190.23 162.71 C 191.19 162.69 191.94 161.90 191.92 160.95 Z M 191.90 159.92 L 191.88 158.99 C 191.86 158.04 191.07 157.28 190.11 157.30 C 189.16 157.32 188.41 158.11 188.43 159.07 L 188.45 160.00 C 188.47 160.95 189.26 161.70 190.21 161.68 C 191.17 161.66 191.92 160.87 191.90 159.92 Z M 191.88 158.96 L 191.84 158.01 C 191.80 157.06 191.00 156.32 190.05 156.35 C 189.09 156.39 188.35 157.19 188.39 158.15 L 188.43 159.10 C 188.47 160.05 189.27 160.79 190.22 160.75 C 191.18 160.71 191.92 159.91 191.88 158.96 Z M 191.84 157.98 L 191.79 157.04 C 191.73 156.09 190.92 155.36 189.97 155.41 C 189.02 155.46 188.29 156.28 188.34 157.23 L 188.39 158.17 C 188.45 159.13 189.26 159.85 190.21 159.80 C 191.16 159.75 191.89 158.93 191.84 157.98 Z M 191.79 157.02 L 191.72 155.98 C 191.65 155.03 190.83 154.31 189.88 154.37 C 188.93 154.44 188.21 155.26 188.27 156.21 L 188.34 157.25 C 188.41 158.20 189.23 158.92 190.18 158.86 C 191.13 158.79 191.85 157.97 191.79 157.02 Z M 191.72 155.96 L 191.63 154.89 C 191.55 153.94 190.72 153.23 189.77 153.31 C 188.82 153.38 188.11 154.21 188.19 155.17 L 188.27 156.23 C 188.35 157.18 189.18 157.89 190.13 157.82 C 191.08 157.74 191.79 156.91 191.72 155.96 Z M 191.63 154.87 L 191.52 153.76 C 191.43 152.81 190.59 152.11 189.64 152.20 C 188.69 152.29 187.99 153.14 188.08 154.08 L 188.19 155.19 C 188.28 156.14 189.12 156.84 190.07 156.75 C 191.02 156.66 191.72 155.81 191.63 154.87 Z M 191.52 153.73 L 191.41 152.71 C 191.30 151.76 190.45 151.08 189.50 151.18 C 188.55 151.29 187.87 152.14 187.97 153.09 L 188.09 154.11 C 188.19 155.06 189.04 155.74 189.99 155.64 C 190.94 155.54 191.63 154.68 191.52 153.73 Z M 191.41 152.68 L 191.29 151.80 C 191.17 150.85 190.31 150.18 189.36 150.30 C 188.41 150.42 187.74 151.29 187.86 152.23 L 187.98 153.12 C 188.10 154.07 188.96 154.74 189.91 154.62 C 190.86 154.50 191.53 153.63 191.41 152.68 Z M 191.29 151.74 L 191.12 150.69 C 190.97 149.75 190.09 149.11 189.14 149.25 C 188.20 149.40 187.56 150.29 187.70 151.23 L 187.87 152.28 C 188.02 153.23 188.91 153.87 189.85 153.72 C 190.79 153.57 191.44 152.69 191.29 151.74 Z M 191.11 150.60 L 190.91 149.71 C 190.71 148.77 189.79 148.18 188.85 148.38 C 187.92 148.58 187.33 149.50 187.53 150.44 L 187.72 151.33 C 187.92 152.26 188.84 152.86 189.78 152.66 C 190.71 152.45 191.31 151.53 191.11 150.60 Z M 190.90 149.63 L 190.67 148.78 C 190.43 147.85 189.48 147.30 188.55 147.54 C 187.63 147.79 187.08 148.73 187.32 149.66 L 187.54 150.51 C 187.79 151.44 188.74 151.99 189.66 151.75 C 190.59 151.50 191.14 150.55 190.90 149.63 Z M 190.66 148.73 L 190.36 147.71 C 190.09 146.79 189.13 146.27 188.21 146.53 C 187.29 146.80 186.77 147.76 187.03 148.68 L 187.33 149.70 C 187.60 150.62 188.56 151.15 189.48 150.88 C 190.40 150.61 190.93 149.65 190.66 148.73 Z M 190.36 147.69 L 190.06 146.70 C 189.78 145.79 188.81 145.27 187.89 145.55 C 186.98 145.83 186.46 146.79 186.74 147.71 L 187.04 148.70 C 187.32 149.62 188.29 150.13 189.20 149.86 C 190.12 149.58 190.64 148.61 190.36 147.69 Z M 190.06 146.70 L 189.75 145.70 C 189.47 144.79 188.50 144.27 187.59 144.55 C 186.67 144.83 186.16 145.80 186.43 146.72 L 186.74 147.71 C 187.02 148.63 187.99 149.14 188.90 148.86 C 189.82 148.59 190.33 147.62 190.06 146.70 Z M 189.76 145.72 L 189.48 144.78 C 189.21 143.86 188.24 143.34 187.32 143.61 C 186.40 143.89 185.88 144.85 186.15 145.77 L 186.43 146.70 C 186.70 147.62 187.67 148.15 188.59 147.87 C 189.50 147.60 190.03 146.64 189.76 145.72 Z M 189.49 144.82 L 189.20 143.76 C 188.95 142.84 188.00 142.29 187.08 142.54 C 186.15 142.79 185.60 143.74 185.85 144.67 L 186.14 145.73 C 186.39 146.65 187.34 147.20 188.27 146.95 C 189.19 146.70 189.74 145.75 189.49 144.82 Z M 189.22 143.83 L 189.02 142.96 C 188.81 142.02 187.88 141.44 186.95 141.65 C 186.01 141.86 185.43 142.79 185.64 143.72 L 185.84 144.60 C 186.05 145.53 186.98 146.12 187.91 145.91 C 188.85 145.69 189.43 144.77 189.22 143.83 Z M 189.03 143.00 L 188.87 142.17 C 188.68 141.23 187.77 140.61 186.83 140.80 C 185.89 140.99 185.28 141.90 185.46 142.84 L 185.63 143.68 C 185.82 144.62 186.73 145.23 187.67 145.04 C 188.61 144.85 189.22 143.94 189.03 143.00 Z M 188.86 142.15 L 188.64 141.07 C 188.45 140.13 187.53 139.53 186.59 139.72 C 185.65 139.91 185.05 140.83 185.24 141.77 L 185.47 142.85 C 185.66 143.79 186.58 144.40 187.52 144.20 C 188.45 144.01 189.06 143.09 188.86 142.15 Z M 188.64 141.04 L 188.43 140.11 C 188.22 139.18 187.29 138.59 186.36 138.80 C 185.42 139.01 184.83 139.93 185.04 140.87 L 185.25 141.80 C 185.46 142.73 186.38 143.32 187.32 143.11 C 188.26 142.90 188.84 141.98 188.64 141.04 Z M 188.42 140.10 L 188.19 139.11 C 187.98 138.17 187.04 137.59 186.11 137.81 C 185.18 138.03 184.60 138.96 184.81 139.90 L 185.05 140.88 C 185.26 141.82 186.20 142.40 187.13 142.18 C 188.06 141.96 188.64 141.03 188.42 140.10 Z M 188.19 139.09 L 187.94 138.07 C 187.72 137.14 186.78 136.57 185.85 136.79 C 184.92 137.02 184.34 137.95 184.57 138.88 L 184.82 139.91 C 185.04 140.84 185.98 141.41 186.91 141.19 C 187.84 140.96 188.42 140.03 188.19 139.09 Z M 187.94 138.06 L 187.68 137.00 C 187.44 136.08 186.50 135.51 185.57 135.74 C 184.64 135.98 184.08 136.92 184.31 137.85 L 184.57 138.90 C 184.81 139.83 185.75 140.39 186.68 140.16 C 187.61 139.93 188.17 138.98 187.94 138.06 Z M 187.67 136.99 L 187.40 135.95 C 187.16 135.02 186.21 134.47 185.28 134.71 C 184.35 134.96 183.80 135.91 184.04 136.83 L 184.31 137.87 C 184.56 138.79 185.51 139.35 186.43 139.10 C 187.36 138.86 187.91 137.91 187.67 136.99 Z M 187.39 135.93 L 187.14 135.02 C 186.88 134.09 185.92 133.55 185.00 133.81 C 184.08 134.07 183.54 135.03 183.80 135.95 L 184.05 136.86 C 184.31 137.78 185.26 138.32 186.19 138.06 C 187.11 137.81 187.65 136.85 187.39 135.93 Z M 187.13 134.98 L 186.85 134.05 C 186.57 133.13 185.60 132.61 184.68 132.89 C 183.77 133.17 183.25 134.14 183.52 135.05 L 183.81 135.99 C 184.08 136.90 185.05 137.42 185.97 137.14 C 186.89 136.87 187.41 135.90 187.13 134.98 Z M 186.83 134.00 L 186.51 133.06 C 186.21 132.15 185.23 131.66 184.32 131.97 C 183.41 132.27 182.92 133.25 183.22 134.16 L 183.54 135.10 C 183.85 136.01 184.83 136.50 185.74 136.20 C 186.65 135.89 187.14 134.91 186.83 134.00 Z M 186.50 133.02 L 186.17 132.11 C 185.84 131.21 184.85 130.75 183.95 131.08 C 183.05 131.40 182.58 132.40 182.91 133.30 L 183.24 134.20 C 183.57 135.10 184.56 135.57 185.46 135.24 C 186.36 134.91 186.83 133.92 186.50 133.02 Z M 186.16 132.09 L 185.81 131.15 C 185.46 130.25 184.46 129.80 183.57 130.14 C 182.67 130.49 182.22 131.49 182.56 132.38 L 182.92 133.32 C 183.26 134.22 184.26 134.67 185.16 134.33 C 186.05 133.99 186.50 132.98 186.16 132.09 Z M 185.80 131.13 L 185.44 130.23 C 185.09 129.34 184.08 128.90 183.19 129.25 C 182.30 129.60 181.86 130.61 182.21 131.50 L 182.57 132.40 C 182.92 133.29 183.93 133.73 184.82 133.38 C 185.71 133.03 186.15 132.02 185.80 131.13 Z M 185.43 130.21 L 185.06 129.29 C 184.69 128.40 183.68 127.97 182.79 128.34 C 181.91 128.70 181.48 129.71 181.84 130.60 L 182.22 131.52 C 182.58 132.41 183.60 132.83 184.48 132.47 C 185.37 132.11 185.80 131.09 185.43 130.21 Z M 185.05 129.27 L 184.66 128.34 C 184.29 127.46 183.27 127.04 182.39 127.42 C 181.51 127.79 181.09 128.80 181.46 129.69 L 181.85 130.61 C 182.22 131.50 183.24 131.91 184.12 131.54 C 185.01 131.17 185.42 130.15 185.05 129.27 Z M 184.65 128.32 L 184.24 127.38 C 183.86 126.51 182.83 126.11 181.95 126.49 C 181.08 126.88 180.68 127.90 181.06 128.78 L 181.47 129.71 C 181.86 130.59 182.88 130.99 183.76 130.61 C 184.64 130.22 185.04 129.20 184.65 128.32 Z M 184.22 127.33 L 183.78 126.40 C 183.37 125.54 182.33 125.17 181.46 125.58 C 180.59 125.99 180.22 127.03 180.64 127.90 L 181.08 128.83 C 181.50 129.70 182.53 130.07 183.40 129.65 C 184.27 129.24 184.64 128.20 184.22 127.33 Z M 183.76 126.36 L 183.31 125.48 C 182.87 124.63 181.82 124.29 180.97 124.73 C 180.11 125.17 179.77 126.22 180.21 127.07 L 180.66 127.94 C 181.10 128.80 182.15 129.14 183.00 128.70 C 183.86 128.26 184.19 127.21 183.76 126.36 Z M 183.31 125.48 L 182.85 124.59 C 182.41 123.74 181.36 123.40 180.51 123.84 C 179.65 124.28 179.32 125.33 179.76 126.18 L 180.21 127.07 C 180.65 127.93 181.70 128.26 182.55 127.82 C 183.41 127.39 183.75 126.34 183.31 125.48 Z M 182.85 124.58 L 182.39 123.71 C 181.95 122.86 180.90 122.53 180.05 122.97 C 179.20 123.41 178.86 124.47 179.31 125.32 L 179.76 126.19 C 180.20 127.04 181.25 127.37 182.11 126.93 C 182.96 126.49 183.29 125.44 182.85 124.58 Z M 182.37 123.67 L 181.91 122.85 C 181.45 122.01 180.39 121.70 179.55 122.17 C 178.71 122.64 178.41 123.70 178.87 124.54 L 179.33 125.36 C 179.80 126.20 180.85 126.50 181.69 126.04 C 182.53 125.57 182.84 124.51 182.37 123.67 Z M 181.91 122.85 L 181.41 121.93 C 180.94 121.09 179.88 120.79 179.04 121.26 C 178.20 121.73 177.90 122.79 178.37 123.63 L 178.87 124.54 C 179.34 125.38 180.40 125.68 181.24 125.21 C 182.08 124.74 182.38 123.69 181.91 122.85 Z M 181.42 121.95 L 180.93 121.06 C 180.48 120.21 179.42 119.90 178.58 120.35 C 177.73 120.81 177.42 121.86 177.87 122.71 L 178.35 123.61 C 178.81 124.45 179.86 124.77 180.71 124.31 C 181.56 123.86 181.87 122.80 181.42 121.95 Z M 180.94 121.07 L 180.48 120.19 C 180.03 119.34 178.98 119.01 178.13 119.46 C 177.28 119.91 176.95 120.96 177.40 121.81 L 177.86 122.70 C 178.31 123.55 179.36 123.87 180.21 123.42 C 181.06 122.97 181.39 121.92 180.94 121.07 Z M 180.48 120.21 L 180.00 119.27 C 179.56 118.42 178.52 118.08 177.66 118.52 C 176.81 118.96 176.47 120.01 176.91 120.86 L 177.39 121.80 C 177.83 122.65 178.88 122.99 179.73 122.55 C 180.59 122.11 180.92 121.06 180.48 120.21 Z M 180.01 119.29 L 179.59 118.45 C 179.16 117.59 178.11 117.24 177.25 117.67 C 176.39 118.10 176.05 119.15 176.48 120.01 L 176.90 120.85 C 177.33 121.71 178.38 122.05 179.24 121.62 C 180.10 121.19 180.44 120.14 180.01 119.29 Z M 179.60 118.46 L 179.16 117.56 C 178.73 116.70 177.69 116.35 176.83 116.77 C 175.96 117.19 175.61 118.24 176.03 119.10 L 176.47 119.99 C 176.90 120.86 177.94 121.21 178.80 120.79 C 179.66 120.37 180.02 119.32 179.60 118.46 Z M 179.17 117.60 L 178.75 116.69 C 178.35 115.82 177.31 115.44 176.44 115.84 C 175.57 116.24 175.19 117.28 175.59 118.15 L 176.02 119.06 C 176.42 119.93 177.45 120.31 178.33 119.91 C 179.20 119.51 179.58 118.47 179.17 117.60 Z M 178.76 116.71 L 178.35 115.80 C 177.96 114.92 176.93 114.52 176.06 114.91 C 175.18 115.31 174.78 116.33 175.17 117.21 L 175.58 118.13 C 175.97 119.00 177.00 119.40 177.88 119.01 C 178.76 118.62 179.15 117.59 178.76 116.71 Z M 178.35 115.78 L 177.93 114.87 C 177.53 114.00 176.50 113.61 175.63 114.01 C 174.75 114.41 174.37 115.44 174.76 116.31 L 175.18 117.23 C 175.58 118.10 176.61 118.49 177.49 118.09 C 178.36 117.69 178.75 116.66 178.35 115.78 Z M 177.93 114.87 L 177.52 113.96 C 177.12 113.09 176.08 112.70 175.21 113.10 C 174.34 113.50 173.95 114.53 174.35 115.40 L 174.77 116.31 C 175.16 117.19 176.20 117.57 177.07 117.17 C 177.94 116.78 178.33 115.74 177.93 114.87 Z M 177.53 113.99 L 177.14 113.08 C 176.75 112.20 175.73 111.80 174.85 112.18 C 173.97 112.56 173.56 113.59 173.94 114.47 L 174.34 115.37 C 174.72 116.26 175.74 116.66 176.62 116.28 C 177.51 115.90 177.91 114.87 177.53 113.99 Z M 177.15 113.12 L 176.77 112.19 C 176.41 111.30 175.40 110.87 174.51 111.23 C 173.61 111.59 173.19 112.61 173.55 113.50 L 173.93 114.43 C 174.29 115.32 175.30 115.75 176.19 115.39 C 177.08 115.02 177.51 114.01 177.15 113.12 Z M 176.78 112.21 L 176.42 111.27 C 176.07 110.38 175.06 109.93 174.16 110.28 C 173.27 110.63 172.83 111.64 173.17 112.54 L 173.54 113.47 C 173.89 114.37 174.90 114.81 175.79 114.46 C 176.69 114.11 177.13 113.10 176.78 112.21 Z M 176.41 111.26 L 176.04 110.32 C 175.68 109.43 174.67 109.00 173.78 109.35 C 172.89 109.71 172.45 110.72 172.81 111.61 L 173.18 112.55 C 173.54 113.44 174.55 113.88 175.44 113.52 C 176.33 113.16 176.77 112.15 176.41 111.26 Z M 176.03 110.30 L 175.64 109.38 C 175.27 108.49 174.26 108.07 173.37 108.44 C 172.48 108.81 172.06 109.83 172.43 110.71 L 172.82 111.64 C 173.18 112.52 174.20 112.94 175.09 112.57 C 175.98 112.21 176.40 111.19 176.03 110.30 Z M 175.65 109.39 L 175.29 108.51 C 174.93 107.62 173.92 107.19 173.02 107.55 C 172.13 107.91 171.71 108.93 172.07 109.82 L 172.43 110.70 C 172.79 111.59 173.80 112.02 174.69 111.66 C 175.58 111.30 176.01 110.28 175.65 109.39 Z M 175.30 108.53 L 174.94 107.60 C 174.59 106.71 173.58 106.27 172.68 106.62 C 171.79 106.97 171.35 107.98 171.70 108.87 L 172.06 109.80 C 172.41 110.69 173.42 111.13 174.31 110.78 C 175.21 110.43 175.65 109.42 175.30 108.53 Z M 174.93 107.60 L 174.56 106.65 C 174.21 105.75 173.20 105.32 172.30 105.67 C 171.41 106.02 170.97 107.03 171.32 107.93 L 171.70 108.88 C 172.05 109.77 173.06 110.21 173.96 109.85 C 174.85 109.50 175.29 108.49 174.93 107.60 Z M 174.55 106.63 L 174.17 105.69 C 173.80 104.80 172.79 104.37 171.90 104.73 C 171.01 105.09 170.58 106.11 170.95 107.00 L 171.33 107.94 C 171.69 108.83 172.71 109.26 173.60 108.90 C 174.49 108.54 174.92 107.52 174.55 106.63 Z M 174.16 105.66 L 173.75 104.72 C 173.38 103.83 172.35 103.42 171.47 103.80 C 170.59 104.18 170.18 105.20 170.55 106.08 L 170.96 107.03 C 171.33 107.91 172.36 108.32 173.24 107.94 C 174.12 107.57 174.53 106.54 174.16 105.66 Z M 173.72 104.65 L 173.28 103.73 C 172.87 102.86 171.83 102.49 170.96 102.90 C 170.10 103.32 169.73 104.36 170.14 105.22 L 170.58 106.15 C 171.00 107.01 172.03 107.38 172.90 106.97 C 173.77 106.56 174.14 105.52 173.72 104.65 Z M 173.20 103.57 L 172.71 102.75 C 172.21 101.93 171.14 101.67 170.32 102.16 C 169.50 102.66 169.23 103.73 169.73 104.55 L 170.22 105.37 C 170.72 106.20 171.79 106.46 172.61 105.96 C 173.44 105.47 173.70 104.40 173.20 103.57 Z M 172.56 102.54 L 171.91 101.76 C 171.29 101.02 170.20 100.92 169.46 101.53 C 168.72 102.15 168.62 103.24 169.23 103.98 L 169.88 104.77 C 170.49 105.50 171.59 105.61 172.33 104.99 C 173.07 104.38 173.17 103.28 172.56 102.54 Z M 171.70 101.55 L 170.94 100.91 C 170.21 100.28 169.11 100.37 168.49 101.10 C 167.87 101.84 167.96 102.93 168.69 103.56 L 169.44 104.20 C 170.17 104.82 171.27 104.73 171.89 104.00 C 172.52 103.27 172.43 102.17 171.70 101.55 Z M 170.71 100.74 L 169.86 100.23 C 169.04 99.74 167.97 100.00 167.47 100.83 C 166.98 101.65 167.25 102.72 168.07 103.21 L 168.92 103.72 C 169.75 104.22 170.82 103.95 171.31 103.13 C 171.80 102.30 171.53 101.23 170.71 100.74 Z M 169.73 100.16 L 168.84 99.72 C 167.98 99.30 166.94 99.65 166.51 100.51 C 166.09 101.38 166.44 102.42 167.30 102.84 L 168.20 103.28 C 169.06 103.71 170.10 103.35 170.53 102.49 C 170.95 101.63 170.60 100.59 169.73 100.16 Z M 168.81 99.71 L 167.91 99.28 C 167.04 98.87 166.01 99.25 165.60 100.12 C 165.19 100.99 165.56 102.02 166.43 102.43 L 167.33 102.86 C 168.20 103.27 169.24 102.89 169.65 102.02 C 170.06 101.15 169.68 100.12 168.81 99.71 Z M 167.94 99.30 L 167.05 98.85 C 166.19 98.43 165.14 98.78 164.72 99.64 C 164.29 100.50 164.64 101.54 165.50 101.97 L 166.40 102.42 C 167.26 102.84 168.30 102.49 168.73 101.63 C 169.16 100.77 168.80 99.73 167.94 99.30 Z M 167.12 98.89 L 166.26 98.41 C 165.42 97.95 164.36 98.25 163.89 99.09 C 163.43 99.94 163.73 100.99 164.57 101.46 L 165.43 101.93 C 166.27 102.40 167.33 102.10 167.80 101.25 C 168.26 100.41 167.96 99.36 167.12 98.89 Z M 166.29 98.43 L 165.42 97.92 C 164.59 97.44 163.52 97.72 163.04 98.55 C 162.55 99.38 162.83 100.44 163.66 100.93 L 164.54 101.44 C 165.37 101.92 166.43 101.64 166.92 100.81 C 167.40 99.98 167.12 98.92 166.29 98.43 Z M 165.39 97.91 L 164.53 97.43 C 163.69 96.96 162.63 97.25 162.16 98.09 C 161.69 98.93 161.99 99.99 162.83 100.46 L 163.69 100.94 C 164.53 101.41 165.59 101.12 166.06 100.28 C 166.53 99.44 166.23 98.38 165.39 97.91 Z M 164.46 97.39 L 163.54 96.93 C 162.68 96.50 161.63 96.85 161.20 97.71 C 160.78 98.57 161.12 99.61 161.98 100.04 L 162.90 100.50 C 163.76 100.93 164.81 100.58 165.24 99.72 C 165.66 98.86 165.32 97.82 164.46 97.39 Z M 163.42 96.88 L 162.49 96.49 C 161.60 96.13 160.59 96.55 160.22 97.44 C 159.85 98.33 160.28 99.35 161.17 99.71 L 162.10 100.09 C 162.99 100.46 164.00 100.04 164.37 99.15 C 164.74 98.26 164.31 97.24 163.42 96.88 Z M 162.33 96.44 L 161.38 96.15 C 160.46 95.87 159.49 96.39 159.21 97.31 C 158.93 98.23 159.45 99.20 160.37 99.48 L 161.32 99.77 C 162.24 100.05 163.22 99.53 163.49 98.61 C 163.77 97.69 163.25 96.72 162.33 96.44 Z M 161.28 96.12 L 160.31 95.89 C 159.38 95.67 158.44 96.25 158.22 97.19 C 158.00 98.12 158.58 99.06 159.51 99.28 L 160.48 99.51 C 161.41 99.73 162.35 99.15 162.57 98.21 C 162.79 97.28 162.21 96.34 161.28 96.12 Z M 160.38 95.90 L 159.42 95.64 C 158.49 95.38 157.53 95.93 157.27 96.86 C 157.01 97.79 157.56 98.75 158.49 99.00 L 159.45 99.27 C 160.38 99.53 161.34 98.98 161.60 98.05 C 161.85 97.12 161.31 96.16 160.38 95.90 Z M 159.53 95.66 L 158.58 95.33 C 157.67 95.02 156.67 95.50 156.35 96.42 C 156.03 97.34 156.52 98.34 157.44 98.65 L 158.38 98.98 C 159.30 99.30 160.30 98.81 160.61 97.89 C 160.93 96.98 160.44 95.98 159.53 95.66 Z M 158.64 95.35 L 157.71 94.99 C 156.80 94.65 155.78 95.10 155.43 96.01 C 155.08 96.92 155.54 97.93 156.45 98.28 L 157.38 98.64 C 158.29 98.99 159.31 98.53 159.65 97.62 C 160.00 96.71 159.55 95.70 158.64 95.35 Z M 157.63 94.97 L 156.69 94.65 C 155.77 94.35 154.77 94.85 154.46 95.77 C 154.16 96.69 154.66 97.69 155.58 98.00 L 156.52 98.31 C 157.45 98.62 158.44 98.12 158.75 97.19 C 159.06 96.27 158.56 95.27 157.63 94.97 Z M 156.52 94.60 L 155.53 94.38 C 154.58 94.17 153.64 94.77 153.43 95.72 C 153.22 96.67 153.82 97.61 154.76 97.82 L 155.75 98.04 C 156.70 98.26 157.64 97.66 157.85 96.71 C 158.07 95.76 157.47 94.82 156.52 94.60 Z M 155.33 94.35 L 154.33 94.25 C 153.36 94.15 152.50 94.85 152.40 95.82 C 152.30 96.79 153.00 97.66 153.97 97.76 L 154.97 97.86 C 155.94 97.96 156.80 97.25 156.90 96.28 C 157.00 95.31 156.30 94.45 155.33 94.35 Z M 154.21 94.24 L 153.21 94.21 C 152.23 94.17 151.42 94.94 151.38 95.91 C 151.35 96.88 152.11 97.70 153.09 97.73 L 154.09 97.76 C 155.07 97.80 155.88 97.03 155.91 96.06 C 155.95 95.09 155.18 94.27 154.21 94.24 Z M 153.16 94.20 L 152.16 94.20 C 151.19 94.19 150.39 94.97 150.38 95.95 C 150.38 96.92 151.16 97.72 152.13 97.72 L 153.13 97.73 C 154.11 97.74 154.90 96.96 154.91 95.98 C 154.92 95.01 154.13 94.21 153.16 94.20 Z M 152.15 94.20 L 151.16 94.20 C 150.18 94.20 149.39 94.99 149.39 95.96 C 149.39 96.93 150.18 97.72 151.16 97.72 L 152.15 97.72 C 153.12 97.72 153.91 96.93 153.91 95.96 C 153.91 94.99 153.12 94.20 152.15 94.20 Z M 151.16 94.20 L 150.16 94.20 C 149.18 94.20 148.39 94.99 148.39 95.96 C 148.39 96.93 149.18 97.72 150.16 97.72 L 151.16 97.72 C 152.13 97.72 152.92 96.93 152.92 95.96 C 152.92 94.99 152.13 94.20 151.16 94.20 Z M 150.18 94.20 L 149.19 94.18 C 148.21 94.17 147.41 94.95 147.40 95.93 C 147.39 96.90 148.17 97.70 149.14 97.71 L 150.14 97.72 C 151.11 97.74 151.91 96.96 151.92 95.98 C 151.93 95.01 151.15 94.21 150.18 94.20 Z M 149.29 94.19 L 148.29 94.12 C 147.32 94.05 146.47 94.78 146.41 95.76 C 146.34 96.73 147.07 97.57 148.04 97.64 L 149.04 97.71 C 150.01 97.77 150.86 97.04 150.92 96.07 C 150.99 95.10 150.26 94.26 149.29 94.19 Z M 148.38 94.13 L 147.39 94.01 C 146.42 93.88 145.54 94.57 145.42 95.53 C 145.30 96.50 145.98 97.38 146.95 97.50 L 147.95 97.63 C 148.91 97.75 149.79 97.06 149.91 96.10 C 150.03 95.13 149.35 94.25 148.38 94.13 Z M 147.41 94.01 L 147.22 93.98 C 146.26 93.85 145.37 94.52 145.24 95.49 C 145.10 96.45 145.78 97.34 146.74 97.47 L 146.93 97.50 C 147.89 97.63 148.78 96.96 148.91 95.99 C 149.05 95.03 148.37 94.14 147.41 94.01 Z"
      fill="black"
      fill-rule="nonzero" /></svg>