<svg xmlns="http://www.w3.org/2000/svg" width="300" height="300" viewBox="0 0 300 300">
<path d="M 154.77 86.53 L 154.84 85.54 C 154.90 84.72 154.29 84.01 153.47 83.95 C 152.65 83.89 151.94 84.50 151.88 85.32 L 151.80 86.31 C 151.74 87.13 152.36 87.84 153.18 87.90 C 153.99 87.97 154.71 87.35 154.77 86.53 Z M 151.86 85.63 L 151.93 86.19 C 152.04 87.02 152.80 87.61 153.63 87.50 C 154.46 87.40 155.04 86.64 154.93 85.81 L 154.86 85.24 C 154.75 84.41 153.99 83.82 153.16 83.93 C 152.34 84.04 151.75 84.80 151.86 85.63 Z M 151.91 86.10 L 151.98 87.13 C 152.03 87.97 152.76 88.61 153.60 88.56 C 154.44 88.50 155.08 87.77 155.02 86.93 L 154.96 85.90 C 154.90 85.06 154.17 84.42 153.33 84.48 C 152.49 84.53 151.85 85.26 151.91 86.10 Z M 151.97 87.11 L 152.03 88.34 C 152.07 89.19 152.80 89.84 153.64 89.79 C 154.49 89.75 155.14 89.03 155.10 88.18 L 155.04 86.95 C 154.99 86.10 154.27 85.45 153.42 85.50 C 152.57 85.54 151.92 86.26 151.97 87.11 Z M 152.02 88.32 L 152.07 89.39 C 152.10 90.24 152.82 90.90 153.67 90.87 C 154.52 90.83 155.19 90.11 155.15 89.26 L 155.11 88.19 C 155.07 87.34 154.35 86.68 153.50 86.72 C 152.65 86.75 151.99 87.47 152.02 88.32 Z M 152.06 89.38 L 152.10 90.37 C 152.13 91.23 152.85 91.89 153.70 91.86 C 154.56 91.83 155.22 91.11 155.19 90.26 L 155.15 89.27 C 155.12 88.41 154.40 87.75 153.55 87.78 C 152.70 87.81 152.03 88.53 152.06 89.38 Z M 152.10 90.38 L 152.14 91.35 C 152.17 92.20 152.89 92.87 153.75 92.83 C 154.60 92.80 155.27 92.08 155.23 91.22 L 155.19 90.25 C 155.16 89.40 154.44 88.73 153.58 88.77 C 152.73 88.80 152.06 89.52 152.10 90.38 Z M 152.13 91.37 L 152.19 92.33 C 152.23 93.18 152.96 93.84 153.82 93.79 C 154.67 93.75 155.33 93.02 155.28 92.16 L 155.23 91.20 C 155.19 90.35 154.46 89.69 153.60 89.73 C 152.75 89.78 152.09 90.51 152.13 91.37 Z M 152.18 92.34 L 152.24 93.32 C 152.29 94.18 153.03 94.83 153.89 94.78 C 154.74 94.73 155.40 93.99 155.35 93.13 L 155.29 92.15 C 155.24 91.29 154.50 90.64 153.64 90.69 C 152.78 90.74 152.13 91.48 152.18 92.34 Z M 152.24 93.32 L 152.30 94.34 C 152.35 95.20 153.09 95.85 153.95 95.80 C 154.81 95.75 155.46 95.01 155.41 94.15 L 155.35 93.13 C 155.30 92.27 154.56 91.62 153.70 91.67 C 152.84 91.73 152.19 92.46 152.24 93.32 Z M 152.30 94.33 L 152.36 95.37 C 152.40 96.23 153.14 96.89 154.00 96.84 C 154.86 96.80 155.52 96.06 155.47 95.20 L 155.41 94.16 C 155.37 93.30 154.63 92.64 153.77 92.69 C 152.91 92.74 152.25 93.47 152.30 94.33 Z M 152.35 95.36 L 152.40 96.40 C 152.45 97.26 153.18 97.92 154.04 97.88 C 154.90 97.84 155.57 97.11 155.53 96.25 L 155.48 95.21 C 155.43 94.35 154.70 93.68 153.84 93.72 C 152.98 93.77 152.31 94.50 152.35 95.36 Z M 152.40 96.39 L 152.45 97.40 C 152.49 98.27 153.22 98.93 154.08 98.89 C 154.95 98.85 155.62 98.12 155.58 97.26 L 155.53 96.25 C 155.49 95.39 154.76 94.72 153.89 94.76 C 153.03 94.80 152.36 95.53 152.40 96.39 Z M 152.45 97.41 L 152.49 98.35 C 152.53 99.21 153.27 99.88 154.13 99.84 C 155.00 99.80 155.67 99.06 155.62 98.20 L 155.58 97.25 C 155.54 96.39 154.80 95.72 153.94 95.76 C 153.07 95.81 152.40 96.54 152.45 97.41 Z M 152.49 98.36 L 152.54 99.36 C 152.59 100.23 153.33 100.89 154.20 100.84 C 155.06 100.80 155.73 100.06 155.68 99.19 L 155.63 98.19 C 155.58 97.32 154.84 96.66 153.97 96.70 C 153.11 96.75 152.44 97.49 152.49 98.36 Z M 152.54 99.36 L 152.59 100.32 C 152.64 101.19 153.38 101.86 154.25 101.81 C 155.12 101.76 155.78 101.02 155.73 100.15 L 155.68 99.19 C 155.63 98.32 154.89 97.66 154.03 97.70 C 153.16 97.75 152.49 98.49 152.54 99.36 Z M 152.59 100.31 L 152.64 101.33 C 152.67 102.20 153.41 102.87 154.28 102.83 C 155.14 102.80 155.82 102.06 155.78 101.19 L 155.74 100.17 C 155.70 99.30 154.96 98.63 154.10 98.67 C 153.23 98.70 152.55 99.44 152.59 100.31 Z M 152.63 101.31 L 152.66 102.34 C 152.69 103.21 153.42 103.89 154.29 103.86 C 155.16 103.84 155.84 103.11 155.81 102.24 L 155.78 101.21 C 155.76 100.34 155.03 99.66 154.16 99.69 C 153.29 99.71 152.61 100.44 152.63 101.31 Z M 152.66 102.33 L 152.69 103.37 C 152.71 104.24 153.44 104.93 154.31 104.91 C 155.18 104.88 155.86 104.16 155.84 103.29 L 155.82 102.25 C 155.79 101.38 155.07 100.69 154.20 100.71 C 153.33 100.73 152.64 101.46 152.66 102.33 Z M 152.69 103.37 L 152.71 104.32 C 152.73 105.19 153.46 105.88 154.33 105.86 C 155.20 105.84 155.89 105.11 155.87 104.24 L 155.84 103.29 C 155.82 102.42 155.10 101.73 154.23 101.75 C 153.36 101.77 152.67 102.50 152.69 103.37 Z M 152.71 104.33 L 152.74 105.38 C 152.77 106.25 153.50 106.94 154.37 106.91 C 155.24 106.89 155.93 106.16 155.90 105.29 L 155.87 104.23 C 155.84 103.36 155.11 102.68 154.24 102.70 C 153.37 102.73 152.68 103.46 152.71 104.33 Z M 152.74 105.38 L 152.77 106.31 C 152.79 107.18 153.52 107.87 154.39 107.85 C 155.27 107.82 155.95 107.09 155.93 106.22 L 155.90 105.29 C 155.88 104.42 155.15 103.73 154.28 103.75 C 153.40 103.78 152.72 104.51 152.74 105.38 Z M 152.77 106.29 L 152.78 107.27 C 152.79 108.14 153.51 108.84 154.38 108.82 C 155.26 108.81 155.95 108.09 155.94 107.22 L 155.93 106.24 C 155.92 105.37 155.20 104.67 154.33 104.69 C 153.45 104.70 152.75 105.42 152.77 106.29 Z M 152.78 107.25 L 152.78 108.29 C 152.79 109.16 153.50 109.86 154.37 109.86 C 155.25 109.86 155.95 109.15 155.95 108.27 L 155.94 107.24 C 155.94 106.36 155.23 105.66 154.35 105.66 C 153.48 105.67 152.78 106.38 152.78 107.25 Z M 152.78 108.28 L 152.78 109.30 C 152.79 110.18 153.49 110.88 154.37 110.88 C 155.24 110.88 155.95 110.17 155.95 109.30 L 155.95 108.28 C 155.95 107.41 155.24 106.70 154.37 106.70 C 153.49 106.70 152.78 107.41 152.78 108.28 Z M 152.78 109.31 L 152.79 110.33 C 152.79 111.21 153.50 111.91 154.37 111.91 C 155.25 111.91 155.95 111.20 155.95 110.32 L 155.95 109.30 C 155.95 108.42 155.23 107.72 154.36 107.72 C 153.49 107.72 152.78 108.43 152.78 109.31 Z M 152.79 110.36 L 152.81 111.29 C 152.82 112.17 153.55 112.86 154.42 112.84 C 155.29 112.83 155.99 112.10 155.97 111.23 L 155.95 110.30 C 155.93 109.42 155.21 108.73 154.34 108.75 C 153.46 108.76 152.77 109.49 152.79 110.36 Z M 152.81 111.31 L 152.84 112.31 C 152.87 113.19 153.60 113.87 154.47 113.84 C 155.35 113.81 156.03 113.08 156.00 112.21 L 155.97 111.21 C 155.94 110.34 155.21 109.65 154.34 109.68 C 153.46 109.71 152.78 110.44 152.81 111.31 Z M 152.84 112.29 L 152.86 113.27 C 152.87 114.15 153.59 114.84 154.47 114.83 C 155.34 114.81 156.04 114.09 156.02 113.22 L 156.00 112.23 C 155.99 111.36 155.27 110.67 154.39 110.68 C 153.52 110.70 152.82 111.42 152.84 112.29 Z M 152.86 113.25 L 152.86 114.26 C 152.86 115.14 153.57 115.84 154.44 115.84 C 155.32 115.84 156.02 115.13 156.02 114.26 L 156.02 113.24 C 156.02 112.37 155.31 111.66 154.43 111.66 C 153.56 111.66 152.85 112.37 152.86 113.25 Z M 152.86 114.26 L 152.86 115.27 C 152.86 116.14 153.57 116.85 154.44 116.85 C 155.31 116.85 156.02 116.14 156.02 115.27 L 156.02 114.26 C 156.02 113.39 155.31 112.68 154.44 112.68 C 153.57 112.68 152.86 113.39 152.86 114.26 Z M 152.86 115.27 L 152.86 116.28 C 152.86 117.15 153.57 117.86 154.44 117.86 C 155.31 117.86 156.02 117.15 156.02 116.28 L 156.02 115.27 C 156.02 114.39 155.31 113.68 154.44 113.68 C 153.57 113.68 152.86 114.39 152.86 115.27 Z M 152.86 116.28 L 152.86 117.27 C 152.86 118.15 153.57 118.86 154.44 118.86 C 155.31 118.86 156.02 118.15 156.02 117.27 L 156.02 116.28 C 156.02 115.40 155.31 114.69 154.44 114.69 C 153.57 114.69 152.86 115.40 152.86 116.28 Z M 152.86 117.27 L 152.86 118.19 C 152.86 119.07 153.57 119.77 154.44 119.77 C 155.32 119.77 156.02 119.07 156.02 118.19 L 156.02 117.27 C 156.02 116.40 155.32 115.69 154.44 115.69 C 153.57 115.69 152.86 116.40 152.86 117.27 Z M 152.86 118.19 L 152.86 119.22 C 152.86 120.10 153.57 120.81 154.44 120.81 C 155.32 120.81 156.02 120.10 156.02 119.22 L 156.02 118.19 C 156.02 117.32 155.32 116.61 154.44 116.61 C 153.57 116.61 152.86 117.32 152.86 118.19 Z M 152.86 119.22 L 152.86 120.10 C 152.86 120.97 153.56 121.68 154.44 121.68 C 155.32 121.68 156.03 120.97 156.03 120.10 L 156.03 119.22 C 156.03 118.35 155.32 117.64 154.44 117.64 C 153.56 117.64 152.86 118.35 152.86 119.22 Z M 152.85 120.10 L 152.85 121.04 C 152.85 121.92 153.56 122.63 154.44 122.63 C 155.32 122.63 156.03 121.92 156.03 121.04 L 156.03 120.10 C 156.03 119.22 155.32 118.51 154.44 118.51 C 153.56 118.51 152.85 119.22 152.85 120.10 Z M 152.85 121.04 L 152.85 122.19 C 152.85 123.06 153.56 123.77 154.44 123.77 C 155.32 123.77 156.03 123.06 156.03 122.19 L 156.03 121.04 C 156.03 120.17 155.32 119.46 154.44 119.46 C 153.56 119.46 152.85 120.17 152.85 121.04 Z M 152.85 122.19 L 152.85 123.24 C 152.85 124.12 153.56 124.83 154.44 124.83 C 155.32 124.83 156.03 124.12 156.03 123.24 L 156.03 122.19 C 156.03 121.31 155.32 120.60 154.44 120.60 C 153.56 120.60 152.85 121.31 152.85 122.19 Z M 152.85 123.24 L 152.85 124.27 C 152.85 125.15 153.56 125.86 154.44 125.86 C 155.32 125.86 156.03 125.15 156.03 124.27 L 156.03 123.24 C 156.03 122.36 155.32 121.65 154.44 121.65 C 153.56 121.65 152.85 122.36 152.85 123.24 Z M 152.85 124.27 L 152.85 125.32 C 152.85 126.20 153.56 126.91 154.44 126.91 C 155.32 126.91 156.03 126.20 156.03 125.32 L 156.03 124.27 C 156.03 123.39 155.32 122.68 154.44 122.68 C 153.56 122.68 152.85 123.39 152.85 124.27 Z M 152.85 125.32 L 152.85 126.31 C 152.85 127.19 153.56 127.91 154.44 127.91 C 155.32 127.91 156.03 127.19 156.03 126.31 L 156.03 125.32 C 156.03 124.44 155.32 123.72 154.44 123.72 C 153.56 123.72 152.85 124.44 152.85 125.32 Z M 152.85 126.31 L 152.85 127.32 C 152.85 128.20 153.56 128.91 154.44 128.91 C 155.32 128.91 156.03 128.20 156.03 127.32 L 156.03 126.31 C 156.03 125.43 155.32 124.72 154.44 124.72 C 153.56 124.72 152.85 125.43 152.85 126.31 Z M 152.84 127.32 L 152.84 128.32 C 152.84 129.20 153.56 129.92 154.44 129.92 C 155.32 129.92 156.04 129.20 156.04 128.32 L 156.04 127.32 C 156.04 126.44 155.32 125.72 154.44 125.72 C 153.56 125.72 152.84 126.44 152.84 127.32 Z M 152.84 128.32 L 152.84 129.26 C 152.84 130.14 153.56 130.86 154.44 130.86 C 155.32 130.86 156.04 130.14 156.04 129.26 L 156.04 128.32 C 156.04 127.44 155.32 126.73 154.44 126.73 C 153.56 126.73 152.84 127.44 152.84 128.32 Z M 152.84 129.26 L 152.84 130.25 C 152.84 131.14 153.56 131.85 154.44 131.85 C 155.32 131.85 156.04 131.14 156.04 130.25 L 156.04 129.26 C 156.04 128.38 155.32 127.66 154.44 127.66 C 153.56 127.66 152.84 128.38 152.84 129.26 Z M 152.84 130.25 L 152.84 131.28 C 152.84 132.17 153.56 132.88 154.44 132.88 C 155.32 132.88 156.04 132.17 156.04 131.28 L 156.04 130.25 C 156.04 129.37 155.32 128.66 154.44 128.66 C 153.56 128.66 152.84 129.37 152.84 130.25 Z M 152.84 131.28 L 152.84 132.34 C 152.84 133.22 153.56 133.94 154.44 133.94 C 155.32 133.94 156.04 133.22 156.04 132.34 L 156.04 131.28 C 156.04 130.40 155.32 129.69 154.44 129.69 C 153.56 129.69 152.84 130.40 152.84 131.28 Z M 152.84 132.34 L 152.84 133.30 C 152.84 134.19 153.56 134.90 154.44 134.90 C 155.32 134.90 156.04 134.19 156.04 133.30 L 156.04 132.34 C 156.04 131.45 155.32 130.74 154.44 130.74 C 153.56 130.74 152.84 131.45 152.84 132.34 Z M 152.84 133.30 L 152.84 134.44 C 152.84 135.32 153.56 136.04 154.44 136.04 C 155.32 136.04 156.04 135.32 156.04 134.44 L 156.04 133.30 C 156.04 132.42 155.32 131.70 154.44 131.70 C 153.56 131.70 152.84 132.42 152.84 133.30 Z M 152.84 134.44 L 152.84 135.33 C 152.84 136.21 153.56 136.93 154.44 136.93 C 155.32 136.93 156.04 136.21 156.04 135.33 L 156.04 134.44 C 156.04 133.55 155.32 132.84 154.44 132.84 C 153.56 132.84 152.84 133.55 152.84 134.44 Z M 152.84 135.33 L 152.84 136.25 C 152.84 137.14 153.56 137.85 154.44 137.85 C 155.32 137.85 156.04 137.14 156.04 136.25 L 156.04 135.33 C 156.04 134.44 155.32 133.73 154.44 133.73 C 153.56 133.73 152.84 134.44 152.84 135.33 Z M 152.84 136.25 L 152.84 137.26 C 152.84 138.14 153.56 138.86 154.44 138.86 C 155.32 138.86 156.04 138.14 156.04 137.26 L 156.04 136.25 C 156.04 135.37 155.32 134.65 154.44 134.65 C 153.56 134.65 152.84 135.37 152.84 136.25 Z M 152.84 137.26 L 152.84 138.24 C 152.84 139.12 153.56 139.84 154.44 139.84 C 155.32 139.84 156.04 139.12 156.04 138.24 L 156.04 137.26 C 156.04 136.37 155.32 135.66 154.44 135.66 C 153.56 135.66 152.84 136.37 152.84 137.26 Z M 152.84 138.24 L 152.84 139.26 C 152.84 140.14 153.56 140.86 154.44 140.86 C 155.32 140.86 156.04 140.14 156.04 139.26 L 156.04 138.24 C 156.04 137.36 155.32 136.64 154.44 136.64 C 153.56 136.64 152.84 137.36 152.84 138.24 Z M 152.84 139.26 L 152.84 140.27 C 152.84 141.15 153.56 141.87 154.44 141.87 C 155.32 141.87 156.04 141.15 156.04 140.27 L 156.04 139.26 C 156.04 138.38 155.32 137.66 154.44 137.66 C 153.56 137.66 152.84 138.38 152.84 139.26 Z M 152.84 140.27 L 152.84 141.28 C 152.84 142.17 153.56 142.88 154.44 142.88 C 155.32 142.88 156.04 142.17 156.04 141.28 L 156.04 140.27 C 156.04 139.39 155.32 138.67 154.44 138.67 C 153.56 138.67 152.84 139.39 152.84 140.27 Z M 152.84 141.28 L 152.84 142.26 C 152.84 143.15 153.56 143.86 154.44 143.86 C 155.32 143.86 156.04 143.15 156.04 142.26 L 156.04 141.28 C 156.04 140.40 155.32 139.69 154.44 139.69 C 153.56 139.69 152.84 140.40 152.84 141.28 Z M 152.84 142.26 L 152.84 143.18 C 152.84 144.06 153.56 144.78 154.44 144.78 C 155.32 144.78 156.04 144.06 156.04 143.18 L 156.04 142.26 C 156.04 141.38 155.32 140.67 154.44 140.67 C 153.56 140.67 152.84 141.38 152.84 142.26 Z M 152.84 143.18 L 152.84 144.24 C 152.84 145.12 153.56 145.84 154.44 145.84 C 155.32 145.84 156.04 145.12 156.04 144.24 L 156.04 143.18 C 156.04 142.30 155.32 141.58 154.44 141.58 C 153.56 141.58 152.84 142.30 152.84 143.18 Z M 152.84 144.24 L 152.84 145.18 C 152.84 146.06 153.56 146.78 154.44 146.78 C 155.32 146.78 156.04 146.06 156.04 145.18 L 156.04 144.24 C 156.04 143.36 155.32 142.64 154.44 142.64 C 153.56 142.64 152.84 143.36 152.84 144.24 Z M 152.84 145.18 L 152.84 146.23 C 152.84 147.11 153.56 147.82 154.44 147.82 C 155.32 147.82 156.04 147.11 156.04 146.23 L 156.04 145.18 C 156.04 144.30 155.32 143.58 154.44 143.58 C 153.56 143.58 152.84 144.30 152.84 145.18 Z M 152.84 146.23 L 152.84 147.29 C 152.84 148.17 153.56 148.89 154.44 148.89 C 155.32 148.89 156.04 148.17 156.04 147.29 L 156.04 146.23 C 156.04 145.34 155.32 144.63 154.44 144.63 C 153.56 144.63 152.84 145.34 152.84 146.23 Z M 152.84 147.29 L 152.84 148.32 C 152.84 149.20 153.56 149.92 154.44 149.92 C 155.32 149.92 156.04 149.20 156.04 148.32 L 156.04 147.29 C 156.04 146.41 155.32 145.69 154.44 145.69 C 153.56 145.69 152.84 146.41 152.84 147.29 Z M 152.84 148.32 L 152.84 149.28 C 152.84 150.16 153.56 150.88 154.44 150.88 C 155.32 150.88 156.04 150.16 156.04 149.28 L 156.04 148.32 C 156.04 147.44 155.32 146.72 154.44 146.72 C 153.56 146.72 152.84 147.44 152.84 148.32 Z M 152.84 149.28 L 152.84 150.32 C 152.84 151.21 153.56 151.92 154.44 151.92 C 155.32 151.92 156.04 151.21 156.04 150.32 L 156.04 149.28 C 156.04 148.40 155.32 147.68 154.44 147.68 C 153.56 147.68 152.84 148.40 152.84 149.28 Z M 152.84 150.32 L 152.84 151.29 C 152.84 152.17 153.56 152.88 154.44 152.88 C 155.32 152.88 156.04 152.17 156.04 151.29 L 156.04 150.32 C 156.04 149.44 155.32 148.72 154.44 148.72 C 153.56 148.72 152.84 149.44 152.84 150.32 Z M 152.84 151.29 L 152.84 152.27 C 152.84 153.15 153.56 153.87 154.44 153.87 C 155.32 153.87 156.04 153.15 156.04 152.27 L 156.04 151.29 C 156.04 150.40 155.32 149.69 154.44 149.69 C 153.56 149.69 152.84 150.40 152.84 151.29 Z M 152.84 152.27 L 152.84 153.26 C 152.84 154.14 153.56 154.86 154.44 154.86 C 155.32 154.86 156.04 154.14 156.04 153.26 L 156.04 152.27 C 156.04 151.38 155.32 150.67 154.44 150.67 C 153.56 150.67 152.84 151.38 152.84 152.27 Z M 152.84 153.26 L 152.84 154.26 C 152.84 155.14 153.56 155.85 154.44 155.85 C 155.32 155.85 156.04 155.14 156.04 154.26 L 156.04 153.26 C 156.04 152.38 155.32 151.66 154.44 151.66 C 153.56 151.66 152.84 152.38 152.84 153.26 Z M 152.84 154.26 L 152.84 155.26 C 152.84 156.14 153.56 156.86 154.44 156.86 C 155.32 156.86 156.04 156.14 156.04 155.26 L 156.04 154.26 C 156.04 153.38 155.32 152.66 154.44 152.66 C 153.56 152.66 152.84 153.38 152.84 154.26 Z M 152.85 155.26 L 152.85 156.26 C 152.85 157.14 153.56 157.85 154.44 157.85 C 155.32 157.85 156.04 157.14 156.04 156.26 L 156.04 155.26 C 156.04 154.38 155.32 153.67 154.44 153.67 C 153.56 153.67 152.85 154.38 152.85 155.26 Z M 152.85 156.26 L 152.85 157.26 C 152.85 158.14 153.56 158.85 154.44 158.85 C 155.32 158.85 156.03 158.14 156.03 157.26 L 156.03 156.26 C 156.03 155.38 155.32 154.66 154.44 154.66 C 153.56 154.66 152.85 155.38 152.85 156.26 Z M 152.85 157.26 L 152.85 158.24 C 152.85 159.12 153.56 159.84 154.44 159.84 C 155.32 159.84 156.03 159.12 156.03 158.24 L 156.03 157.26 C 156.03 156.38 155.32 155.66 154.44 155.66 C 153.56 155.66 152.85 156.38 152.85 157.26 Z M 152.85 158.24 L 152.85 159.26 C 152.85 160.14 153.56 160.85 154.44 160.85 C 155.32 160.85 156.03 160.14 156.03 159.26 L 156.03 158.24 C 156.03 157.36 155.32 156.65 154.44 156.65 C 153.56 156.65 152.85 157.36 152.85 158.24 Z M 152.85 159.26 L 152.85 160.26 C 152.84 161.14 153.56 161.86 154.44 161.86 C 155.32 161.86 156.03 161.15 156.03 160.27 L 156.03 159.26 C 156.03 158.38 155.32 157.67 154.44 157.67 C 153.56 157.67 152.85 158.38 152.85 159.26 Z M 152.85 160.25 L 152.84 161.25 C 152.83 162.12 153.53 162.85 154.41 162.85 C 155.29 162.86 156.01 162.16 156.02 161.28 L 156.03 160.28 C 156.04 159.41 155.34 158.68 154.46 158.68 C 153.58 158.67 152.86 159.37 152.85 160.25 Z M 152.84 161.22 L 152.81 162.25 C 152.78 163.12 153.48 163.86 154.36 163.88 C 155.24 163.90 155.97 163.21 155.99 162.33 L 156.02 161.31 C 156.04 160.43 155.35 159.69 154.47 159.67 C 153.59 159.65 152.86 160.34 152.84 161.22 Z M 152.81 162.23 L 152.77 163.19 C 152.74 164.07 153.42 164.81 154.30 164.84 C 155.18 164.87 155.92 164.19 155.95 163.31 L 155.99 162.35 C 156.02 161.47 155.34 160.73 154.46 160.70 C 153.58 160.66 152.84 161.35 152.81 162.23 Z M 152.77 163.19 L 152.74 164.09 C 152.70 164.97 153.39 165.71 154.26 165.74 C 155.14 165.78 155.88 165.09 155.92 164.22 L 155.95 163.31 C 155.99 162.44 155.30 161.69 154.43 161.66 C 153.55 161.62 152.81 162.31 152.77 163.19 Z M 152.74 164.10 L 152.70 165.20 C 152.67 166.08 153.36 166.82 154.24 166.85 C 155.12 166.87 155.85 166.19 155.88 165.31 L 155.92 164.20 C 155.95 163.32 155.26 162.59 154.38 162.56 C 153.50 162.53 152.77 163.22 152.74 164.10 Z M 152.70 165.22 L 152.68 166.18 C 152.65 167.06 153.35 167.79 154.23 167.82 C 155.11 167.84 155.84 167.14 155.86 166.26 L 155.88 165.30 C 155.90 164.42 155.21 163.69 154.33 163.66 C 153.45 163.64 152.72 164.34 152.70 165.22 Z M 152.68 166.19 L 152.65 167.23 C 152.63 168.11 153.32 168.84 154.20 168.86 C 155.08 168.88 155.81 168.19 155.83 167.31 L 155.86 166.26 C 155.88 165.38 155.18 164.65 154.31 164.63 C 153.43 164.61 152.70 165.31 152.68 166.19 Z M 152.65 167.23 L 152.62 168.22 C 152.60 169.10 153.29 169.83 154.17 169.85 C 155.05 169.87 155.78 169.18 155.81 168.30 L 155.83 167.31 C 155.86 166.43 155.16 165.70 154.28 165.68 C 153.41 165.65 152.67 166.35 152.65 167.23 Z M 152.62 168.21 L 152.59 169.25 C 152.56 170.13 153.25 170.86 154.13 170.89 C 155.01 170.92 155.74 170.23 155.77 169.35 L 155.81 168.31 C 155.84 167.43 155.15 166.70 154.27 166.67 C 153.39 166.64 152.65 167.33 152.62 168.21 Z M 152.59 169.25 L 152.56 170.21 C 152.53 171.09 153.23 171.82 154.10 171.85 C 154.98 171.87 155.72 171.18 155.74 170.30 L 155.77 169.35 C 155.80 168.47 155.11 167.74 154.23 167.71 C 153.35 167.68 152.62 168.37 152.59 169.25 Z M 152.56 170.23 L 152.54 171.22 C 152.53 172.09 153.23 172.82 154.11 172.83 C 154.99 172.85 155.71 172.15 155.73 171.27 L 155.74 170.28 C 155.76 169.40 155.06 168.68 154.18 168.66 C 153.30 168.65 152.58 169.35 152.56 170.23 Z M 152.54 171.23 L 152.54 172.26 C 152.53 173.14 153.24 173.86 154.12 173.86 C 155.00 173.87 155.72 173.16 155.72 172.28 L 155.73 171.25 C 155.73 170.37 155.02 169.65 154.15 169.65 C 153.27 169.64 152.55 170.35 152.54 171.23 Z M 152.54 172.27 L 152.54 173.26 C 152.54 174.14 153.25 174.85 154.13 174.85 C 155.01 174.86 155.72 174.14 155.72 173.26 L 155.72 172.27 C 155.72 171.39 155.01 170.68 154.13 170.68 C 153.25 170.68 152.54 171.39 152.54 172.27 Z M 152.54 173.26 L 152.54 174.35 C 152.54 175.23 153.25 175.95 154.13 175.95 C 155.01 175.95 155.72 175.23 155.72 174.35 L 155.72 173.26 C 155.72 172.38 155.01 171.67 154.13 171.67 C 153.25 171.67 152.54 172.38 152.54 173.26 Z M 152.54 174.35 L 152.54 175.27 C 152.54 176.15 153.25 176.86 154.13 176.86 C 155.01 176.86 155.72 176.15 155.72 175.27 L 155.72 174.35 C 155.72 173.47 155.01 172.76 154.13 172.76 C 153.25 172.76 152.54 173.47 152.54 174.35 Z M 152.54 175.27 L 152.54 176.27 C 152.54 177.15 153.25 177.86 154.13 177.86 C 155.01 177.86 155.72 177.15 155.72 176.27 L 155.72 175.27 C 155.72 174.39 155.01 173.67 154.13 173.67 C 153.25 173.67 152.54 174.39 152.54 175.27 Z M 152.54 176.27 L 152.54 177.25 C 152.54 178.13 153.25 178.85 154.13 178.85 C 155.01 178.85 155.72 178.13 155.72 177.25 L 155.72 176.27 C 155.72 175.39 155.01 174.68 154.13 174.68 C 153.25 174.68 152.54 175.39 152.54 176.27 Z M 152.54 177.25 L 152.54 178.25 C 152.54 179.13 153.25 179.84 154.13 179.84 C 155.01 179.84 155.72 179.13 155.72 178.25 L 155.72 177.25 C 155.72 176.38 155.01 175.66 154.13 175.66 C 153.25 175.66 152.54 176.38 152.54 177.25 Z M 152.54 178.25 L 152.54 179.26 C 152.54 180.14 153.25 180.85 154.13 180.85 C 155.01 180.85 155.72 180.14 155.72 179.26 L 155.72 178.25 C 155.72 177.38 155.01 176.67 154.13 176.67 C 153.25 176.67 152.54 177.38 152.54 178.25 Z M 152.55 179.26 L 152.55 180.26 C 152.55 181.13 153.26 181.84 154.13 181.84 C 155.00 181.84 155.71 181.13 155.71 180.26 L 155.71 179.26 C 155.71 178.39 155.00 177.68 154.13 177.68 C 153.26 177.68 152.55 178.39 152.55 179.26 Z M 152.55 180.26 L 152.55 181.26 C 152.55 182.13 153.26 182.84 154.13 182.84 C 155.00 182.84 155.70 182.13 155.70 181.26 L 155.70 180.26 C 155.70 179.39 155.00 178.68 154.13 178.68 C 153.26 178.68 152.55 179.39 152.55 180.26 Z M 152.56 181.26 L 152.56 182.26 C 152.56 183.12 153.26 183.83 154.13 183.83 C 155.00 183.83 155.70 183.12 155.70 182.26 L 155.70 181.26 C 155.70 180.39 155.00 179.69 154.13 179.69 C 153.26 179.69 152.56 180.39 152.56 181.26 Z M 152.56 182.26 L 152.56 183.26 C 152.56 184.12 153.26 184.82 154.13 184.82 C 155.00 184.82 155.70 184.12 155.70 183.26 L 155.70 182.26 C 155.70 181.39 155.00 180.69 154.13 180.69 C 153.26 180.69 152.56 181.39 152.56 182.26 Z M 152.56 183.26 L 152.56 184.19 C 152.56 185.05 153.26 185.76 154.13 185.76 C 155.00 185.76 155.70 185.05 155.70 184.19 L 155.70 183.26 C 155.70 182.39 155.00 181.69 154.13 181.69 C 153.26 181.69 152.56 182.39 152.56 183.26 Z M 152.56 184.19 L 152.56 185.24 C 152.56 186.11 153.26 186.81 154.13 186.81 C 154.99 186.81 155.70 186.11 155.70 185.24 L 155.70 184.19 C 155.70 183.32 154.99 182.62 154.13 182.62 C 153.26 182.62 152.56 183.32 152.56 184.19 Z M 152.56 185.24 L 152.56 186.26 C 152.56 187.12 153.26 187.82 154.13 187.82 C 154.99 187.82 155.70 187.12 155.70 186.26 L 155.70 185.24 C 155.70 184.38 154.99 183.67 154.13 183.67 C 153.26 183.67 152.56 184.38 152.56 185.24 Z M 152.56 186.26 L 152.56 187.26 C 152.56 188.13 153.27 188.83 154.13 188.83 C 154.99 188.83 155.69 188.13 155.69 187.26 L 155.69 186.26 C 155.69 185.39 154.99 184.69 154.13 184.69 C 153.27 184.69 152.56 185.39 152.56 186.26 Z M 152.57 187.26 L 152.56 188.31 C 152.56 189.18 153.26 189.88 154.12 189.88 C 154.99 189.88 155.69 189.18 155.69 188.32 L 155.69 187.27 C 155.70 186.40 155.00 185.70 154.13 185.70 C 153.27 185.70 152.57 186.39 152.57 187.26 Z M 152.56 188.29 L 152.55 189.22 C 152.53 190.09 153.22 190.80 154.08 190.81 C 154.95 190.83 155.66 190.14 155.67 189.28 L 155.69 188.34 C 155.70 187.48 155.02 186.77 154.15 186.75 C 153.29 186.74 152.58 187.43 152.56 188.29 Z M 152.55 189.19 L 152.52 190.18 C 152.48 191.04 153.16 191.77 154.02 191.80 C 154.88 191.83 155.60 191.16 155.63 190.30 L 155.67 189.31 C 155.70 188.45 155.03 187.72 154.17 187.69 C 153.31 187.66 152.58 188.33 152.55 189.19 Z M 152.52 190.17 L 152.48 191.17 C 152.44 192.03 153.11 192.76 153.97 192.79 C 154.83 192.83 155.55 192.16 155.59 191.30 L 155.63 190.30 C 155.67 189.44 155.00 188.72 154.14 188.68 C 153.28 188.65 152.56 189.32 152.52 190.17 Z M 152.48 191.18 L 152.44 192.19 C 152.41 193.04 153.08 193.76 153.93 193.80 C 154.79 193.83 155.51 193.16 155.55 192.31 L 155.59 191.30 C 155.62 190.44 154.95 189.72 154.09 189.68 C 153.24 189.65 152.51 190.32 152.48 191.18 Z M 152.44 192.19 L 152.43 192.51 C 152.40 193.36 153.07 194.08 153.92 194.12 C 154.78 194.15 155.50 193.48 155.53 192.62 L 155.54 192.31 C 155.58 191.45 154.91 190.73 154.05 190.70 C 153.20 190.66 152.48 191.33 152.44 192.19 Z"
      fill="black"
      fill-rule="nonzero" /><path d="M 149.26 219.88 L 148.23 219.90 C 147.36 219.92 146.67 220.64 146.69 221.51 C 146.71 222.38 147.43 223.07 148.30 223.05 L 149.32 223.03 C 150.19 223.01 150.88 222.29 150.87 221.42 C 150.85 220.55 150.13 219.86 149.26 219.88 Z M 147.77 223.07 L 148.63 223.34 C 149.52 223.61 150.45 223.12 150.72 222.23 C 151.00 221.35 150.50 220.42 149.62 220.15 L 148.76 219.88 C 147.88 219.61 146.94 220.10 146.67 220.98 C 146.40 221.86 146.89 222.80 147.77 223.07 Z M 148.15 223.10 L 148.95 223.67 C 149.70 224.21 150.75 224.04 151.29 223.29 C 151.83 222.54 151.65 221.49 150.90 220.95 L 150.10 220.38 C 149.35 219.84 148.31 220.01 147.77 220.77 C 147.23 221.52 147.40 222.56 148.15 223.10 Z M 148.70 223.46 L 149.42 224.22 C 150.06 224.90 151.11 224.93 151.79 224.30 C 152.46 223.67 152.50 222.61 151.87 221.93 L 151.15 221.17 C 150.52 220.49 149.46 220.46 148.78 221.09 C 148.11 221.72 148.07 222.78 148.70 223.46 Z M 149.38 224.18 L 150.04 224.94 C 150.65 225.64 151.70 225.72 152.40 225.11 C 153.10 224.51 153.18 223.45 152.57 222.75 L 151.91 221.98 C 151.31 221.28 150.25 221.21 149.55 221.81 C 148.85 222.42 148.77 223.48 149.38 224.18 Z M 150.02 224.91 L 150.65 225.68 C 151.24 226.40 152.30 226.49 153.01 225.90 C 153.73 225.31 153.82 224.26 153.23 223.55 L 152.60 222.78 C 152.01 222.06 150.95 221.97 150.24 222.55 C 149.53 223.14 149.43 224.20 150.02 224.91 Z M 150.62 225.64 L 151.24 226.44 C 151.81 227.17 152.86 227.30 153.59 226.73 C 154.32 226.16 154.45 225.11 153.88 224.38 L 153.27 223.58 C 152.70 222.86 151.64 222.73 150.91 223.29 C 150.19 223.86 150.06 224.92 150.62 225.64 Z M 151.21 226.39 L 151.79 227.18 C 152.33 227.93 153.38 228.10 154.13 227.55 C 154.87 227.01 155.04 225.96 154.49 225.21 L 153.92 224.42 C 153.37 223.67 152.32 223.51 151.58 224.05 C 150.83 224.60 150.66 225.65 151.21 226.39 Z M 151.76 227.15 L 152.34 227.98 C 152.87 228.74 153.91 228.92 154.67 228.40 C 155.43 227.87 155.61 226.82 155.09 226.06 L 154.51 225.24 C 153.99 224.48 152.94 224.29 152.18 224.82 C 151.42 225.35 151.24 226.39 151.76 227.15 Z M 152.33 227.96 L 152.90 228.80 C 153.42 229.56 154.46 229.76 155.22 229.24 C 155.99 228.72 156.18 227.68 155.66 226.91 L 155.10 226.08 C 154.58 225.31 153.53 225.12 152.77 225.64 C 152.00 226.16 151.81 227.20 152.33 227.96 Z M 152.88 228.77 L 153.43 229.61 C 153.94 230.38 154.97 230.59 155.75 230.08 C 156.52 229.58 156.73 228.54 156.23 227.77 L 155.68 226.93 C 155.17 226.16 154.13 225.95 153.36 226.45 C 152.59 226.96 152.37 228.00 152.88 228.77 Z M 153.40 229.56 L 153.93 230.43 C 154.42 231.21 155.45 231.46 156.24 230.97 C 157.02 230.49 157.27 229.46 156.78 228.67 L 156.25 227.81 C 155.77 227.02 154.74 226.78 153.95 227.26 C 153.16 227.75 152.92 228.78 153.40 229.56 Z M 153.93 230.42 L 154.44 231.25 C 154.92 232.04 155.95 232.29 156.74 231.81 C 157.52 231.33 157.78 230.30 157.30 229.51 L 156.79 228.68 C 156.31 227.89 155.28 227.64 154.49 228.12 C 153.70 228.60 153.45 229.63 153.93 230.42 Z M 154.45 231.26 L 154.96 232.09 C 155.45 232.88 156.48 233.12 157.26 232.63 C 158.05 232.15 158.29 231.12 157.80 230.33 L 157.29 229.50 C 156.80 228.72 155.77 228.48 154.99 228.96 C 154.20 229.45 153.96 230.48 154.45 231.26 Z M 154.94 232.07 L 155.46 232.93 C 155.93 233.73 156.95 233.99 157.75 233.52 C 158.54 233.05 158.80 232.02 158.33 231.23 L 157.82 230.36 C 157.35 229.57 156.32 229.31 155.53 229.78 C 154.74 230.25 154.47 231.27 154.94 232.07 Z M 155.44 232.90 L 155.94 233.78 C 156.39 234.59 157.40 234.87 158.21 234.42 C 159.01 233.97 159.30 232.95 158.85 232.15 L 158.35 231.27 C 157.90 230.46 156.88 230.17 156.08 230.62 C 155.28 231.08 154.99 232.09 155.44 232.90 Z M 155.92 233.75 L 156.40 234.65 C 156.83 235.47 157.84 235.78 158.65 235.34 C 159.47 234.91 159.78 233.90 159.34 233.09 L 158.86 232.18 C 158.43 231.37 157.42 231.06 156.61 231.49 C 155.80 231.93 155.49 232.94 155.92 233.75 Z M 156.39 234.62 L 156.84 235.51 C 157.26 236.33 158.26 236.66 159.07 236.24 C 159.89 235.83 160.22 234.83 159.81 234.01 L 159.36 233.12 C 158.94 232.30 157.94 231.97 157.12 232.39 C 156.30 232.80 155.97 233.80 156.39 234.62 Z M 156.84 235.50 L 157.04 235.91 C 157.45 236.73 158.45 237.06 159.27 236.65 C 160.09 236.24 160.42 235.25 160.01 234.43 L 159.81 234.02 C 159.40 233.20 158.40 232.87 157.58 233.27 C 156.76 233.68 156.43 234.68 156.84 235.50 Z"
      fill="black"
      fill-rule="nonzero" /></svg>